<?xml version="1.0" encoding="UTF-8" standalone="no"?>
<!-- Created with Inkscape (http://www.inkscape.org/) -->

<svg
   width="250"
   height="250"
   viewBox="0 0 66.145832 66.145832"
   version="1.1"
   id="svg1"
   inkscape:version="1.4 (86a8ad7, 2024-10-11)"
   sodipodi:docname="BG_Repeat_Icons.svg"
   inkscape:export-filename="BG_Repeat_Icons.png"
   inkscape:export-xdpi="96"
   inkscape:export-ydpi="96"
   xmlns:inkscape="http://www.inkscape.org/namespaces/inkscape"
   xmlns:sodipodi="http://sodipodi.sourceforge.net/DTD/sodipodi-0.dtd"
   xmlns="http://www.w3.org/2000/svg"
   xmlns:svg="http://www.w3.org/2000/svg">
  <sodipodi:namedview
     id="namedview1"
     pagecolor="#ffffff"
     bordercolor="#000000"
     borderopacity="0.25"
     inkscape:showpageshadow="2"
     inkscape:pageopacity="0.0"
     inkscape:pagecheckerboard="0"
     inkscape:deskcolor="#d1d1d1"
     inkscape:document-units="mm"
     showguides="true"
     inkscape:zoom="1.9551503"
     inkscape:cx="100.50378"
     inkscape:cy="134.77225"
     inkscape:window-width="1366"
     inkscape:window-height="705"
     inkscape:window-x="-8"
     inkscape:window-y="-8"
     inkscape:window-maximized="1"
     inkscape:current-layer="layer1">
    <sodipodi:guide
       position="33.072916,33.072916"
       orientation="-1,0"
       id="guide16"
       inkscape:locked="false"
       inkscape:label=""
       inkscape:color="rgb(0,134,229)" />
    <sodipodi:guide
       position="33.072916,33.072916"
       orientation="0,1"
       id="guide17"
       inkscape:locked="false"
       inkscape:label=""
       inkscape:color="rgb(0,134,229)" />
  </sodipodi:namedview>
  <defs
     id="defs1">
    <inkscape:path-effect
       effect="fillet_chamfer"
       id="path-effect12"
       is_visible="true"
       lpeversion="1"
       nodesatellites_param="F,0,0,1,0,2.7781254,0,1 @ F,0,0,1,0,0,0,1 @ F,0,0,1,0,0,0,1 @ F,0,0,1,0,0,0,1 @ F,0,0,1,0,0,0,1 @ F,0,0,1,0,0,0,1 @ F,0,0,1,0,0,0,1 @ F,0,0,1,0,0,0,1 @ F,0,0,1,0,2.7781257,0,1 @ F,0,0,1,0,2.7781246,0,1 | F,0,0,1,0,0.9260424,0,1 @ F,0,0,1,0,0.92604131,0,1 @ F,0,0,1,0,0.9260416,0,1 @ F,0,0,1,0,0.92604169,0,1"
       radius="0"
       unit="px"
       method="auto"
       mode="F"
       chamfer_steps="1"
       flexible="false"
       use_knot_distance="true"
       apply_no_radius="true"
       apply_with_radius="true"
       only_selected="false"
       hide_knots="false" />
    <inkscape:path-effect
       effect="fillet_chamfer"
       id="path-effect11"
       is_visible="true"
       lpeversion="1"
       nodesatellites_param="F,0,0,1,0,0,0,1 @ F,0,0,1,0,0,0,1 @ F,0,1,1,0,4.3390444,0,1 @ F,0,0,1,0,4.3390444,0,1"
       radius="0"
       unit="px"
       method="auto"
       mode="F"
       chamfer_steps="1"
       flexible="false"
       use_knot_distance="true"
       apply_no_radius="true"
       apply_with_radius="true"
       only_selected="false"
       hide_knots="false" />
    <inkscape:path-effect
       effect="fillet_chamfer"
       id="path-effect10"
       is_visible="true"
       lpeversion="1"
       nodesatellites_param="F,0,0,1,0,0,0,1 @ F,0,0,1,0,0,0,1 @ F,0,0,1,0,5.509225,0,1 @ F,0,0,1,0,0,0,1 @ F,0,0,1,0,0,0,1 @ F,0,0,1,0,5.512842,0,1 @ F,0,0,1,0,0,0,1"
       radius="0"
       unit="px"
       method="auto"
       mode="F"
       chamfer_steps="1"
       flexible="false"
       use_knot_distance="true"
       apply_no_radius="true"
       apply_with_radius="true"
       only_selected="false"
       hide_knots="false" />
    <inkscape:path-effect
       effect="fillet_chamfer"
       id="path-effect3"
       is_visible="true"
       lpeversion="1"
       nodesatellites_param="F,0,0,1,0,1.3300719,0,1 @ F,0,0,1,0,0,0,1 @ F,0,0,1,0,0,0,1 @ F,0,0,1,0,0,0,1 @ F,0,0,1,0,0,0,1 @ F,0,0,1,0,0,0,1 @ F,0,0,1,0,0,0,1 @ F,0,0,1,0,1.2961234,0,1 | F,0,0,1,0,1.851583,0,1 @ F,0,0,1,0,0,0,1 @ F,0,0,1,0,0,0,1 @ F,0,0,1,0,1.7798374,0,1 | F,0,0,1,0,0,0,1 @ F,0,0,1,0,1.7850884,0,1 @ F,0,0,1,0,1.5932199,0,1 @ F,0,0,1,0,0,0,1 @ F,0,0,1,0,0,0,1 @ F,0,0,1,0,0,0,1 @ F,0,0,1,0,0,0,1 @ F,0,0,1,0,0,0,1"
       radius="0"
       unit="px"
       method="auto"
       mode="F"
       chamfer_steps="1"
       flexible="false"
       use_knot_distance="true"
       apply_no_radius="true"
       apply_with_radius="true"
       only_selected="false"
       hide_knots="false" />
    <inkscape:path-effect
       effect="fillet_chamfer"
       id="path-effect12-8"
       is_visible="true"
       lpeversion="1"
       nodesatellites_param="F,0,0,1,0,2.7781254,0,1 @ F,0,0,1,0,0,0,1 @ F,0,0,1,0,0,0,1 @ F,0,0,1,0,0,0,1 @ F,0,0,1,0,0,0,1 @ F,0,0,1,0,0,0,1 @ F,0,0,1,0,0,0,1 @ F,0,0,1,0,0,0,1 @ F,0,0,1,0,2.7781257,0,1 @ F,0,0,1,0,2.7781246,0,1 | F,0,0,1,0,0.9260424,0,1 @ F,0,0,1,0,0.92604131,0,1 @ F,0,0,1,0,0.9260416,0,1 @ F,0,0,1,0,0.92604169,0,1"
       radius="0"
       unit="px"
       method="auto"
       mode="F"
       chamfer_steps="1"
       flexible="false"
       use_knot_distance="true"
       apply_no_radius="true"
       apply_with_radius="true"
       only_selected="false"
       hide_knots="false" />
  </defs>
  <g
     inkscape:label="Capa 1"
     inkscape:groupmode="layer"
     id="layer1"
     style="display:inline">
    <path
       id="rect1"
       style="fill:#070056;fill-opacity:0.28329298;stroke:#260060;stroke-width:0"
       d="m 4.795279,44.202091 2.247511,2.247512 2.113692,-2.113691 -1.196383,-1.196383 2.113691,-2.113691 1.196383,1.196383 2.113692,-2.113692 -2.274633,-2.274633 a 1.464335,1.464335 0 0 0 -2.070882,0 l -4.243071,4.243071 a 1.5026893,1.5026893 0 0 0 0,2.125124 z m -0.594399,9.88241 2.751913,2.751914 16.909531,-16.909531 -2.809229,-2.80923 a 2.0108257,2.0108257 0 0 0 -2.843737,0 L 4.20088,51.126133 a 2.0918824,2.0918824 0 0 0 0,2.958368 z m 4.101043,4.101044 4.154577,4.154577 a 2.0167581,2.0167581 0 0 0 2.852127,0 L 29.51931,48.129438 a 1.7999888,1.7999888 0 0 0 0,-2.545569 l -4.307856,-4.307856 -7.39792,7.39792 1.056846,1.056846 -2.113691,2.113691 -1.056846,-1.056846 z"
       sodipodi:nodetypes="ccccccccccccccccccccccc" />
    <path
       id="rect1-0"
       style="display:inline;fill:#070056;fill-opacity:0.28329298;stroke:#260060;stroke-width:0"
       d="m 55.117133,5.0639018 -2.247512,2.247511 2.113691,2.113692 1.196383,-1.196383 2.113691,2.1136912 -1.196383,1.196383 2.113692,2.113691 2.274633,-2.274632 a 1.464335,1.464335 0 0 0 0,-2.0708822 l -4.243071,-4.243071 a 1.5026893,1.5026893 0 0 0 -2.125124,0 z m -9.88241,-0.594399 -2.751914,2.751913 16.909531,16.9095302 2.80923,-2.809229 a 2.0108257,2.0108257 0 0 0 0,-2.843737 L 48.193091,4.4695028 a 2.0918824,2.0918824 0 0 0 -2.958368,0 z m -4.101044,4.101043 -4.154577,4.1545762 a 2.0167581,2.0167581 0 0 0 0,2.852127 l 14.210684,14.210683 a 1.7999888,1.7999888 0 0 0 2.545569,0 l 4.307856,-4.307856 -7.39792,-7.39792 -1.056846,1.056846 -2.113691,-2.113691 1.056846,-1.056846 z"
       sodipodi:nodetypes="ccccccccccccccccccccccc" />
    <path
       id="rect9-1-7"
       style="display:inline;fill:#070056;fill-opacity:0.28329298;stroke:#260060;stroke-width:0"
       inkscape:transform-center-x="-1.6941899"
       inkscape:transform-center-y="-1.8720842"
       d="m 27.465313,6.027715 c -3.345641,-3.3456402 -8.769994,-3.3456402 -12.115636,7e-7 -0.974738,0.9777893 -1.686174,2.1631824 -2.095467,3.4478656 -0.57108,1.7924977 -1.45386,4.4720797 -2.793048,5.8112657 l -1.9373913,1.937392 2.0736333,2.073632 7.474584,-7.474584 -0.407584,-0.407583 a 1.7292356,1.7292356 0 0 1 -1e-6,-2.4455085 1.7292348,1.7292348 0 0 1 2.445508,0 1.7292354,1.7292354 0 0 1 0,2.4455085 l -0.407584,0.407584 0.982797,0.982798 0.982797,0.982797 0.407585,-0.407584 a 1.7292354,1.7292354 0 0 1 2.445508,-1e-6 1.7292348,1.7292348 0 0 1 0,2.445509 1.7292356,1.7292356 0 0 1 -2.445508,-1e-6 l -0.407585,-0.407585 -7.474583,7.474584 2.077726,2.077727 1.937392,-1.937391 c 1.340066,-1.340066 4.021452,-2.224113 5.814677,-2.796914 1.282472,-0.409655 2.465914,-1.120541 3.44218,-2.093876 3.345641,-3.34564 3.345641,-8.769995 0,-12.115636 z m -8.170571,3.7576502 a 0.5764115,0.5764115 0 0 0 -0.81517,-10e-7 0.57641168,0.57641168 0 0 0 10e-7,0.8151698 0.57641174,0.57641174 0 0 0 0.815169,-10e-7 0.57641183,0.57641183 0 0 0 0,-0.8151678 z m 4.411103,4.4111018 a 0.57641183,0.57641183 0 0 0 -0.815169,0 0.57641174,0.57641174 0 0 0 0,0.81517 0.57641168,0.57641168 0 0 0 0.81517,0 0.5764115,0.5764115 0 0 0 -1e-6,-0.81517 z m -4.818687,-1.558009 -7.474585,7.474583 1.965595,1.965596 7.474584,-7.474585 -0.982797,-0.982797 z M 7.2757709,17.269955 5.1700687,19.375658 5.7712105,19.9768 4.3096377,21.438373 a 2.7008246,2.7008246 0 0 0 1e-7,3.819742 l 3.9275505,3.92755 a 2.7008246,2.7008246 0 0 0 3.8197427,0 l 1.461572,-1.461572 0.60137,0.601368 2.105702,-2.105702 -0.601369,-0.601369 -7.7472932,-7.747292 z" />
    <path
       id="rect9-1-7-8"
       style="display:inline;fill:#070056;fill-opacity:0.28329298;stroke:#260060;stroke-width:0"
       inkscape:transform-center-x="1.872084"
       inkscape:transform-center-y="-1.6941901"
       d="m 38.701018,38.739693 c -3.34564,3.345641 -3.34564,8.769994 1e-6,12.115636 0.977789,0.974738 2.163182,1.686174 3.447865,2.095467 1.792498,0.57108 4.47208,1.45386 5.811266,2.793048 l 1.937392,1.937391 2.073632,-2.073633 -7.474584,-7.474584 -0.407583,0.407584 a 1.7292356,1.7292356 0 0 1 -2.445508,10e-7 1.7292348,1.7292348 0 0 1 0,-2.445508 1.7292354,1.7292354 0 0 1 2.445508,0 l 0.407584,0.407584 0.982798,-0.982797 0.982797,-0.982797 -0.407584,-0.407585 a 1.7292354,1.7292354 0 0 1 -1e-6,-2.445508 1.7292348,1.7292348 0 0 1 2.445509,0 1.7292356,1.7292356 0 0 1 -10e-7,2.445508 l -0.407585,0.407585 7.474584,7.474583 2.077727,-2.077726 -1.937391,-1.937392 c -1.340066,-1.340066 -2.224113,-4.021452 -2.796914,-5.814677 -0.409655,-1.282472 -1.120541,-2.465914 -2.093876,-3.44218 -3.34564,-3.345641 -8.769995,-3.345641 -12.115636,0 z m 3.75765,8.170571 a 0.5764115,0.5764115 0 0 0 -1e-6,0.81517 0.57641168,0.57641168 0 0 0 0.81517,-10e-7 0.57641174,0.57641174 0 0 0 -10e-7,-0.815169 0.57641183,0.57641183 0 0 0 -0.815168,0 z m 4.411102,-4.411103 a 0.57641183,0.57641183 0 0 0 0,0.815169 0.57641174,0.57641174 0 0 0 0.81517,0 0.57641168,0.57641168 0 0 0 0,-0.81517 0.5764115,0.5764115 0 0 0 -0.81517,10e-7 z m -1.558009,4.818687 7.474583,7.474585 1.965596,-1.965595 -7.474585,-7.474584 -0.982797,0.982797 z m 4.631497,11.611387 2.105703,2.105702 0.601142,-0.601142 1.461573,1.461573 a 2.7008246,2.7008246 0 0 0 3.819742,0 l 3.92755,-3.927551 a 2.7008246,2.7008246 0 0 0 0,-3.819742 l -1.461572,-1.461572 0.601368,-0.60137 -2.105702,-2.105702 -0.601369,0.601369 -7.747292,7.747293 z" />
  </g>
</svg>
