<?xml version="1.0" encoding="UTF-8" standalone="no"?>
<!-- Created with Inkscape (http://www.inkscape.org/) -->

<svg
   width="250"
   height="250"
   viewBox="0 0 66.145832 66.145832"
   version="1.1"
   id="svg1"
   inkscape:version="1.4 (86a8ad7, 2024-10-11)"
   sodipodi:docname="BG_Repeat_Icons.svg"
   inkscape:export-filename="BG_Repeat_Icons.png"
   inkscape:export-xdpi="96"
   inkscape:export-ydpi="96"
   xmlns:inkscape="http://www.inkscape.org/namespaces/inkscape"
   xmlns:sodipodi="http://sodipodi.sourceforge.net/DTD/sodipodi-0.dtd"
   xmlns="http://www.w3.org/2000/svg"
   xmlns:svg="http://www.w3.org/2000/svg">
  <sodipodi:namedview
     id="namedview1"
     pagecolor="#ffffff"
     bordercolor="#000000"
     borderopacity="0.25"
     inkscape:showpageshadow="2"
     inkscape:pageopacity="0.0"
     inkscape:pagecheckerboard="0"
     inkscape:deskcolor="#d1d1d1"
     inkscape:document-units="mm"
     showguides="true"
     inkscape:zoom="1.9551503"
     inkscape:cx="100.50378"
     inkscape:cy="134.77225"
     inkscape:window-width="1366"
     inkscape:window-height="705"
     inkscape:window-x="-8"
     inkscape:window-y="-8"
     inkscape:window-maximized="1"
     inkscape:current-layer="layer1">
    <sodipodi:guide
       position="33.072916,33.072916"
       orientation="-1,0"
       id="guide16"
       inkscape:locked="false"
       inkscape:label=""
       inkscape:color="rgb(0,134,229)" />
    <sodipodi:guide
       position="33.072916,33.072916"
       orientation="0,1"
       id="guide17"
       inkscape:locked="false"
       inkscape:label=""
       inkscape:color="rgb(0,134,229)" />
  </sodipodi:namedview>
  <defs
     id="defs1">
    <inkscape:path-effect
       effect="fillet_chamfer"
       id="path-effect12"
       is_visible="true"
       lpeversion="1"
       nodesatellites_param="F,0,0,1,0,2.7781254,0,1 @ F,0,0,1,0,0,0,1 @ F,0,0,1,0,0,0,1 @ F,0,0,1,0,0,0,1 @ F,0,0,1,0,0,0,1 @ F,0,0,1,0,0,0,1 @ F,0,0,1,0,0,0,1 @ F,0,0,1,0,0,0,1 @ F,0,0,1,0,2.7781257,0,1 @ F,0,0,1,0,2.7781246,0,1 | F,0,0,1,0,0.9260424,0,1 @ F,0,0,1,0,0.92604131,0,1 @ F,0,0,1,0,0.9260416,0,1 @ F,0,0,1,0,0.92604169,0,1"
       radius="0"
       unit="px"
       method="auto"
       mode="F"
       chamfer_steps="1"
       flexible="false"
       use_knot_distance="true"
       apply_no_radius="true"
       apply_with_radius="true"
       only_selected="false"
       hide_knots="false" />
    <inkscape:path-effect
       effect="fillet_chamfer"
       id="path-effect11"
       is_visible="true"
       lpeversion="1"
       nodesatellites_param="F,0,0,1,0,0,0,1 @ F,0,0,1,0,0,0,1 @ F,0,1,1,0,4.3390444,0,1 @ F,0,0,1,0,4.3390444,0,1"
       radius="0"
       unit="px"
       method="auto"
       mode="F"
       chamfer_steps="1"
       flexible="false"
       use_knot_distance="true"
       apply_no_radius="true"
       apply_with_radius="true"
       only_selected="false"
       hide_knots="false" />
    <inkscape:path-effect
       effect="fillet_chamfer"
       id="path-effect10"
       is_visible="true"
       lpeversion="1"
       nodesatellites_param="F,0,0,1,0,0,0,1 @ F,0,0,1,0,0,0,1 @ F,0,0,1,0,5.509225,0,1 @ F,0,0,1,0,0,0,1 @ F,0,0,1,0,0,0,1 @ F,0,0,1,0,5.512842,0,1 @ F,0,0,1,0,0,0,1"
       radius="0"
       unit="px"
       method="auto"
       mode="F"
       chamfer_steps="1"
       flexible="false"
       use_knot_distance="true"
       apply_no_radius="true"
       apply_with_radius="true"
       only_selected="false"
       hide_knots="false" />
    <inkscape:path-effect
       effect="fillet_chamfer"
       id="path-effect3"
       is_visible="true"
       lpeversion="1"
       nodesatellites_param="F,0,0,1,0,1.3300719,0,1 @ F,0,0,1,0,0,0,1 @ F,0,0,1,0,0,0,1 @ F,0,0,1,0,0,0,1 @ F,0,0,1,0,0,0,1 @ F,0,0,1,0,0,0,1 @ F,0,0,1,0,0,0,1 @ F,0,0,1,0,1.2961234,0,1 | F,0,0,1,0,1.851583,0,1 @ F,0,0,1,0,0,0,1 @ F,0,0,1,0,0,0,1 @ F,0,0,1,0,1.7798374,0,1 | F,0,0,1,0,0,0,1 @ F,0,0,1,0,1.7850884,0,1 @ F,0,0,1,0,1.5932199,0,1 @ F,0,0,1,0,0,0,1 @ F,0,0,1,0,0,0,1 @ F,0,0,1,0,0,0,1 @ F,0,0,1,0,0,0,1 @ F,0,0,1,0,0,0,1"
       radius="0"
       unit="px"
       method="auto"
       mode="F"
       chamfer_steps="1"
       flexible="false"
       use_knot_distance="true"
       apply_no_radius="true"
       apply_with_radius="true"
       only_selected="false"
       hide_knots="false" />
    <inkscape:path-effect
       effect="fillet_chamfer"
       id="path-effect12-8"
       is_visible="true"
       lpeversion="1"
       nodesatellites_param="F,0,0,1,0,2.7781254,0,1 @ F,0,0,1,0,0,0,1 @ F,0,0,1,0,0,0,1 @ F,0,0,1,0,0,0,1 @ F,0,0,1,0,0,0,1 @ F,0,0,1,0,0,0,1 @ F,0,0,1,0,0,0,1 @ F,0,0,1,0,0,0,1 @ F,0,0,1,0,2.7781257,0,1 @ F,0,0,1,0,2.7781246,0,1 | F,0,0,1,0,0.9260424,0,1 @ F,0,0,1,0,0.92604131,0,1 @ F,0,0,1,0,0.9260416,0,1 @ F,0,0,1,0,0.92604169,0,1"
       radius="0"
       unit="px"
       method="auto"
       mode="F"
       chamfer_steps="1"
       flexible="false"
       use_knot_distance="true"
       apply_no_radius="true"
       apply_with_radius="true"
       only_selected="false"
       hide_knots="false" />
  </defs>
  <g
     inkscape:label="Capa 1"
     inkscape:groupmode="layer"
     id="layer1"
     style="display:inline">
    <path
       id="rect1"
       style="fill:#bb2e30;fill-opacity:1;stroke:#260060;stroke-width:0"
       d="M 21.407479 3.5186483 C 19.21498 3.5186484 17.022272 4.3547186 15.349451 6.0275391 C 14.374713 7.0053284 13.663264 8.1907074 13.253971 9.4753906 C 12.682891 11.267888 11.800565 13.947736 10.461377 15.286922 L 8.5240275 17.224272 L 10.597286 19.298047 L 18.071765 11.823051 L 17.664555 11.415841 A 1.7292356 1.7292356 0 0 1 17.664555 8.9699951 A 1.7292348 1.7292348 0 0 1 20.109884 8.9699951 A 1.7292354 1.7292354 0 0 1 20.109884 11.415841 L 19.702157 11.823051 L 20.685042 12.805937 L 21.667928 13.788822 L 22.075655 13.381095 A 1.7292354 1.7292354 0 0 1 24.520984 13.381095 A 1.7292348 1.7292348 0 0 1 24.520984 15.826941 A 1.7292356 1.7292356 0 0 1 22.075655 15.826941 L 21.667928 15.419214 L 14.193449 22.893693 L 16.270841 24.971602 L 18.208708 23.034253 C 19.548774 21.694187 22.230115 20.809809 24.02334 20.237008 C 25.305812 19.827353 26.489241 19.11693 27.465507 18.143595 C 30.811148 14.797955 30.811148 9.3731801 27.465507 6.0275391 C 25.792686 4.354719 23.599977 3.5186482 21.407479 3.5186483 z M 46.386833 3.8824504 A 2.0918824 2.0918824 0 0 0 45.234965 4.4694946 L 42.482678 7.2212646 L 59.39224 24.130827 L 62.201371 21.321696 A 2.0108257 2.0108257 0 0 0 62.201371 18.477942 L 48.192924 4.4694946 A 2.0918824 2.0918824 0 0 0 46.386833 3.8824504 z M 56.179517 4.6240072 A 1.5026893 1.5026893 0 0 0 55.117049 5.0637736 L 52.869641 7.3111816 L 54.983207 9.4252645 L 56.179517 8.2289551 L 58.293599 10.342521 L 57.096773 11.538831 L 59.210856 13.652397 L 61.485136 11.3776 A 1.464335 1.464335 0 0 0 61.485136 9.3069255 L 57.242501 5.0637736 A 1.5026893 1.5026893 0 0 0 56.179517 4.6240072 z M 41.133923 8.5705363 L 36.979138 12.725321 A 2.0167581 2.0167581 0 0 0 36.979138 15.577344 L 51.18964 29.787846 A 1.7999888 1.7999888 0 0 0 53.735221 29.787846 L 58.042969 25.480098 L 50.645487 18.0821 L 49.588188 19.138883 L 47.474622 17.025317 L 48.531405 15.968534 L 41.133923 8.5705363 z M 18.737874 9.6361043 A 0.5764115 0.5764115 0 0 0 18.479492 9.7854492 A 0.57641168 0.57641168 0 0 0 18.479492 10.600387 A 0.57641174 0.57641174 0 0 0 19.294946 10.600387 A 0.57641183 0.57641183 0 0 0 19.294946 9.7854492 A 0.5764115 0.5764115 0 0 0 18.737874 9.6361043 z M 18.887219 12.638505 L 11.41274 20.112984 L 13.377995 22.078756 L 20.852991 14.604277 L 19.870105 13.621391 L 18.887219 12.638505 z M 23.148975 14.047205 A 0.57641183 0.57641183 0 0 0 22.890592 14.196549 A 0.57641174 0.57641174 0 0 0 22.890592 15.011487 A 0.57641168 0.57641168 0 0 0 23.706047 15.011487 A 0.5764115 0.5764115 0 0 0 23.706047 14.196549 A 0.57641183 0.57641183 0 0 0 23.148975 14.047205 z M 7.2755249 17.269747 L 5.1702271 19.375562 L 5.771224 19.976558 L 4.3098145 21.438485 A 2.7008246 2.7008246 0 0 0 4.3098145 25.25789 L 8.2372233 29.185815 A 2.7008246 2.7008246 0 0 0 12.057145 29.185815 L 13.518555 27.723889 L 14.120068 28.325403 L 16.225366 26.219588 L 15.624369 25.618591 L 7.8770386 17.871261 L 7.2755249 17.269747 z M 44.759025 36.230347 C 42.566526 36.230347 40.373817 37.066934 38.700997 38.739754 C 35.355357 42.085395 35.355356 47.509652 38.700997 50.855294 C 39.678786 51.830032 40.864165 52.54148 42.148848 52.950773 C 43.941346 53.521853 46.621194 54.404696 47.96038 55.743884 L 49.897729 57.681234 L 51.970988 55.607458 L 44.496509 48.132979 L 44.088782 48.540706 A 1.7292356 1.7292356 0 0 1 41.643453 48.540706 A 1.7292348 1.7292348 0 0 1 41.643453 46.094861 A 1.7292354 1.7292354 0 0 1 44.088782 46.094861 L 44.496509 46.502588 L 45.479395 45.519702 L 46.46228 44.537333 L 46.054553 44.129606 A 1.7292354 1.7292354 0 0 1 46.054553 41.683761 A 1.7292348 1.7292348 0 0 1 48.499882 41.683761 A 1.7292356 1.7292356 0 0 1 48.499882 44.129606 L 48.092672 44.537333 L 55.567151 52.011812 L 57.64506 49.933903 L 55.707194 47.996554 C 54.367128 46.656488 53.483266 43.975146 52.910465 42.181921 C 52.50081 40.899449 51.789871 39.71602 50.816536 38.739754 C 49.143716 37.066934 46.951524 36.230347 44.759025 36.230347 z M 19.31665 36.553324 A 2.0108257 2.0108257 0 0 0 18.209224 37.117631 L 4.2007772 51.126078 A 2.0918824 2.0918824 0 0 0 4.2007772 54.084554 L 6.9525472 56.836324 L 23.862109 39.926762 L 21.052979 37.117631 A 2.0108257 2.0108257 0 0 0 19.31665 36.553324 z M 10.073804 37.404952 A 1.464335 1.464335 0 0 0 9.038208 37.833866 L 4.7950562 42.077018 A 1.5026893 1.5026893 0 0 0 4.7950562 44.201953 L 7.042981 46.449361 L 9.156547 44.335795 L 7.9602376 43.139486 L 10.073804 41.02592 L 11.270113 42.222229 L 13.383679 40.108663 L 11.109399 37.833866 A 1.464335 1.464335 0 0 0 10.073804 37.404952 z M 25.211381 41.276034 L 17.813383 48.674032 L 18.870166 49.730815 L 16.7566 51.844381 L 15.699817 50.787598 L 8.3018188 58.185596 L 12.456604 62.339864 A 2.0167581 2.0167581 0 0 0 15.308626 62.339864 L 29.519128 48.129362 A 1.7999888 1.7999888 0 0 0 29.519128 45.583781 L 25.211381 41.276034 z M 47.128389 42.34987 A 0.5764115 0.5764115 0 0 0 46.870007 42.499215 A 0.57641183 0.57641183 0 0 0 46.870007 43.314152 A 0.57641174 0.57641174 0 0 0 47.684945 43.314152 A 0.57641168 0.57641168 0 0 0 47.684945 42.499215 A 0.5764115 0.5764115 0 0 0 47.128389 42.34987 z M 47.277218 45.352271 L 46.294332 46.335156 L 45.311963 47.318042 L 52.786442 54.792521 L 54.751697 52.82675 L 47.277218 45.352271 z M 42.717289 46.76097 A 0.57641183 0.57641183 0 0 0 42.458907 46.910315 A 0.5764115 0.5764115 0 0 0 42.458907 47.725252 A 0.57641168 0.57641168 0 0 0 43.273844 47.725252 A 0.57641174 0.57641174 0 0 0 43.273844 46.910315 A 0.57641183 0.57641183 0 0 0 42.717289 46.76097 z M 58.893046 49.979378 L 58.291532 50.580892 L 50.544202 58.328223 L 49.943205 58.92922 L 52.049019 61.035034 L 52.650016 60.434037 L 54.111426 61.895447 A 2.7008246 2.7008246 0 0 0 57.931348 61.895447 L 61.858757 57.968038 A 2.7008246 2.7008246 0 0 0 61.858757 54.148116 L 60.397347 52.686707 L 60.998861 52.085193 L 58.893046 49.979378 z " />
  </g>
</svg>
