<svg width="140" height="175" viewBox="0 0 140 175" fill="none" xmlns="http://www.w3.org/2000/svg"><path d="M0 44.162v72.8a9.1 9.1 0 0 0 9.1 9.1h121.8a9.1 9.1 0 0 0 6.435-2.665 9.1 9.1 0 0 0 2.665-6.435v-72.8a9.1 9.1 0 0 0-9.1-9.1H9.1a9.1 9.1 0 0 0-9.1 9.1" fill="#FFF5CD"/><path d="M35 17.551v17.511h70v-17.51A17.487 17.487 0 0 0 87.51.061H52.49A17.49 17.49 0 0 0 35 17.552m23.125.011h23.977A5.4 5.4 0 0 1 87.5 22.96v12.102h-35V23.187a5.626 5.626 0 0 1 5.625-5.625" fill="#FFF5CD"/><path d="M43.59 58.027c-9.577 0-17.34 7.764-17.34 17.34v.32c0 9.577 7.763 17.34 17.34 17.34h8.91v33.035h8.75V93.027h17.5v33.035h8.75V93.027h8.91c9.577 0 17.34-7.763 17.34-17.34v-.32c0-9.576-7.763-17.34-17.34-17.34-9.798.045-17.705 8.025-17.66 17.824v8.426h-17.5v-8.426c.045-9.799-7.861-17.778-17.66-17.824m0 8.75a8.91 8.91 0 0 1 8.91 8.91v8.59h-8.91A8.51 8.51 0 0 1 35 75.851a8.835 8.835 0 0 1 8.59-9.074m52.82 0a8.835 8.835 0 0 1 8.59 9.074 8.51 8.51 0 0 1-8.59 8.426H87.5v-8.59a8.91 8.91 0 0 1 8.91-8.91" fill="#123490"/><g clip-path="url(#a)"><path d="M0 137v29.822A8.18 8.18 0 0 0 8.178 175h3.774a8.18 8.18 0 0 0 8.178-8.178V137h-8.178v27.973a1.85 1.85 0 0 1-1.85 1.849 1.93 1.93 0 0 1-1.925-1.925V137zm26.294 0v38h8.178v-15.336c2.002 3.996 3.775 10.819 3.775 15.336h8.177v-38h-8.177v15.013l-.044-.078c-3.193-5.782-3.731-11.091-3.731-14.935zm31.106 0a4.09 4.09 0 0 0-4.089 4.089v.15a3.94 3.94 0 0 0 3.938 3.939 4.24 4.24 0 0 0 4.24-4.239v-.032A3.905 3.905 0 0 0 57.582 137zm10.131 0v8.178h1.747a4.23 4.23 0 0 1 4.229 4.229V175h8.178v-25.448a4.376 4.376 0 0 1 4.374-4.374h1.602V137zm25.805 0v38h20.13v-8.178h-8.705a3.25 3.25 0 0 1-3.247-3.248 3.495 3.495 0 0 1 3.512-3.485h8.44v-8.178h-8.705a3.25 3.25 0 0 1-3.247-3.247 3.63 3.63 0 0 1 3.769-3.486h8.183V137zm34.429 0a7.9 7.9 0 0 0-5.582 2.312 7.9 7.9 0 0 0-2.313 5.583v22.442a7.667 7.667 0 0 0 7.663 7.663H140v-8.178h-5.669a6.284 6.284 0 0 1-6.283-6.283v-8.863a6.5 6.5 0 0 1 1.903-4.595 6.5 6.5 0 0 1 4.595-1.903H140V137zm-74.454 11.257V175h8.178v-26.743z" fill="#FFF5CD"/></g><defs><clipPath id="a"><path fill="#fff" d="M0 137h140v38H0z"/></clipPath></defs></svg>