<?xml version="1.0" encoding="UTF-8" standalone="no"?>
<svg
   width="24"
   height="24"
   viewBox="0 0 24 24"
   version="1.1"
   id="svg1"
   sodipodi:docname="bxs-bell-ring.svg"
   inkscape:version="1.4 (86a8ad7, 2024-10-11)"
   xmlns:inkscape="http://www.inkscape.org/namespaces/inkscape"
   xmlns:sodipodi="http://sodipodi.sourceforge.net/DTD/sodipodi-0.dtd"
   xmlns="http://www.w3.org/2000/svg"
   xmlns:svg="http://www.w3.org/2000/svg">
  <defs
     id="defs1" />
  <sodipodi:namedview
     id="namedview1"
     pagecolor="#505050"
     bordercolor="#eeeeee"
     borderopacity="1"
     inkscape:showpageshadow="0"
     inkscape:pageopacity="0"
     inkscape:pagecheckerboard="0"
     inkscape:deskcolor="#505050"
     inkscape:zoom="9.375"
     inkscape:cx="12"
     inkscape:cy="12"
     inkscape:window-width="1366"
     inkscape:window-height="705"
     inkscape:window-x="-8"
     inkscape:window-y="-8"
     inkscape:window-maximized="1"
     inkscape:current-layer="svg1" />
  <path
     d="m5.705 3.71-1.41-1.42C1 5.563 1 7.935 1 11h1l1-.063C3 8.009 3 6.396 5.705 3.71zm13.999-1.42-1.408 1.42C21 6.396 21 8.009 21 11l2-.063c0-3.002 0-5.374-3.296-8.647zM12 22a2.98 2.98 0 0 0 2.818-2H9.182A2.98 2.98 0 0 0 12 22zm7-7.414V10c0-3.217-2.185-5.927-5.145-6.742C13.562 2.52 12.846 2 12 2s-1.562.52-1.855 1.258C7.184 4.073 5 6.783 5 10v4.586l-1.707 1.707A.996.996 0 0 0 3 17v1a1 1 0 0 0 1 1h16a1 1 0 0 0 1-1v-1a.996.996 0 0 0-.293-.707L19 14.586z"
     id="path1"
     style="fill:#aabac9;fill-opacity:1" />
</svg>
