<svg width="27" height="26" viewBox="0 0 27 26" fill="none" xmlns="http://www.w3.org/2000/svg">
<path d="M26.0821 20.2623L20.1797 14.8957C19.9006 14.6421 19.534 14.5068 19.1572 14.5185C18.7803 14.5301 18.4227 14.6878 18.1599 14.9581L14.6853 18.5315C13.8489 18.3718 12.1675 17.8476 10.4367 16.1212C8.70591 14.3889 8.18173 12.7031 8.02637 11.8726L11.5968 8.3965C11.8675 8.13387 12.0254 7.77623 12.037 7.39927C12.0487 7.02231 11.9132 6.6556 11.6593 6.37676L6.29413 0.475811C6.04009 0.196092 5.68701 0.0264212 5.30989 0.00283401C4.93277 -0.0207532 4.5613 0.103601 4.27439 0.349486L1.12354 3.05167C0.872501 3.30361 0.722666 3.63893 0.702455 3.99402C0.680675 4.35702 0.265402 12.9558 6.93301 19.6263C12.7497 25.4416 20.0359 25.867 22.0426 25.867C22.3359 25.867 22.5159 25.8583 22.5638 25.8554C22.9189 25.8355 23.254 25.685 23.5047 25.4329L26.2055 22.2806C26.4523 21.9946 26.5776 21.6234 26.5545 21.2463C26.5315 20.8692 26.3619 20.5161 26.0821 20.2623Z" fill="#AABAC9"/>
</svg>

