<svg width="140" height="140" viewBox="0 0 140 140" fill="none" xmlns="http://www.w3.org/2000/svg">
<g clip-path="url(#clip0_138_26)">
<path d="M0 51.1619V123.962C-6.08009e-07 125.157 0.235377 126.34 0.692695 127.444C1.15001 128.548 1.82031 129.552 2.66533 130.397C3.51034 131.242 4.51352 131.912 5.61758 132.369C6.72164 132.827 7.90497 133.062 9.1 133.062H130.9C133.313 133.062 135.628 132.103 137.335 130.397C139.041 128.69 140 126.375 140 123.962V51.1619C140 48.7485 139.041 46.4339 137.335 44.7273C135.628 43.0207 133.313 42.062 130.9 42.062H9.1C6.68653 42.062 4.37191 43.0207 2.66533 44.7273C0.958747 46.4339 1.7542e-07 48.7485 0 51.1619Z" fill="url(#paint0_linear_138_26)"/>
<path d="M35 24.5513V42.062H105V24.5513C105 22.2545 104.548 19.9803 103.669 17.8584C102.79 15.7365 101.502 13.8085 99.8775 12.1845C96.5976 8.90458 92.1491 7.06196 87.5107 7.06196H52.4893C50.1926 7.06196 47.9183 7.51433 45.7964 8.39325C43.6745 9.27217 41.7465 10.5604 40.1225 12.1845C38.4985 13.8085 37.2102 15.7365 36.3313 17.8584C35.4524 19.9803 35 22.2545 35 24.5513ZM58.1253 24.562H82.1024C83.5339 24.562 84.9068 25.1307 85.9191 26.1429C86.9313 27.1551 87.5 28.528 87.5 29.9596V42.062H52.5V30.1873C52.5 28.6954 53.0927 27.2645 54.1476 26.2096C55.2026 25.1546 56.6334 24.562 58.1253 24.562Z" fill="url(#paint1_linear_138_26)"/>
<path d="M43.59 65.0273C34.0134 65.0272 26.2499 72.7906 26.25 82.3673V82.6872C26.2499 92.2639 34.0134 100.027 43.59 100.027H52.5V133.062H61.25V100.027H70H78.75V133.062H87.5V100.027H96.41C105.987 100.027 113.75 92.2639 113.75 82.6872V82.3673C113.75 72.7906 105.987 65.0272 96.41 65.0273C86.6115 65.0725 78.705 73.0522 78.75 82.8506V91.2773H70H61.25V82.8506C61.2951 73.0522 53.3885 65.0725 43.59 65.0273ZM43.59 73.7773C48.5108 73.7774 52.4999 77.7664 52.5 82.6872V91.2773H43.59C38.891 91.3225 35.0451 87.5497 35 82.8506C34.8665 77.973 38.7124 73.9107 43.59 73.7773ZM96.41 73.7773C101.288 73.9107 105.133 77.973 105 82.8506C104.955 87.5497 101.109 91.3225 96.41 91.2773H87.5V82.6872C87.5001 77.7664 91.4892 73.7774 96.41 73.7773Z" fill="#FFF2C8"/>
</g>
<defs>
<linearGradient id="paint0_linear_138_26" x1="52.5" y1="135.413" x2="70" y2="42.062" gradientUnits="userSpaceOnUse">
<stop stop-color="#831536"/>
<stop offset="0.611952" stop-color="#AC0B0E"/>
<stop offset="1" stop-color="#D81A01"/>
</linearGradient>
<linearGradient id="paint1_linear_138_26" x1="70" y1="42.062" x2="70" y2="7.06196" gradientUnits="userSpaceOnUse">
<stop stop-color="#740F31"/>
<stop offset="0.753915" stop-color="#C7070D"/>
<stop offset="1" stop-color="#F63E00"/>
</linearGradient>
<clipPath id="clip0_138_26">
<rect width="140" height="140" fill="white"/>
</clipPath>
</defs>
</svg>
