<svg width="140" height="38" viewBox="0 0 140 38" fill="none" xmlns="http://www.w3.org/2000/svg">
<g clip-path="url(#clip0_138_32)">
<path d="M0 -0.00013201V29.8221C4.4872e-05 31.9909 0.861615 34.0709 2.39518 35.6046C3.92875 37.1382 6.00871 37.9998 8.1775 37.9998H11.9522C14.121 37.9998 16.201 37.1382 17.7345 35.6046C19.2681 34.0709 20.1297 31.9909 20.1297 29.8221V-0.00013201H11.9522V27.9726C11.9522 28.2155 11.9044 28.456 11.8115 28.6804C11.7185 28.9048 11.5823 29.1087 11.4106 29.2804C11.2388 29.4521 11.0349 29.5884 10.8105 29.6813C10.5862 29.7743 10.3457 29.8221 10.1028 29.8221C9.84994 29.8221 9.59956 29.7723 9.36596 29.6756C9.13236 29.5788 8.92011 29.437 8.74132 29.2582C8.56253 29.0794 8.42072 28.8672 8.32397 28.6336C8.22723 28.4 8.17746 28.1496 8.1775 27.8967V-0.00013201H0ZM26.2944 -0.00013201V37.9998H34.4718V22.6644C36.4738 26.6599 38.2466 33.4833 38.2466 37.9998H46.4241V-0.00013201H38.2466V15.0133L38.2033 14.9352C35.0104 9.15329 34.4718 3.84397 34.4718 -0.000244141L26.2944 -0.00013201ZM57.4 -0.00013201C56.3156 -0.000108282 55.2757 0.430706 54.5089 1.19751C53.7421 1.96432 53.3113 3.00433 53.3113 4.08876V4.23938C53.3112 4.7566 53.413 5.26879 53.6109 5.74667C53.8088 6.22455 54.0988 6.65875 54.4645 7.02451C54.8302 7.39027 55.2644 7.68042 55.7422 7.87836C56.2201 8.07631 56.7322 8.17821 57.2494 8.1782C58.3738 8.17818 59.4521 7.73149 60.2471 6.93644C61.0421 6.14138 61.4888 5.06307 61.4888 3.9387V3.90674C61.4888 3.39369 61.3878 2.88566 61.1914 2.41167C60.9951 1.93767 60.7074 1.50697 60.3446 1.14419C59.9818 0.781415 59.5512 0.493649 59.0772 0.297324C58.6032 0.100999 58.0952 -4.0049e-05 57.5821 -1.98785e-05L57.4 -0.00013201ZM67.5311 -0.00013201V8.17815H69.278C70.3995 8.17817 71.4751 8.62372 72.2681 9.41677C73.0611 10.2098 73.5067 11.2854 73.5067 12.407V37.9998H81.6847V12.5522C81.6848 11.3922 82.1456 10.2796 82.9659 9.45936C83.7861 8.63907 84.8986 8.17819 86.0586 8.17815H87.6608V-0.00013201H67.5311ZM93.3363 -0.00013201V37.9998H113.466V29.8221H104.761C104.335 29.8221 103.913 29.7382 103.519 29.575C103.124 29.4118 102.766 29.1725 102.465 28.871C102.163 28.5694 101.924 28.2113 101.761 27.8173C101.598 27.4232 101.514 27.0009 101.514 26.5744C101.517 25.6465 101.889 24.758 102.548 24.1043C103.207 23.4507 104.098 23.0855 105.026 23.089H113.466V14.9107H104.761C104.335 14.9108 103.913 14.8268 103.519 14.6636C103.125 14.5005 102.767 14.2613 102.465 13.9598C102.163 13.6583 101.924 13.3003 101.761 12.9063C101.598 12.5123 101.514 12.09 101.514 11.6635C101.551 10.7015 101.97 9.79381 102.677 9.14018C103.384 8.48654 104.321 8.14048 105.283 8.17815H113.466V-0.00013201H93.3363ZM127.765 -0.00013201C126.728 -0.000109067 125.702 0.204131 124.744 0.600919C123.786 0.997706 122.916 1.57929 122.183 2.31243C121.449 3.04557 120.868 3.91593 120.471 4.87381C120.075 5.83169 119.87 6.85832 119.87 7.8951V30.3375C119.87 31.3437 120.069 32.3402 120.454 33.2698C120.839 34.1995 121.403 35.0442 122.115 35.7557C122.826 36.4672 123.671 37.0316 124.601 37.4167C125.53 37.8017 126.527 37.9999 127.533 37.9998H140V29.8221H134.331C133.506 29.8221 132.689 29.6596 131.926 29.3438C131.164 29.0281 130.471 28.5653 129.888 27.9819C129.305 27.3984 128.842 26.7058 128.526 25.9436C128.21 25.1813 128.048 24.3643 128.048 23.5392V14.6757C128.048 13.8224 128.216 12.9774 128.543 12.1891C128.869 11.4008 129.348 10.6845 129.951 10.0811C130.555 9.47774 131.271 8.99915 132.059 8.67264C132.848 8.34614 133.692 8.1781 134.546 8.17815H140V-0.00013201H127.765ZM53.3113 11.2571V37.9998H61.4888V11.2571H53.3113Z" fill="url(#paint0_linear_138_32)"/>
</g>
<defs>
<linearGradient id="paint0_linear_138_32" x1="67.5311" y1="37.9998" x2="67.5311" y2="-0.000153542" gradientUnits="userSpaceOnUse">
<stop stop-color="#901238"/>
<stop offset="1" stop-color="#D80101"/>
</linearGradient>
<clipPath id="clip0_138_32">
<rect width="140" height="38" fill="white"/>
</clipPath>
</defs>
</svg>
