<?xml version="1.0" encoding="UTF-8" standalone="no"?>
<!-- Created with Inkscape (http://www.inkscape.org/) -->

<svg
   width="512"
   height="512"
   viewBox="0 0 135.46666 135.46667"
   version="1.1"
   id="svg1"
   inkscape:export-filename="unitec_Icono_PNG.png"
   inkscape:export-xdpi="96"
   inkscape:export-ydpi="96"
   inkscape:version="1.4 (86a8ad7, 2024-10-11)"
   sodipodi:docname="unitec_Logo_Negro.svg"
   xmlns:inkscape="http://www.inkscape.org/namespaces/inkscape"
   xmlns:sodipodi="http://sodipodi.sourceforge.net/DTD/sodipodi-0.dtd"
   xmlns="http://www.w3.org/2000/svg"
   xmlns:svg="http://www.w3.org/2000/svg">
  <sodipodi:namedview
     id="namedview1"
     pagecolor="#ffffff"
     bordercolor="#000000"
     borderopacity="0.25"
     inkscape:showpageshadow="2"
     inkscape:pageopacity="0.0"
     inkscape:pagecheckerboard="0"
     inkscape:deskcolor="#d1d1d1"
     inkscape:document-units="mm"
     inkscape:zoom="0.98528339"
     inkscape:cx="230.89804"
     inkscape:cy="266.42081"
     inkscape:window-width="1366"
     inkscape:window-height="705"
     inkscape:window-x="-8"
     inkscape:window-y="-8"
     inkscape:window-maximized="1"
     inkscape:current-layer="g33" />
  <defs
     id="defs1">
    <inkscape:path-effect
       effect="fillet_chamfer"
       id="path-effect4-3"
       is_visible="true"
       lpeversion="1"
       nodesatellites_param="F,0,0,1,0,6.8791665,0,1 @ F,0,0,1,0,6.8791665,0,1 @ F,0,0,1,0,6.8791628,0,1 @ F,0,0,1,0,6.8791628,0,1"
       radius="0"
       unit="px"
       method="auto"
       mode="F"
       chamfer_steps="1"
       flexible="false"
       use_knot_distance="true"
       apply_no_radius="true"
       apply_with_radius="true"
       only_selected="false"
       hide_knots="false" />
    <inkscape:path-effect
       effect="fillet_chamfer"
       id="path-effect3-9"
       is_visible="true"
       lpeversion="1"
       nodesatellites_param="F,0,0,1,0,13.22108,0,1 @ F,0,0,1,0,0,0,1 @ F,0,0,1,0,0,0,1 @ F,0,0,1,0,13.22108,0,1 | F,0,0,1,0,4.2524562,0,1 @ F,0,0,1,0,4.0803213,0,1 @ F,0,0,1,0,0,0,1 @ F,0,0,1,0,0,0,1"
       radius="0"
       unit="px"
       method="auto"
       mode="F"
       chamfer_steps="1"
       flexible="false"
       use_knot_distance="true"
       apply_no_radius="true"
       apply_with_radius="true"
       only_selected="false"
       hide_knots="false" />
  </defs>
  <g
     inkscape:label="Capa 1"
     inkscape:groupmode="layer"
     id="layer1">
    <g
       id="g33"
       transform="matrix(1.28,0,0,1.28,-18.965333,-15.310356)"
       inkscape:label="LOGO"
       style="display:inline">
      <path
         id="rect1"
         style="fill:#ffffff;fill-rule:nonzero;stroke:#000000;stroke-width:0;stroke-linejoin:miter;stroke-dasharray:none;fill-opacity:1"
         inkscape:label="maletin"
         d="M 54.496092 17.299633 A 13.22108 13.22108 0 0 0 41.275 30.520726 L 41.275 43.757967 L 21.695688 43.757967 A 6.8791665 6.8791665 0 0 0 14.816666 50.637392 L 14.816666 105.67037 A 6.8791665 6.8791665 0 0 0 21.695688 112.54979 L 54.504166 112.54979 L 54.504166 87.577159 L 47.768466 87.577159 C 40.528955 87.577228 34.660347 81.708216 34.660416 74.468705 L 34.660416 74.226876 C 34.660346 66.987364 40.528954 61.118757 47.768466 61.118826 C 55.175601 61.152982 61.152804 67.185108 61.11875 74.592244 L 61.11875 80.962576 L 67.733333 80.962576 L 74.347916 80.962576 L 74.347916 74.592244 C 74.313862 67.185109 80.291065 61.152986 87.6982 61.118826 C 94.937712 61.118756 100.80632 66.987364 100.80625 74.226876 L 100.80625 74.468705 C 100.80632 81.708217 94.937712 87.577229 87.6982 87.577159 L 80.9625 87.577159 L 80.9625 112.54979 L 113.77098 112.54979 A 6.8791628 6.8791628 0 0 0 120.65 105.67037 L 120.65 50.637392 A 6.8791628 6.8791628 0 0 0 113.77098 43.757967 L 94.191666 43.757967 L 94.191666 30.520726 A 13.22108 13.22108 0 0 0 80.970574 17.299633 L 54.496092 17.299633 z M 58.756572 30.5288 L 76.88208 30.5288 A 4.0803213 4.0803213 0 0 1 80.9625 34.60922 L 80.9625 43.757967 L 54.504166 43.757967 L 54.504166 34.781205 A 4.2524562 4.2524562 0 0 1 58.756572 30.5288 z M 47.768466 67.733409 C 44.08122 67.834282 41.174094 70.904999 41.275 74.592244 C 41.309054 78.14451 44.216201 80.996736 47.768466 80.962576 L 54.504166 80.962576 L 54.504166 74.468705 C 54.504097 70.748816 51.488355 67.733478 47.768466 67.733409 z M 87.6982 67.733409 C 83.978311 67.733478 80.962569 70.748816 80.9625 74.468705 L 80.9625 80.962576 L 87.6982 80.962576 C 91.250465 80.996733 94.157616 78.14451 94.191666 74.592244 C 94.292572 70.904998 91.385447 67.834281 87.6982 67.733409 z M 61.11875 87.577159 L 61.11875 112.54979 L 74.347916 112.54979 L 74.347916 87.577159 L 67.733333 87.577159 L 61.11875 87.577159 z " />
    </g>
  </g>
</svg>
