<svg width="140" height="182" viewBox="0 0 140 182" fill="none" xmlns="http://www.w3.org/2000/svg">
<path d="M0 51.162V123.962C-6.08009e-07 125.157 0.235377 126.34 0.692695 127.444C1.15001 128.548 1.82031 129.552 2.66533 130.397C3.51034 131.242 4.51352 131.912 5.61758 132.369C6.72164 132.827 7.90497 133.062 9.1 133.062H130.9C133.313 133.062 135.628 132.103 137.335 130.397C139.041 128.69 140 126.375 140 123.962V51.162C140 48.7485 139.041 46.4339 137.335 44.7273C135.628 43.0208 133.313 42.062 130.9 42.062H9.1C6.68653 42.062 4.37191 43.0208 2.66533 44.7273C0.958747 46.4339 1.7542e-07 48.7485 0 51.162Z" fill="white"/>
<path d="M35 24.5513V42.062H105V24.5513C105 22.2546 104.548 19.9804 103.669 17.8585C102.79 15.7366 101.502 13.8085 99.8775 12.1845C96.5976 8.90463 92.1491 7.06201 87.5107 7.06201H52.4893C50.1926 7.06201 47.9183 7.51439 45.7964 8.39331C43.6745 9.27223 41.7465 10.5605 40.1225 12.1845C38.4985 13.8085 37.2102 15.7366 36.3313 17.8585C35.4524 19.9804 35 22.2546 35 24.5513ZM58.1253 24.562H82.1024C83.5339 24.562 84.9068 25.1307 85.9191 26.143C86.9313 27.1552 87.5 28.5281 87.5 29.9596V42.062H52.5V30.1873C52.5 28.6954 53.0927 27.2646 54.1476 26.2096C55.2026 25.1547 56.6334 24.562 58.1253 24.562Z" fill="white"/>
<path d="M43.59 65.0273C34.0134 65.0273 26.2499 72.7907 26.25 82.3674V82.6873C26.2499 92.264 34.0134 100.027 43.59 100.027H52.5V133.062H61.25V100.027H70H78.75V133.062H87.5V100.027H96.41C105.987 100.027 113.75 92.264 113.75 82.6873V82.3674C113.75 72.7907 105.987 65.0273 96.41 65.0273C86.6115 65.0725 78.705 73.0523 78.75 82.8507V91.2773H70H61.25V82.8507C61.2951 73.0523 53.3885 65.0725 43.59 65.0273ZM43.59 73.7773C48.5108 73.7774 52.4999 77.7665 52.5 82.6873V91.2773H43.59C38.891 91.3225 35.0451 87.5497 35 82.8507C34.8665 77.9731 38.7124 73.9108 43.59 73.7773ZM96.41 73.7773C101.288 73.9108 105.133 77.9731 105 82.8507C104.955 87.5497 101.109 91.3225 96.41 91.2773H87.5V82.6873C87.5001 77.7665 91.4892 73.7774 96.41 73.7773Z" fill="#123490"/>
<path d="M0 144V173.822C4.4872e-05 175.991 0.861615 178.071 2.39518 179.605C3.92875 181.138 6.00871 182 8.1775 182H11.9522C14.121 182 16.201 181.138 17.7345 179.605C19.2681 178.071 20.1297 175.991 20.1297 173.822V144H11.9522V171.973C11.9522 172.215 11.9044 172.456 11.8115 172.68C11.7185 172.905 11.5823 173.109 11.4106 173.28C11.2388 173.452 11.0349 173.588 10.8105 173.681C10.5862 173.774 10.3457 173.822 10.1028 173.822C9.84994 173.822 9.59956 173.772 9.36596 173.676C9.13236 173.579 8.92011 173.437 8.74132 173.258C8.56253 173.079 8.42072 172.867 8.32397 172.634C8.22723 172.4 8.17746 172.15 8.1775 171.897V144H0ZM26.2944 144V182H34.4718V166.664C36.4738 170.66 38.2466 177.483 38.2466 182H46.4241V144H38.2466V159.013L38.2033 158.935C35.0104 153.153 34.4718 147.844 34.4718 144L26.2944 144ZM57.4 144C56.3156 144 55.2757 144.431 54.5089 145.198C53.7421 145.964 53.3113 147.004 53.3113 148.089V148.239C53.3112 148.757 53.413 149.269 53.6109 149.747C53.8088 150.225 54.0988 150.659 54.4645 151.025C54.8302 151.39 55.2644 151.68 55.7422 151.878C56.2201 152.076 56.7322 152.178 57.2494 152.178C58.3738 152.178 59.4521 151.731 60.2471 150.936C61.0421 150.141 61.4888 149.063 61.4888 147.939V147.907C61.4888 147.394 61.3878 146.886 61.1914 146.412C60.9951 145.938 60.7074 145.507 60.3446 145.144C59.9818 144.781 59.5512 144.494 59.0772 144.297C58.6032 144.101 58.0952 144 57.5821 144L57.4 144ZM67.5311 144V152.178H69.278C70.3995 152.178 71.4751 152.624 72.2681 153.417C73.0611 154.21 73.5067 155.285 73.5067 156.407V182H81.6847V156.552C81.6848 155.392 82.1456 154.28 82.9659 153.459C83.7861 152.639 84.8986 152.178 86.0586 152.178H87.6608V144H67.5311ZM93.3363 144V182H113.466V173.822H104.761C104.335 173.822 103.913 173.738 103.519 173.575C103.124 173.412 102.766 173.173 102.465 172.871C102.163 172.569 101.924 172.211 101.761 171.817C101.598 171.423 101.514 171.001 101.514 170.574C101.517 169.646 101.889 168.758 102.548 168.104C103.207 167.451 104.098 167.085 105.026 167.089H113.466V158.911H104.761C104.335 158.911 103.913 158.827 103.519 158.664C103.125 158.5 102.767 158.261 102.465 157.96C102.163 157.658 101.924 157.3 101.761 156.906C101.598 156.512 101.514 156.09 101.514 155.664C101.551 154.701 101.97 153.794 102.677 153.14C103.384 152.487 104.321 152.14 105.283 152.178H113.466V144H93.3363ZM127.765 144C126.728 144 125.702 144.204 124.744 144.601C123.786 144.998 122.916 145.579 122.183 146.312C121.449 147.046 120.868 147.916 120.471 148.874C120.075 149.832 119.87 150.858 119.87 151.895V174.337C119.87 175.344 120.069 176.34 120.454 177.27C120.839 178.199 121.403 179.044 122.115 179.756C122.826 180.467 123.671 181.032 124.601 181.417C125.53 181.802 126.527 182 127.533 182H140V173.822H134.331C133.506 173.822 132.689 173.66 131.926 173.344C131.164 173.028 130.471 172.565 129.888 171.982C129.305 171.398 128.842 170.706 128.526 169.944C128.21 169.181 128.048 168.364 128.048 167.539V158.676C128.048 157.822 128.216 156.977 128.543 156.189C128.869 155.401 129.348 154.684 129.951 154.081C130.555 153.478 131.271 152.999 132.059 152.673C132.848 152.346 133.692 152.178 134.546 152.178H140V144H127.765ZM53.3113 155.257V182H61.4888V155.257H53.3113Z" fill="white"/>
</svg>
