<svg width="140" height="126" viewBox="0 0 140 126" fill="none" xmlns="http://www.w3.org/2000/svg">
<path d="M35 17.4893V35H105V17.4893C105 15.1926 104.548 12.9183 103.669 10.7964C102.79 8.67454 101.502 6.74653 99.8775 5.1225C96.5976 1.84262 92.1491 0 87.5107 0H52.4893C50.1926 0 47.9183 0.452375 45.7964 1.33129C43.6745 2.21021 41.7465 3.49847 40.1225 5.1225C38.4985 6.74653 37.2102 8.67454 36.3313 10.7964C35.4524 12.9183 35 15.1926 35 17.4893ZM58.1253 17.5H82.1024C83.5339 17.5 84.9068 18.0687 85.9191 19.0809C86.9313 20.0932 87.5 21.4661 87.5 22.8976V35H52.5V23.1253C52.5 21.6334 53.0927 20.2026 54.1476 19.1476C55.2026 18.0927 56.6334 17.5 58.1253 17.5Z" fill="white"/>
<path d="M130.9 35C133.314 35.0001 135.628 35.9585 137.335 37.665C139.041 39.3715 140 41.6863 140 44.0996V116.9C140 119.314 139.041 121.628 137.335 123.335C135.628 125.041 133.314 126 130.9 126H87.5V92.9648H96.4102C105.987 92.9648 113.75 85.2016 113.75 75.625V75.3057C113.75 65.7291 105.987 57.9658 96.4102 57.9658C86.6117 58.011 78.7049 65.9906 78.75 75.7891V84.2148H61.25V75.7891C61.295 65.9906 53.3883 58.011 43.5898 57.9658C34.0133 57.9658 26.2499 65.7291 26.25 75.3057V75.625C26.2499 85.2016 34.0133 92.9648 43.5898 92.9648H52.5V126H9.09961C7.90471 126 6.72113 125.765 5.61719 125.308C4.51321 124.85 3.51 124.18 2.66504 123.335C1.82008 122.49 1.1497 121.487 0.692383 120.383C0.235116 119.279 5.1889e-05 118.095 0 116.9V44.0996C0.000103201 41.6863 0.95855 39.3715 2.66504 37.665C4.37153 35.9586 6.68628 35.0001 9.09961 35H130.9ZM78.75 92.9648V126H61.25V92.9648H78.75ZM43.5898 66.7148C48.5105 66.7149 52.4998 70.7043 52.5 75.625V84.2148H43.5898C38.891 84.2599 35.0453 80.4879 35 75.7891C34.8665 70.9115 38.7123 66.8484 43.5898 66.7148ZM96.4102 66.7148C101.288 66.8484 105.133 70.9115 105 75.7891C104.955 80.4879 101.109 84.2599 96.4102 84.2148H87.5V75.625C87.5003 70.7043 91.4895 66.7149 96.4102 66.7148Z" fill="white"/>
</svg>
