<svg width="45" height="45" viewBox="0 0 45 45" fill="none" xmlns="http://www.w3.org/2000/svg">
<g clip-path="url(#clip0_626_313)">
<g clip-path="url(#clip1_626_313)">
<path d="M22.5 45C34.9264 45 45 34.9264 45 22.5C45 10.0736 34.9264 0 22.5 0C10.0736 0 0 10.0736 0 22.5C0 34.9264 10.0736 45 22.5 45Z" fill="url(#paint0_linear_626_313)"/>
<path d="M22.5 8.51538C20.6455 8.51539 18.867 9.25208 17.5557 10.5634C16.2444 11.8747 15.5077 13.6532 15.5077 15.5077C15.5077 17.3621 16.2444 19.1406 17.5557 20.4519C18.867 21.7632 20.6455 22.4999 22.5 22.4999C24.3544 22.4999 26.133 21.7632 27.4443 20.4519C28.7556 19.1406 29.4923 17.3621 29.4923 15.5077C29.4923 13.6532 28.7556 11.8747 27.4443 10.5634C26.133 9.25208 24.3544 8.51539 22.5 8.51538ZM35.1185 16.7956V20.8034H31.1107V23.3347H35.1185V27.3425H37.6496V23.3347H41.6576V20.8034H37.6496V16.7956H35.1185ZM22.5 24.697C15.5144 24.697 9.72296 29.8005 8.64502 36.4819C12.3305 40.1365 17.3098 42.1881 22.5 42.1907C27.6898 42.1897 32.6694 40.1401 36.356 36.4873C35.2803 29.8032 29.4874 24.697 22.5 24.697Z" fill="white"/>
</g>
</g>
<defs>
<linearGradient id="paint0_linear_626_313" x1="30.5633" y1="1.49444" x2="14.4367" y2="43.5055" gradientUnits="userSpaceOnUse">
<stop stop-color="#34CA1F"/>
<stop offset="0.387356" stop-color="#009A3A"/>
<stop offset="1" stop-color="#17373C"/>
</linearGradient>
<clipPath id="clip0_626_313">
<rect width="45" height="45" fill="white"/>
</clipPath>
<clipPath id="clip1_626_313">
<rect width="45" height="45" fill="white"/>
</clipPath>
</defs>
</svg>
