<svg width="26" height="29" viewBox="0 0 26 29" fill="none" xmlns="http://www.w3.org/2000/svg">
<path d="M12.935 28.7444C13.8251 28.7456 14.6934 28.4694 15.4192 27.9542C16.1451 27.4391 16.6924 26.7106 16.9851 25.87H8.88491C9.17762 26.7106 9.72493 27.4391 10.4508 27.9542C11.1766 28.4694 12.0449 28.7456 12.935 28.7444ZM22.9956 18.0889V11.4978C22.9956 6.87423 19.8552 2.97936 15.601 1.80803C15.1799 0.747355 14.1509 0 12.935 0C11.7191 0 10.6901 0.747355 10.269 1.80803C6.01478 2.9808 2.87445 6.87423 2.87445 11.4978V18.0889L0.421108 20.5422C0.287385 20.6755 0.181335 20.8338 0.109064 21.0082C0.0367931 21.1826 -0.00027228 21.3696 1.50574e-06 21.5583V22.9956C1.50574e-06 23.3767 0.151423 23.7423 0.420954 24.0118C0.690485 24.2814 1.05605 24.4328 1.43722 24.4328H24.4328C24.814 24.4328 25.1795 24.2814 25.449 24.0118C25.7186 23.7423 25.87 23.3767 25.87 22.9956V21.5583C25.8703 21.3696 25.8332 21.1826 25.7609 21.0082C25.6887 20.8338 25.5826 20.6755 25.4489 20.5422L22.9956 18.0889Z" fill="#AABAC9"/>
</svg>
