<?xml version="1.0" encoding="UTF-8" standalone="no"?>
<!-- Created with Inkscape (http://www.inkscape.org/) -->

<svg
   width="887.32709"
   height="471.6879"
   viewBox="0 0 234.77195 124.80076"
   version="1.1"
   id="svg1"
   inkscape:version="1.4 (86a8ad7, 2024-10-11)"
   sodipodi:docname="404Window.svg"
   xmlns:inkscape="http://www.inkscape.org/namespaces/inkscape"
   xmlns:sodipodi="http://sodipodi.sourceforge.net/DTD/sodipodi-0.dtd"
   xmlns="http://www.w3.org/2000/svg"
   xmlns:svg="http://www.w3.org/2000/svg">
  <sodipodi:namedview
     id="namedview1"
     pagecolor="#505050"
     bordercolor="#eeeeee"
     borderopacity="1"
     inkscape:showpageshadow="0"
     inkscape:pageopacity="0"
     inkscape:pagecheckerboard="0"
     inkscape:deskcolor="#505050"
     inkscape:document-units="px"
     showguides="true"
     inkscape:zoom="0.45685727"
     inkscape:cx="375.39076"
     inkscape:cy="9.8499034"
     inkscape:window-width="1366"
     inkscape:window-height="705"
     inkscape:window-x="-8"
     inkscape:window-y="-8"
     inkscape:window-maximized="1"
     inkscape:current-layer="layer1">
    <sodipodi:guide
       position="-77.436373,31.750005"
       orientation="0,-1"
       id="guide2"
       inkscape:locked="false" />
    <sodipodi:guide
       position="-72.144706,26.458341"
       orientation="1,0"
       id="guide3"
       inkscape:locked="false" />
    <sodipodi:guide
       position="229.4803,179.91666"
       orientation="0,-1"
       id="guide4"
       inkscape:locked="false" />
    <sodipodi:guide
       position="224.18863,179.91666"
       orientation="1,0"
       id="guide5"
       inkscape:locked="false" />
    <sodipodi:guide
       position="131.42071,145.42165"
       orientation="1,0"
       id="guide6"
       inkscape:locked="false" />
    <sodipodi:guide
       position="177.80388,65.699239"
       orientation="0,-1"
       id="guide7"
       inkscape:locked="false" />
    <sodipodi:guide
       position="-7.6580092e-08,151.00946"
       orientation="1,0"
       id="guide8"
       inkscape:locked="false" />
    <sodipodi:guide
       position="10.58333,151.00946"
       orientation="1,0"
       id="guide9"
       inkscape:locked="false" />
    <sodipodi:guide
       position="126.12903,40.454763"
       orientation="0,-1"
       id="guide10"
       inkscape:locked="false" />
  </sodipodi:namedview>
  <defs
     id="defs1">
    <inkscape:path-effect
       effect="fillet_chamfer"
       id="path-effect1"
       is_visible="true"
       lpeversion="1"
       nodesatellites_param="F,0,0,1,0,7.1681059,0,1 @ F,0,0,1,0,7.1681059,0,1 @ F,0,0,1,0,7.1681059,0,1 @ F,0,0,1,0,7.1681059,0,1"
       radius="20"
       unit="px"
       method="auto"
       mode="F"
       chamfer_steps="1"
       flexible="false"
       use_knot_distance="true"
       apply_no_radius="true"
       apply_with_radius="true"
       only_selected="false"
       hide_knots="false" />
    <linearGradient
       id="paint0_linear_761_323"
       x1="-61.813499"
       y1="223.356"
       x2="-36.455898"
       y2="128.59599"
       gradientUnits="userSpaceOnUse"
       gradientTransform="matrix(0.26458333,0,0,0.26458333,228.38516,14.2462)">
      <stop
         stop-color="#152083"
         id="stop6" />
      <stop
         offset="1"
         stop-color="#018FD8"
         id="stop7" />
    </linearGradient>
    <linearGradient
       id="paint0_linear_761_331"
       x1="259.797"
       y1="269.86301"
       x2="293.008"
       y2="92.437599"
       gradientUnits="userSpaceOnUse">
      <stop
         stop-color="#152083"
         id="stop4" />
      <stop
         offset="0.611952"
         stop-color="#0B60AC"
         id="stop5" />
      <stop
         offset="1"
         stop-color="#018FD8"
         id="stop6-6" />
    </linearGradient>
    <linearGradient
       id="paint1_linear_761_331"
       x1="255"
       y1="92.455597"
       x2="255"
       y2="25.9408"
       gradientUnits="userSpaceOnUse">
      <stop
         stop-color="#0F2674"
         id="stop7-1" />
      <stop
         offset="0.753915"
         stop-color="#0764C7"
         id="stop8" />
      <stop
         offset="1"
         stop-color="#0081F6"
         id="stop9" />
    </linearGradient>
    <linearGradient
       id="paint2_linear_761_331"
       x1="63.6759"
       y1="227.19701"
       x2="89.465302"
       y2="130.80499"
       gradientUnits="userSpaceOnUse">
      <stop
         stop-color="#152083"
         id="stop10" />
      <stop
         offset="0.30721"
         stop-color="#0B60AC"
         id="stop11" />
      <stop
         offset="1"
         stop-color="#018FD8"
         id="stop12" />
    </linearGradient>
    <linearGradient
       id="paint3_linear_761_331"
       x1="420.46201"
       y1="227.19701"
       x2="446.25201"
       y2="130.80499"
       gradientUnits="userSpaceOnUse">
      <stop
         stop-color="#152083"
         id="stop13" />
      <stop
         offset="0.30721"
         stop-color="#0B60AC"
         id="stop14" />
      <stop
         offset="1"
         stop-color="#018FD8"
         id="stop15" />
    </linearGradient>
  </defs>
  <g
     inkscape:label="Capa 1"
     inkscape:groupmode="layer"
     id="layer1"
     transform="translate(-93.31137,-10.583335)">
    <path
       id="rect1"
       style="fill:#f2f2f2;stroke:#ffffff;stroke-width:0;stroke-linejoin:round;paint-order:stroke markers fill"
       d="M 17.751438,10.583335 H 320.91522 a 7.1681059,7.1681059 45 0 1 7.16811,7.168106 l 0,154.997109 a 7.1681059,7.1681059 135 0 1 -7.16811,7.16811 l -303.163782,0 a 7.1681059,7.1681059 45 0 1 -7.168106,-7.16811 V 17.751441 a 7.1681059,7.1681059 135 0 1 7.168106,-7.168106 z"
       inkscape:path-effect="#path-effect1"
       inkscape:original-d="M 10.583332,10.583335 H 328.08333 V 179.91666 H 10.583332 Z"
       transform="matrix(0.73943925,0,0,0.73701239,85.485639,2.7832859)" />
    <g
       id="g15"
       inkscape:label="404Text"
       transform="matrix(0.26458333,0,0,0.26458333,96.844669,14.127164)">
      <path
         d="m 177.195,92.4556 c -4.594,0 -8.999,1.822 -12.247,5.0652 -3.248,3.2432 -5.073,7.6422 -5.073,12.2282 V 248.1 c 0,4.587 1.825,8.986 5.073,12.229 3.248,3.243 7.653,5.065 12.247,5.065 h 155.61 c 4.594,0 8.999,-1.822 12.247,-5.065 3.248,-3.243 5.073,-7.642 5.073,-12.229 V 109.749 c 0,-2.271 -0.448,-4.519 -1.319,-6.618 -0.87,-2.098 -2.146,-4.0043 -3.754,-5.6102 -1.608,-1.6059 -3.518,-2.8797 -5.619,-3.7488 -2.101,-0.8691 -4.353,-1.3164 -6.628,-1.3164 z m 29.31,33.9224 h 96.99 c 1.749,0 3.482,0.344 5.098,1.013 1.616,0.668 3.085,1.648 4.322,2.883 1.238,1.236 2.219,2.702 2.888,4.316 0.67,1.614 1.015,3.344 1.015,5.091 v 78.488 c 0,1.747 -0.345,3.476 -1.015,5.09 -0.669,1.614 -1.65,3.081 -2.888,4.316 -1.237,1.235 -2.706,2.215 -4.322,2.884 -1.616,0.668 -3.349,1.012 -5.098,1.012 h -96.99 c -1.749,0 -3.482,-0.344 -5.098,-1.012 -1.617,-0.669 -3.085,-1.649 -4.322,-2.884 -1.238,-1.235 -2.219,-2.702 -2.889,-4.316 -0.669,-1.614 -1.014,-3.343 -1.014,-5.09 v -78.488 c 0,-1.747 0.345,-3.477 1.014,-5.091 0.67,-1.614 1.651,-3.08 2.889,-4.316 1.237,-1.235 2.705,-2.215 4.322,-2.883 1.616,-0.669 3.349,-1.013 5.098,-1.013 z m 24.943,5.514 -23.552,23.516 23.552,23.517 -23.552,23.516 23.552,23.517 23.552,-23.517 23.552,23.517 23.552,-23.517 -23.552,-23.516 23.552,-23.517 L 278.552,131.892 255,155.408 Z"
         fill="url(#paint0_linear_761_331)"
         id="path1-2"
         style="fill:url(#paint0_linear_761_331)" />
      <path
         d="M 193.182,59.843 V 93.1208 H 316.817 V 59.843 c 0,-4.3647 -0.861,-8.6867 -2.533,-12.7192 -1.673,-4.0326 -4.125,-7.6966 -7.216,-10.7829 -3.091,-3.0864 -6.761,-5.5346 -10.799,-7.2049 -4.039,-1.6703 -8.367,-2.53 -12.739,-2.53 h -57.061 c -8.828,0 -17.295,3.5017 -23.537,9.7349 -6.243,6.2331 -9.75,14.6871 -9.75,23.5021 z m 44.014,0.0204 h 36.041 c 2.725,0 5.338,1.0807 7.264,3.0044 1.927,1.9237 3.009,4.5328 3.009,7.2533 v 22.9997 h -57.02 v -22.567 c 0,-2.8352 1.128,-5.5544 3.136,-7.5592 2.007,-2.0049 4.731,-3.1312 7.57,-3.1312 z"
         fill="url(#paint1_linear_761_331)"
         id="path2-3"
         style="fill:url(#paint1_linear_761_331)" />
      <path
         d="m 26.6458,92.6271 v 86.4689 c 0,8.821 3.5091,17.28 9.7554,23.517 6.2464,6.237 14.7182,9.741 23.5519,9.741 h 33.3073 v 53.04 H 126.568 V 92.6271 H 93.2604 V 179.096 H 76.6067 c -4.4168,0 -8.6527,-1.752 -11.7759,-4.87 -3.1231,-3.119 -4.8777,-7.348 -4.8777,-11.758 V 92.6271 Z"
         fill="url(#paint2_linear_761_331)"
         id="path3-2"
         style="fill:url(#paint2_linear_761_331)" />
      <path
         d="m 383.432,92.6271 v 86.4689 c 0,8.821 3.509,17.28 9.756,23.517 6.246,6.237 14.718,9.741 23.551,9.741 h 33.308 v 53.04 h 33.307 V 92.6271 h -33.307 v 86.4689 h -16.654 c -4.417,0 -8.653,-1.752 -11.776,-4.87 -3.123,-3.119 -4.878,-7.348 -4.878,-11.758 V 92.6271 Z"
         fill="url(#paint3_linear_761_331)"
         id="path4-2"
         style="fill:url(#paint3_linear_761_331)" />
    </g>
    <path
       d="m 243.97658,29.817269 h 64.86096 v 86.332941 h -64.86096 z"
       fill="#ffd64f"
       id="path1"
       style="stroke-width:0.264583" />
    <path
       d="m 252.63925,21.166668 c -4.59457,0 -9.00094,1.82282 -12.24978,5.067406 -3.24888,3.244615 -5.07405,7.645215 -5.07405,12.233775 v 69.031801 c 0,4.58841 1.8252,8.98896 5.07405,12.23381 3.24884,3.24458 7.65521,5.0673 12.24978,5.0673 h 47.53531 c 2.27515,0 4.52808,-0.44768 6.63019,-1.3171 2.10212,-0.86968 4.01188,-2.14418 5.62081,-3.75073 1.60867,-1.60682 2.88502,-3.5142 3.75576,-5.61367 0.87074,-2.0992 1.31868,-4.34922 1.31868,-6.62146 V 38.467849 c 0,-4.58856 -1.82509,-8.98916 -5.07391,-12.233775 -3.24882,-3.244586 -7.65519,-5.067406 -12.24995,-5.067406 z m -6.6e-4,8.650601 h 47.53703 c 2.29711,0 4.50029,0.91139 6.12483,2.53371 1.62455,1.62229 2.53709,3.82259 2.53709,6.11687 v 69.031801 c 0,2.29421 -0.91254,4.49448 -2.53709,6.11691 -1.62454,1.62216 -3.82772,2.53365 -6.12483,2.53365 h -47.53706 c -2.29727,0 -4.50045,-0.91149 -6.12489,-2.53365 -1.62441,-1.62243 -2.53701,-3.8227 -2.53701,-6.11691 V 38.467849 c -3e-5,-1.13601 0.22402,-2.26089 0.65934,-3.31044 0.4353,-1.04955 1.07334,-2.00318 1.87767,-2.80646 0.80433,-0.80327 1.75921,-1.44047 2.81011,-1.87521 1.05093,-0.43473 2.17731,-0.65847 3.31481,-0.65847 z"
       fill="url(#paint0_linear_761_323)"
       id="path2"
       style="fill:url(#paint0_linear_761_323);stroke-width:0.264583" />
    <path
       d="m 252.62129,78.132229 v 8.65055 h 8.6619 v 8.65055 h 38.89243 v -8.65055 -8.65055 h -38.89243 z"
       fill="#080b2f"
       id="path3"
       style="stroke-width:0.264583" />
    <path
       d="m 252.62115,52.180309 h 8.66204 v 8.65081 h -8.66204 z"
       fill="#080b2f"
       id="path4"
       style="stroke-width:0.264583" />
    <path
       d="m 291.51369,60.831119 h 8.66193 v 8.65056 h -8.66193 z"
       fill="#080b2f"
       id="path5"
       style="stroke-width:0.264583" />
    <path
       id="path5-8"
       d="m 291.51361,104.08413 h 8.662 v -8.650641 h -8.662 z"
       style="opacity:0.67002;mix-blend-mode:normal;fill:#0082e2;fill-opacity:1;stroke-width:0.264583"
       sodipodi:nodetypes="ccccc" />
    <path
       d="m 282.85176,86.782779 h 17.32386 v 8.65055 h -17.32386 z"
       fill="#bd2640"
       id="path6"
       style="stroke-width:0.264583" />
    <path
       d="m 108.6572,97.619245 0.17607,-2.828421 h 0.42596 l 0.18743,2.828421 z m 0.0397,-3.174883 V 93.72306 h 0.70995 v 0.721302 z m 2.29703,2.266152 -1.18703,-3.896177 h 0.68154 l 0.86898,2.981765 h 0.0227 l 0.86897,-2.981765 h 0.63042 l -1.18702,3.896177 z m 2.49942,0.06815 c -0.0682,0 -0.14767,-0.01138 -0.23854,-0.03413 -0.0871,-0.02275 -0.17039,-0.06247 -0.2499,-0.119277 -0.0796,-0.06054 -0.14579,-0.145765 -0.19878,-0.255574 -0.0493,-0.10982 -0.0738,-0.253676 -0.0738,-0.431651 0,-0.272619 0.0644,-0.482761 0.1931,-0.630426 0.12872,-0.147676 0.30479,-0.249908 0.52819,-0.306696 0.22719,-0.06054 0.48465,-0.09091 0.77242,-0.09091 v -0.340773 c 0,-0.113599 -0.0246,-0.210152 -0.0738,-0.289663 -0.0454,-0.07953 -0.14389,-0.119265 -0.29533,-0.119265 -0.15148,0 -0.25559,0.03971 -0.31238,0.119265 -0.053,0.07953 -0.0796,0.162809 -0.0796,0.249897 v 0.07953 h -0.59636 c -0.005,-0.01889 -0.006,-0.03789 -0.006,-0.05678 0,-0.01889 0,-0.04164 0,-0.06815 0,-0.257474 0.0909,-0.460037 0.27262,-0.607702 0.18174,-0.147677 0.42217,-0.221509 0.7213,-0.221509 0.3332,0 0.57932,0.07578 0.73835,0.227186 0.15904,0.151454 0.23855,0.363484 0.23855,0.636103 v 1.544849 c 0,0.07191 0.0171,0.123043 0.0511,0.153342 0.0341,0.03026 0.07,0.0454 0.10791,0.0454 h 0.15335 v 0.425973 c -0.034,0.019 -0.0814,0.03789 -0.142,0.05678 -0.0606,0.019 -0.1363,0.02844 -0.22717,0.02844 -0.13253,0 -0.24235,-0.03596 -0.32942,-0.107911 -0.087,-0.07191 -0.14767,-0.164708 -0.18174,-0.278307 h -0.0285 c -0.0796,0.117377 -0.17798,0.212053 -0.29534,0.283986 -0.11359,0.07191 -0.26317,0.107909 -0.44869,0.107909 z m 0.2215,-0.516838 c 0.10605,0 0.19689,-0.02844 0.27262,-0.08522 0.0757,-0.06054 0.13441,-0.141987 0.17607,-0.244219 0.0417,-0.102286 0.0625,-0.219609 0.0625,-0.352141 v -0.204464 c -0.15902,0 -0.30482,0.01514 -0.43732,0.0454 -0.12876,0.02651 -0.23286,0.0776 -0.31238,0.153353 -0.0796,0.07191 -0.11927,0.176065 -0.11927,0.312375 0,0.124943 0.0285,0.219598 0.0852,0.283975 0.0605,0.06054 0.15144,0.0909 0.27262,0.0909 z m 2.13012,1.482371 c -0.10979,0 -0.20065,-0.007 -0.27262,-0.0227 -0.0719,-0.0114 -0.11547,-0.0208 -0.13063,-0.0285 v -0.45437 h 0.25559 c 0.10981,0 0.21014,-0.03971 0.30101,-0.119276 0.0947,-0.07953 0.16284,-0.215819 0.20447,-0.408927 l -0.96553,-2.987443 h 0.64746 l 0.47142,1.533481 c 0.0151,0.05302 0.0302,0.115488 0.0454,0.187421 0.0189,0.07191 0.0359,0.143898 0.0511,0.21583 0.0152,0.07191 0.0265,0.134399 0.0341,0.187421 0.0114,0.05302 0.0189,0.08715 0.0227,0.102285 h 0.0227 c 0.005,-0.01514 0.01,-0.04733 0.0171,-0.0966 0.0114,-0.05302 0.0227,-0.113587 0.0341,-0.181742 0.0152,-0.07191 0.0303,-0.143897 0.0454,-0.21583 0.0151,-0.07578 0.0302,-0.141988 0.0454,-0.198776 l 0.38622,-1.533482 h 0.61339 l -0.80083,2.8341 c -0.0605,0.21582 -0.1363,0.412706 -0.22718,0.590671 -0.0871,0.181747 -0.19497,0.325639 -0.32373,0.431652 -0.12873,0.109815 -0.28775,0.164715 -0.47709,0.164715 z m 2.73999,-0.965533 c -0.0682,0 -0.14766,-0.01138 -0.23854,-0.03413 -0.0871,-0.02275 -0.17038,-0.06247 -0.24989,-0.119277 -0.0796,-0.06054 -0.14577,-0.145765 -0.19879,-0.255574 -0.0492,-0.10982 -0.0738,-0.253676 -0.0738,-0.431651 0,-0.272619 0.0644,-0.482761 0.19311,-0.630426 0.12875,-0.147676 0.30481,-0.249908 0.52819,-0.306696 0.22719,-0.06054 0.48467,-0.09091 0.77242,-0.09091 v -0.340773 c 0,-0.113599 -0.0246,-0.210152 -0.0738,-0.289663 -0.0454,-0.07953 -0.14387,-0.119265 -0.29534,-0.119265 -0.15145,0 -0.25557,0.03971 -0.31238,0.119265 -0.053,0.07953 -0.0796,0.162809 -0.0796,0.249897 v 0.07953 h -0.59636 c -0.005,-0.01889 -0.006,-0.03789 -0.006,-0.05678 0,-0.01889 0,-0.04164 0,-0.06815 0,-0.257474 0.0909,-0.460037 0.27262,-0.607702 0.18174,-0.147677 0.4222,-0.221509 0.7213,-0.221509 0.33322,0 0.57932,0.07578 0.73835,0.227186 0.15902,0.151454 0.23855,0.363484 0.23855,0.636103 v 1.544849 c 0,0.07191 0.0171,0.123043 0.0511,0.153342 0.0341,0.03026 0.07,0.0454 0.10791,0.0454 h 0.15335 v 0.425973 c -0.034,0.019 -0.0813,0.03789 -0.14199,0.05678 -0.0605,0.019 -0.1363,0.02844 -0.22718,0.02844 -0.1325,0 -0.24232,-0.03596 -0.32942,-0.107911 -0.0871,-0.07191 -0.14766,-0.164708 -0.18174,-0.278307 h -0.0285 c -0.0796,0.117377 -0.17793,0.212053 -0.29533,0.283986 -0.1136,0.07191 -0.26314,0.107909 -0.44869,0.107909 z m 0.22152,-0.516838 c 0.10604,0 0.1969,-0.02844 0.27262,-0.08522 0.0758,-0.06054 0.13443,-0.141987 0.17606,-0.244219 0.0417,-0.102286 0.0625,-0.219609 0.0625,-0.352141 v -0.204464 c -0.15904,0 -0.3048,0.01514 -0.43734,0.0454 -0.12871,0.02651 -0.23286,0.0776 -0.31237,0.153353 -0.0796,0.07191 -0.11927,0.176065 -0.11927,0.312375 0,0.124943 0.0285,0.219598 0.0852,0.283975 0.0606,0.06054 0.15147,0.0909 0.27262,0.0909 z m 2.01087,-0.619072 -0.18174,-2.828421 h 0.78945 l -0.18173,2.828421 z m -0.13631,1.067756 v -0.721302 h 0.70995 v 0.721304 z m 2.7282,0 v -3.896177 h 1.39149 c 0.26504,0 0.48654,0.04926 0.66451,0.147666 0.18175,0.09842 0.31615,0.234752 0.40325,0.408928 0.0909,0.174176 0.13631,0.374851 0.13631,0.602037 0,0.238541 -0.0511,0.448683 -0.15334,0.630426 -0.0984,0.177964 -0.23668,0.316163 -0.41462,0.414606 -0.17797,0.09842 -0.39001,0.147676 -0.63611,0.147676 h -0.73835 v 1.544838 z m 0.65314,-2.124154 h 0.68723 c 0.18552,0 0.32942,-0.05485 0.43165,-0.164709 0.10218,-0.10981 0.15335,-0.259374 0.15335,-0.448683 0,-0.177965 -0.0511,-0.318062 -0.15335,-0.420295 -0.10228,-0.106042 -0.24613,-0.15902 -0.43165,-0.15902 h -0.68723 z m 2.97538,2.192308 c -0.0681,0 -0.14766,-0.01138 -0.23854,-0.03413 -0.0871,-0.02275 -0.17038,-0.06247 -0.24989,-0.119277 -0.0796,-0.06054 -0.1458,-0.145765 -0.19879,-0.255574 -0.0493,-0.10982 -0.0738,-0.253676 -0.0738,-0.431651 0,-0.272619 0.0644,-0.482761 0.19311,-0.630426 0.12872,-0.147676 0.30478,-0.249908 0.52819,-0.306696 0.22719,-0.06054 0.48463,-0.09091 0.77243,-0.09091 v -0.340773 c 0,-0.113599 -0.0246,-0.210152 -0.0738,-0.289663 -0.0454,-0.07953 -0.1439,-0.119265 -0.29534,-0.119265 -0.15148,0 -0.25559,0.03971 -0.31238,0.119265 -0.053,0.07953 -0.0796,0.162809 -0.0796,0.249897 v 0.07953 H 126.413 c -0.005,-0.01889 -0.006,-0.03789 -0.006,-0.05678 0,-0.01889 0,-0.04164 0,-0.06815 0,-0.257474 0.0909,-0.460037 0.27262,-0.607702 0.18175,-0.147677 0.42217,-0.221509 0.7213,-0.221509 0.3332,0 0.57932,0.07578 0.73835,0.227186 0.15902,0.151454 0.23855,0.363484 0.23855,0.636103 v 1.544849 c 0,0.07191 0.0171,0.123043 0.0511,0.153342 0.0341,0.03026 0.07,0.0454 0.10791,0.0454 h 0.15335 v 0.425973 c -0.0341,0.019 -0.0814,0.03789 -0.14198,0.05678 -0.0606,0.019 -0.13631,0.02844 -0.22719,0.02844 -0.13253,0 -0.24235,-0.03596 -0.32941,-0.107911 -0.0871,-0.07191 -0.14767,-0.164708 -0.18174,-0.278307 h -0.0285 c -0.0796,0.117377 -0.17796,0.212053 -0.29534,0.283986 -0.11359,0.07191 -0.26317,0.107909 -0.44868,0.107909 z m 0.22151,-0.516838 c 0.10605,0 0.19688,-0.02844 0.27262,-0.08522 0.0757,-0.06054 0.1344,-0.141987 0.17607,-0.244219 0.0417,-0.102286 0.0625,-0.219609 0.0625,-0.352141 v -0.204464 c -0.15904,0 -0.30484,0.01514 -0.43733,0.0454 -0.12876,0.02651 -0.23287,0.0776 -0.31238,0.153353 -0.0796,0.07191 -0.11927,0.176065 -0.11927,0.312375 0,0.124943 0.0285,0.219598 0.0852,0.283975 0.0605,0.06054 0.15144,0.0909 0.27262,0.0909 z m 1.81209,0.448684 v -2.987454 h 0.49413 l 0.0738,0.420294 h 0.0341 c 0.0379,-0.121164 0.0947,-0.232863 0.17039,-0.335095 0.0796,-0.102285 0.19309,-0.153353 0.34077,-0.153353 0.0796,0 0.14199,0.0075 0.18742,0.02275 0.0493,0.01514 0.0738,0.02275 0.0738,0.02275 v 0.596359 h -0.21014 c -0.0984,0 -0.19123,0.02275 -0.27829,0.06815 -0.0833,0.04164 -0.15148,0.111688 -0.20447,0.210141 -0.0493,0.09842 -0.0738,0.236643 -0.0738,0.414606 v 1.720903 z m 2.74739,0.06815 c -0.37864,0 -0.66639,-0.124954 -0.86331,-0.374851 -0.1931,-0.249898 -0.28965,-0.645571 -0.28965,-1.187031 0,-0.53766 0.0966,-0.931444 0.28965,-1.181351 0.19692,-0.253687 0.47899,-0.380529 0.84626,-0.380529 0.34836,0 0.60961,0.121165 0.78377,0.363496 0.17799,0.23854 0.26695,0.619069 0.26695,1.141585 v 0.215831 h -1.55621 c 0.005,0.291552 0.0454,0.514938 0.12496,0.670181 0.0833,0.151454 0.21773,0.227186 0.40325,0.227186 0.12876,0 0.23099,-0.05303 0.30669,-0.159031 0.0796,-0.10981 0.11928,-0.259354 0.11928,-0.448684 h 0.60203 c 0,0.367274 -0.0984,0.645571 -0.29534,0.834901 -0.1931,0.185521 -0.4392,0.278297 -0.73833,0.278297 z m -0.51685,-1.868578 h 0.90873 c 0,-0.238542 -0.0341,-0.422184 -0.10229,-0.550915 -0.0644,-0.132521 -0.16658,-0.198788 -0.3067,-0.198788 -0.1628,0 -0.28397,0.0644 -0.36349,0.193109 -0.0757,0.128732 -0.12114,0.314263 -0.1363,0.556594 z m 3.07296,1.868578 c -0.37863,0 -0.65693,-0.124954 -0.83491,-0.374851 -0.17415,-0.253675 -0.26125,-0.64937 -0.26125,-1.187031 0,-0.53766 0.089,-0.931444 0.26694,-1.181351 0.18175,-0.253687 0.45249,-0.380529 0.81217,-0.380529 0.32187,0 0.56796,0.0966 0.73835,0.289663 0.17419,0.193096 0.26126,0.492227 0.26126,0.897366 h -0.62476 c 0,-0.227186 -0.0284,-0.395673 -0.0852,-0.505482 -0.0567,-0.109799 -0.15335,-0.164709 -0.28966,-0.164709 -0.15902,0 -0.27262,0.07953 -0.34077,0.238541 -0.0682,0.159031 -0.10218,0.391895 -0.10218,0.698592 v 0.215819 c 0,0.306697 0.036,0.539561 0.10792,0.698592 0.0719,0.159021 0.18932,0.238542 0.35213,0.238542 0.1363,0 0.23286,-0.05678 0.28965,-0.170387 0.0606,-0.113598 0.0909,-0.280208 0.0909,-0.499806 h 0.60203 c 0,0.253676 -0.0379,0.469506 -0.1136,0.647471 -0.0757,0.174165 -0.18741,0.308596 -0.33508,0.403251 -0.14387,0.09091 -0.32184,0.136309 -0.53389,0.136309 z m 2.53552,0 c -0.37863,0 -0.66637,-0.124954 -0.86329,-0.374851 -0.1931,-0.249898 -0.28966,-0.645571 -0.28966,-1.187031 0,-0.53766 0.0966,-0.931444 0.28966,-1.181351 0.19692,-0.253687 0.47899,-0.380529 0.84625,-0.380529 0.34845,0 0.6097,0.121165 0.78378,0.363496 0.17806,0.23854 0.26694,0.619069 0.26694,1.141585 v 0.215831 h -1.5562 c 0.005,0.291552 0.0454,0.514938 0.12495,0.670181 0.0833,0.151454 0.21774,0.227186 0.40325,0.227186 0.12865,0 0.23089,-0.05303 0.3067,-0.159031 0.0796,-0.10981 0.11926,-0.259354 0.11926,-0.448684 h 0.60204 c 0,0.367274 -0.0985,0.645571 -0.29534,0.834901 -0.1931,0.185521 -0.43931,0.278297 -0.73834,0.278297 z m -0.51684,-1.868578 h 0.90873 c 0,-0.238542 -0.0341,-0.422184 -0.10218,-0.550915 -0.0645,-0.132521 -0.1667,-0.198788 -0.3067,-0.198788 -0.16279,0 -0.28397,0.0644 -0.36348,0.193109 -0.0757,0.128732 -0.12115,0.314263 -0.13631,0.556594 z m 4.87647,2.782995 v -1.272235 h -0.0285 c -0.0531,0.109821 -0.13829,0.196887 -0.25557,0.261263 -0.11729,0.0644 -0.24991,0.0966 -0.39757,0.0966 -0.17039,0 -0.32573,-0.05302 -0.46573,-0.159031 -0.14001,-0.10981 -0.2499,-0.280197 -0.32941,-0.511161 -0.0796,-0.230953 -0.11927,-0.526295 -0.11927,-0.886012 0,-0.545238 0.0852,-0.942801 0.25558,-1.192707 0.17039,-0.249897 0.40125,-0.374852 0.69291,-0.374852 0.14,0 0.26693,0.03596 0.38052,0.107921 0.11729,0.07191 0.21214,0.179843 0.28399,0.323729 h 0.0284 l 0.0682,-0.363494 h 0.49412 v 3.970029 z m -0.48271,-1.465332 c 0.17039,0 0.29334,-0.0776 0.36917,-0.232864 0.0758,-0.155254 0.11359,-0.38053 0.11359,-0.67587 v -0.210142 c 0,-0.295341 -0.0378,-0.518739 -0.11359,-0.670193 -0.0759,-0.155242 -0.19878,-0.232863 -0.36917,-0.232863 -0.1667,0 -0.28967,0.07578 -0.36918,0.227186 -0.0758,0.147665 -0.11358,0.372962 -0.11358,0.67587 v 0.215819 c 0,0.302918 0.0378,0.530104 0.11358,0.681548 0.0796,0.147675 0.20248,0.221509 0.36918,0.221509 z m 2.51206,0.550915 c -0.22717,0 -0.41262,-0.07008 -0.55659,-0.210142 -0.14369,-0.140087 -0.21582,-0.384307 -0.21582,-0.732669 v -2.112797 h 0.60772 v 1.982165 c 0,0.196887 0.0341,0.333196 0.10218,0.408929 0.0722,0.07578 0.17038,0.113599 0.29532,0.113599 0.1403,0 0.25758,-0.06054 0.35214,-0.181754 0.0985,-0.121165 0.14767,-0.282075 0.14767,-0.482761 v -1.840178 h 0.60771 v 2.987454 h -0.49413 l -0.0681,-0.363496 h -0.0341 c -0.0756,0.128732 -0.17607,0.232864 -0.30102,0.312374 -0.12495,0.07953 -0.27262,0.119276 -0.44302,0.119276 z m 3.01784,0 c -0.37855,0 -0.6665,-0.124954 -0.86328,-0.374851 -0.19311,-0.249898 -0.28967,-0.645571 -0.28967,-1.187031 0,-0.53766 0.0966,-0.931444 0.28967,-1.181351 0.19678,-0.253687 0.47906,-0.380529 0.84625,-0.380529 0.34844,0 0.6097,0.121165 0.78378,0.363496 0.17805,0.23854 0.26693,0.619069 0.26693,1.141585 v 0.215831 h -1.55619 c 0.003,0.291552 0.0454,0.514938 0.12494,0.670181 0.0832,0.151454 0.21782,0.227186 0.40325,0.227186 0.12864,0 0.23088,-0.05303 0.3067,-0.159031 0.0796,-0.10981 0.11927,-0.259354 0.11927,-0.448684 h 0.60203 c 0,0.367274 -0.0985,0.645571 -0.29533,0.834901 -0.19311,0.185521 -0.43932,0.278297 -0.73835,0.278297 z m -0.51684,-1.868578 h 0.90874 c 0,-0.238542 -0.0341,-0.422184 -0.10229,-0.550915 -0.0645,-0.132521 -0.16669,-0.198788 -0.30669,-0.198788 -0.16273,0 -0.28399,0.0644 -0.3635,0.193109 -0.0758,0.128732 -0.12126,0.314263 -0.13631,0.556594 z m 3.34868,1.800424 v -4.106329 h 0.6077 v 4.106329 z m 1.78281,0.06815 c -0.0682,0 -0.14766,-0.01138 -0.23854,-0.03413 -0.087,-0.02275 -0.17039,-0.06247 -0.24991,-0.119276 -0.0796,-0.06054 -0.14567,-0.145766 -0.19878,-0.255575 -0.0492,-0.10982 -0.0738,-0.253675 -0.0738,-0.431651 0,-0.272618 0.0645,-0.48276 0.1931,-0.630425 0.12892,-0.147677 0.305,-0.249909 0.5282,-0.306697 0.22718,-0.06054 0.48475,-0.09091 0.77241,-0.09091 v -0.340774 c 0,-0.113599 -0.0245,-0.210153 -0.0738,-0.289664 -0.0454,-0.07953 -0.14369,-0.119265 -0.29533,-0.119265 -0.15136,0 -0.25558,0.03971 -0.31239,0.119265 -0.0528,0.07953 -0.0796,0.162809 -0.0796,0.249898 v 0.07953 h -0.59635 c -0.003,-0.01889 -0.006,-0.03789 -0.006,-0.05678 0,-0.01889 0,-0.04164 0,-0.06815 0,-0.257475 0.0909,-0.460038 0.27262,-0.607703 0.18175,-0.147676 0.42228,-0.221508 0.72131,-0.221508 0.33338,0 0.57931,0.07578 0.73833,0.227186 0.15903,0.151453 0.23854,0.363483 0.23854,0.636103 v 1.544848 c 0,0.07191 0.0171,0.123043 0.0511,0.153343 0.034,0.03026 0.07,0.0454 0.10791,0.0454 h 0.15334 v 0.425973 c -0.034,0.019 -0.0812,0.03789 -0.14199,0.05678 -0.0605,0.019 -0.13631,0.02844 -0.22718,0.02844 -0.13233,0 -0.24223,-0.03596 -0.32941,-0.10791 -0.087,-0.07191 -0.14766,-0.164709 -0.18174,-0.278308 h -0.0285 c -0.0796,0.117377 -0.17776,0.212053 -0.29533,0.283986 -0.11358,0.07191 -0.26295,0.10791 -0.44868,0.10791 z m 0.2215,-0.516838 c 0.10625,0 0.19709,-0.02844 0.27262,-0.08522 0.0759,-0.06054 0.13461,-0.141986 0.17607,-0.244219 0.0418,-0.102286 0.0625,-0.219608 0.0625,-0.35214 v -0.204464 c -0.15901,0 -0.30468,0.01514 -0.4373,0.0454 -0.12865,0.02651 -0.23286,0.0776 -0.31238,0.153353 -0.0796,0.07191 -0.11928,0.176064 -0.11928,0.312374 0,0.124943 0.0285,0.219598 0.0852,0.283975 0.0607,0.06054 0.15166,0.0909 0.27262,0.0909 z m 3.10444,1.431239 v -3.970009 h 0.49411 l 0.0625,0.363495 h 0.0285 c 0.0759,-0.143886 0.17038,-0.251795 0.28397,-0.32374 0.11729,-0.07191 0.24622,-0.107909 0.38622,-0.107909 0.29165,0 0.52252,0.124954 0.6929,0.374851 0.17039,0.249907 0.25558,0.647469 0.25558,1.192707 0,0.359718 -0.0418,0.655058 -0.12495,0.886012 -0.0796,0.230965 -0.18743,0.401352 -0.32374,0.511161 -0.13631,0.106042 -0.29163,0.159031 -0.46572,0.159031 -0.14767,0 -0.28029,-0.03219 -0.39756,-0.0966 -0.11729,-0.0644 -0.20248,-0.151443 -0.25558,-0.261263 h -0.0285 v 1.272214 z m 1.0848,-1.465316 c 0.17408,0 0.29733,-0.07385 0.36917,-0.221509 0.0758,-0.151443 0.11359,-0.378629 0.11359,-0.681547 v -0.21582 c 0,-0.302908 -0.0378,-0.528205 -0.11359,-0.67587 -0.0718,-0.151454 -0.19509,-0.227186 -0.36917,-0.227186 -0.1667,0 -0.28766,0.0776 -0.3635,0.232864 -0.0758,0.151454 -0.11359,0.374851 -0.11359,0.670192 v 0.210142 c 0,0.29534 0.0378,0.520616 0.11359,0.67587 0.0759,0.155253 0.1968,0.232864 0.3635,0.232864 z m 2.23405,0.550915 c -0.0681,0 -0.14767,-0.01138 -0.23853,-0.03413 -0.0872,-0.02275 -0.17039,-0.06247 -0.24991,-0.119276 -0.0796,-0.06054 -0.14596,-0.145766 -0.19879,-0.255575 -0.0494,-0.10982 -0.0738,-0.253675 -0.0738,-0.431651 0,-0.272618 0.0642,-0.48276 0.19311,-0.630425 0.12864,-0.147677 0.30471,-0.249909 0.52819,-0.306697 0.22719,-0.06054 0.48447,-0.09091 0.77242,-0.09091 v -0.340774 c 0,-0.113599 -0.0247,-0.210153 -0.0738,-0.289664 -0.0454,-0.07953 -0.14399,-0.119265 -0.29535,-0.119265 -0.15164,0 -0.25558,0.03971 -0.31237,0.119265 -0.0531,0.07953 -0.0796,0.162809 -0.0796,0.249898 v 0.07953 h -0.59636 c -0.005,-0.01889 -0.006,-0.03789 -0.006,-0.05678 0,-0.01889 0,-0.04164 0,-0.06815 0,-0.257475 0.0909,-0.460038 0.27262,-0.607703 0.18174,-0.147676 0.42199,-0.221508 0.7213,-0.221508 0.33311,0 0.57932,0.07578 0.73835,0.227186 0.15902,0.151453 0.23853,0.363483 0.23853,0.636103 v 1.544848 c 0,0.07191 0.0171,0.123043 0.0511,0.153343 0.034,0.03026 0.0699,0.0454 0.10791,0.0454 h 0.15335 v 0.425973 c -0.034,0.019 -0.0815,0.03789 -0.14199,0.05678 -0.0607,0.019 -0.1363,0.02844 -0.22718,0.02844 -0.13262,0 -0.24251,-0.03596 -0.32942,-0.10791 -0.0871,-0.07191 -0.14767,-0.164709 -0.18175,-0.278308 h -0.0285 c -0.0796,0.117377 -0.17806,0.212053 -0.29533,0.283986 -0.1136,0.07191 -0.26325,0.10791 -0.44869,0.10791 z m 0.2215,-0.516838 c 0.10594,0 0.19681,-0.02844 0.27262,-0.08522 0.0756,-0.06054 0.13433,-0.141986 0.17607,-0.244219 0.0414,-0.102286 0.0625,-0.219608 0.0625,-0.35214 v -0.204464 c -0.15903,0 -0.30498,0.01514 -0.43732,0.0454 -0.12893,0.02651 -0.23287,0.0776 -0.31238,0.153353 -0.0796,0.07191 -0.11926,0.176064 -0.11926,0.312374 0,0.124943 0.0285,0.219598 0.0852,0.283975 0.0605,0.06054 0.15136,0.0909 0.27262,0.0909 z m -0.21581,-2.907943 0.48843,-0.749702 h 0.62475 l 0.006,0.01707 -0.6134,0.732669 z m 2.47656,4.390302 c -0.20445,0 -0.37115,-0.0663 -0.4998,-0.198783 -0.12495,-0.128728 -0.18741,-0.293434 -0.18741,-0.49412 0,-0.147665 0.0358,-0.272618 0.1079,-0.37485 0.0718,-0.106042 0.16272,-0.187431 0.27262,-0.244219 -0.0721,-0.0454 -0.13063,-0.106043 -0.17607,-0.181754 -0.0418,-0.07953 -0.0625,-0.168476 -0.0625,-0.26693 0,-0.128732 0.0414,-0.236642 0.12493,-0.32374 0.0832,-0.08704 0.18545,-0.153343 0.3067,-0.198787 -0.11359,-0.08704 -0.20275,-0.196887 -0.26693,-0.329407 -0.0607,-0.13631 -0.0909,-0.291553 -0.0909,-0.465728 0,-0.306696 0.0909,-0.550916 0.27262,-0.732669 0.18543,-0.185531 0.44669,-0.278296 0.78377,-0.278296 0.18175,0 0.34078,0.03026 0.47709,0.09091 0.12096,-0.07953 0.20248,-0.168487 0.24421,-0.266941 0.0454,-0.09842 0.0699,-0.181743 0.0738,-0.249897 h 0.51116 c 0,0.200675 -0.0437,0.365384 -0.13063,0.494116 -0.0872,0.124955 -0.20645,0.208253 -0.35781,0.249908 0.0796,0.08329 0.14,0.18553 0.18175,0.306696 0.0454,0.117376 0.0681,0.246108 0.0681,0.386207 0,0.310485 -0.0928,0.556593 -0.27829,0.738346 -0.18175,0.181743 -0.44131,0.274519 -0.77811,0.278298 h -0.29533 c -0.0645,0 -0.11927,0.02082 -0.1647,0.06247 -0.0418,0.03789 -0.0625,0.08715 -0.0625,0.147665 0,0.05678 0.0207,0.106043 0.0625,0.147676 0.0414,0.03789 0.0909,0.05678 0.14766,0.05678 h 0.97121 c 0.19679,0 0.35952,0.07008 0.48844,0.210142 0.13234,0.140087 0.19878,0.319952 0.19878,0.53956 0,0.177964 -0.0397,0.333185 -0.11927,0.465718 -0.0796,0.136306 -0.18941,0.242319 -0.32941,0.318058 -0.14029,0.07578 -0.30102,0.113581 -0.48277,0.113581 z m 0.2215,-0.477082 h 0.78379 c 0.0945,0 0.17209,-0.03026 0.23286,-0.09091 0.0605,-0.05678 0.0909,-0.128722 0.0909,-0.21582 0,-0.0909 -0.0285,-0.162809 -0.0852,-0.21583 -0.0531,-0.05303 -0.12493,-0.07953 -0.21581,-0.07953 h -0.80651 c -0.0909,0 -0.163,0.02844 -0.21582,0.08522 -0.0531,0.05678 -0.0796,0.126853 -0.0796,0.210152 0,0.08704 0.0264,0.15902 0.0796,0.215819 0.0528,0.06054 0.12496,0.09091 0.21582,0.09091 z m 0.3635,-2.050321 c 0.15136,0 0.26496,-0.04926 0.34078,-0.147665 0.0756,-0.09842 0.11358,-0.232863 0.11358,-0.40325 0,-0.170387 -0.038,-0.302908 -0.11358,-0.397573 -0.0758,-0.09842 -0.18942,-0.147665 -0.34078,-0.147665 -0.14766,0 -0.25955,0.04926 -0.33509,0.147665 -0.0758,0.09842 -0.11359,0.230974 -0.11359,0.397573 0,0.174175 0.0378,0.310485 0.11359,0.408928 0.0756,0.09467 0.18743,0.141987 0.33509,0.141987 z m 1.75101,1.493728 v -2.987454 h 0.60204 v 2.987454 z m -0.0114,-3.492937 v -0.613392 h 0.61908 v 0.613392 z m 1.28102,3.492937 v -2.987454 h 0.49413 l 0.0625,0.363495 h 0.034 c 0.0796,-0.128741 0.18175,-0.232862 0.30669,-0.312373 0.12495,-0.07953 0.27063,-0.119276 0.43733,-0.119276 0.23087,0 0.4183,0.07008 0.56228,0.210142 0.14397,0.140098 0.21582,0.384317 0.21582,0.732668 v 2.112798 h -0.60772 v -1.982167 c 0,-0.196896 -0.036,-0.333206 -0.10791,-0.408928 -0.0718,-0.07578 -0.17038,-0.113598 -0.29533,-0.113598 -0.1363,0 -0.2536,0.06247 -0.35214,0.187431 -0.0945,0.124953 -0.14199,0.285874 -0.14199,0.48276 v 1.834502 z m 3.31886,0.06815 c -0.0682,0 -0.14767,-0.01138 -0.23854,-0.03413 -0.0871,-0.02275 -0.17039,-0.06247 -0.24991,-0.119276 -0.0796,-0.06054 -0.14596,-0.145765 -0.19878,-0.255575 -0.0493,-0.10982 -0.0738,-0.253675 -0.0738,-0.431651 0,-0.272618 0.0642,-0.48276 0.19311,-0.630425 0.12865,-0.147676 0.30471,-0.249909 0.5282,-0.306697 0.22718,-0.06054 0.48447,-0.09091 0.77241,-0.09091 v -0.340774 c 0,-0.113599 -0.0247,-0.210153 -0.0738,-0.289664 -0.0454,-0.07953 -0.14398,-0.119264 -0.29534,-0.119264 -0.15164,0 -0.25558,0.03971 -0.31238,0.119264 -0.0531,0.07953 -0.0796,0.16281 -0.0796,0.249898 v 0.07953 h -0.59636 c -0.005,-0.01889 -0.006,-0.03789 -0.006,-0.05678 0,-0.01889 0,-0.04164 0,-0.06815 0,-0.257475 0.0909,-0.460038 0.27262,-0.607703 0.18175,-0.147676 0.42199,-0.221508 0.7213,-0.221508 0.33311,0 0.57932,0.07578 0.73835,0.227186 0.15903,0.151454 0.23854,0.363483 0.23854,0.636103 v 1.544848 c 0,0.07191 0.0171,0.123043 0.0511,0.153343 0.034,0.03026 0.0699,0.0454 0.10791,0.0454 h 0.15334 v 0.425973 c -0.034,0.019 -0.0815,0.03789 -0.14199,0.05678 -0.0607,0.019 -0.1363,0.02844 -0.22719,0.02844 -0.13261,0 -0.24251,-0.03596 -0.3294,-0.10791 -0.0872,-0.07191 -0.14767,-0.164708 -0.18175,-0.278307 h -0.0285 c -0.0796,0.117376 -0.17805,0.212052 -0.29533,0.283985 -0.11359,0.07191 -0.26325,0.10791 -0.44869,0.10791 z m 0.2215,-0.516839 c 0.10594,0 0.1968,-0.02844 0.27262,-0.08522 0.0756,-0.06054 0.13432,-0.141986 0.17606,-0.244219 0.0414,-0.102286 0.0625,-0.219608 0.0625,-0.35214 V 95.37577 c -0.15902,0 -0.30499,0.01514 -0.43732,0.0454 -0.12893,0.02651 -0.23285,0.0776 -0.31237,0.153353 -0.0796,0.07191 -0.11927,0.176064 -0.11927,0.312374 0,0.124944 0.0285,0.219598 0.0852,0.283975 0.0605,0.06054 0.15137,0.0909 0.27262,0.0909 z m 4.60953,1.431244 v -1.272223 h -0.0285 c -0.0531,0.10982 -0.1383,0.196886 -0.25558,0.261263 -0.11757,0.0644 -0.24991,0.0966 -0.39758,0.0966 -0.17038,0 -0.32572,-0.05303 -0.46572,-0.159031 -0.14029,-0.10981 -0.2499,-0.280197 -0.32941,-0.51116 -0.0796,-0.230954 -0.11928,-0.526295 -0.11928,-0.886012 0,-0.545238 0.0852,-0.942801 0.25559,-1.192708 0.17039,-0.249897 0.40126,-0.374851 0.6929,-0.374851 0.14,0 0.26695,0.03596 0.38053,0.10792 0.11728,0.07191 0.21185,0.179843 0.28398,0.323729 h 0.0285 l 0.0682,-0.363494 h 0.49412 v 3.970017 z m -0.48276,-1.465321 c 0.17039,0 0.29335,-0.0776 0.36918,-0.232864 0.0756,-0.155254 0.11358,-0.38053 0.11358,-0.67587 V 95.10886 c 0,-0.295341 -0.0381,-0.518738 -0.11358,-0.670192 -0.0758,-0.155243 -0.19879,-0.232864 -0.36918,-0.232864 -0.16669,0 -0.28966,0.07578 -0.36917,0.227186 -0.0758,0.147665 -0.11359,0.372962 -0.11359,0.67587 v 0.21582 c 0,0.302918 0.0378,0.530104 0.11359,0.681548 0.0796,0.147675 0.20248,0.221508 0.36917,0.221508 z m 2.51207,0.550916 c -0.22717,0 -0.41262,-0.07008 -0.5566,-0.210142 -0.14398,-0.140088 -0.21581,-0.384308 -0.21581,-0.732669 v -2.112797 h 0.6077 v 1.982164 c 0,0.196887 0.034,0.333197 0.10218,0.408929 0.0718,0.07578 0.17038,0.113599 0.29534,0.113599 0.14,0 0.25758,-0.06054 0.35213,-0.181754 0.0985,-0.121165 0.14767,-0.282075 0.14767,-0.482761 v -1.840177 h 0.60772 v 2.987453 h -0.49413 l -0.0681,-0.363496 h -0.0341 c -0.0758,0.128733 -0.17606,0.232864 -0.30102,0.312374 -0.12494,0.07953 -0.27262,0.119277 -0.44301,0.119277 z m 3.01784,0 c -0.37883,0 -0.6665,-0.124955 -0.86329,-0.374852 -0.19311,-0.249897 -0.28966,-0.64557 -0.28966,-1.187031 0,-0.53766 0.0966,-0.931444 0.28966,-1.181351 0.19679,-0.253686 0.47877,-0.380529 0.84624,-0.380529 0.34816,0 0.60943,0.121165 0.78378,0.363496 0.17778,0.23854 0.26695,0.619069 0.26695,1.141585 v 0.215831 h -1.5562 c 0.003,0.291553 0.0454,0.514939 0.12495,0.670181 0.0832,0.151454 0.21752,0.227186 0.40325,0.227186 0.12864,0 0.23087,-0.05303 0.3067,-0.159031 0.0796,-0.109809 0.11927,-0.259353 0.11927,-0.448683 h 0.60203 c 0,0.367273 -0.0985,0.64557 -0.29534,0.8349 -0.19311,0.185521 -0.43931,0.278298 -0.73834,0.278298 z m -0.51684,-1.868578 h 0.90873 c 0,-0.238543 -0.034,-0.422185 -0.10218,-0.550916 -0.0645,-0.132521 -0.1667,-0.198787 -0.3067,-0.198787 -0.163,0 -0.28398,0.0644 -0.36349,0.193108 -0.0759,0.128732 -0.12126,0.314264 -0.1363,0.556595 z m 4.39938,1.868578 c -0.37883,0 -0.66648,-0.124955 -0.86328,-0.374852 -0.19311,-0.249897 -0.28967,-0.64557 -0.28967,-1.187031 0,-0.53766 0.0966,-0.931444 0.28967,-1.181351 0.1968,-0.253686 0.47878,-0.380529 0.84625,-0.380529 0.34815,0 0.6094,0.121165 0.78377,0.363496 0.17777,0.23854 0.26694,0.619069 0.26694,1.141585 v 0.215831 h -1.55619 c 0.003,0.291553 0.0454,0.514939 0.12494,0.670181 0.0832,0.151454 0.21753,0.227186 0.40324,0.227186 0.12865,0 0.23088,-0.05303 0.3067,-0.159031 0.0796,-0.109809 0.11927,-0.259353 0.11927,-0.448683 h 0.60204 c 0,0.367273 -0.0985,0.64557 -0.29533,0.8349 -0.19311,0.185521 -0.43932,0.278298 -0.73835,0.278298 z m -0.51711,-1.868578 h 0.909 c 0,-0.238543 -0.034,-0.422185 -0.10218,-0.550916 -0.0645,-0.132521 -0.1667,-0.198787 -0.3067,-0.198787 -0.163,0 -0.28398,0.0644 -0.36349,0.193108 -0.0758,0.128732 -0.12126,0.314264 -0.13658,0.556595 z m 2.98233,1.868578 c -0.2272,0 -0.4186,-0.03971 -0.57364,-0.119277 -0.15534,-0.08329 -0.27262,-0.193098 -0.35213,-0.329408 -0.0759,-0.140087 -0.11359,-0.299118 -0.11359,-0.477082 0,-0.02275 0,-0.04165 0,-0.05678 0.003,-0.019 0.006,-0.02844 0.006,-0.02844 h 0.62475 v 0.0454 c 0,0.166608 0.0454,0.285874 0.13631,0.357807 0.0909,0.06815 0.18912,0.102286 0.29534,0.102286 0.10218,0 0.19679,-0.02844 0.28398,-0.08522 0.0909,-0.05678 0.1363,-0.149565 0.1363,-0.278297 0,-0.113587 -0.036,-0.200685 -0.1079,-0.261263 -0.0682,-0.06054 -0.15733,-0.10791 -0.26695,-0.141987 -0.10615,-0.03789 -0.2198,-0.07385 -0.34077,-0.10791 -0.12126,-0.03789 -0.23684,-0.08704 -0.34646,-0.147665 -0.10625,-0.06054 -0.19509,-0.145776 -0.26693,-0.255586 -0.0682,-0.113587 -0.10218,-0.263152 -0.10218,-0.448683 0,-0.196887 0.0434,-0.361596 0.13063,-0.494128 0.0909,-0.132519 0.21384,-0.230963 0.36917,-0.295329 0.15505,-0.06815 0.3294,-0.102286 0.52251,-0.102286 0.18913,0 0.35583,0.03413 0.49981,0.102286 0.14369,0.06815 0.25557,0.16281 0.3351,0.283973 0.0832,0.121166 0.12494,0.263153 0.12494,0.425973 0,0.02651 -0.002,0.05303 -0.006,0.07953 0,0.02651 0,0.04164 0,0.0454 h -0.61907 v -0.02275 c -0.005,-0.128743 -0.036,-0.229086 -0.0966,-0.301019 -0.0567,-0.07191 -0.14597,-0.107909 -0.26694,-0.107909 -0.0835,0 -0.15334,0.01707 -0.21014,0.05108 -0.0531,0.03026 -0.0928,0.07008 -0.11927,0.119266 -0.0267,0.04926 -0.0397,0.10411 -0.0397,0.164709 0,0.09842 0.034,0.174175 0.10217,0.227186 0.0682,0.05302 0.15506,0.0966 0.26127,0.130621 0.10961,0.03402 0.22518,0.06815 0.34644,0.102178 0.12098,0.03413 0.23656,0.08329 0.34646,0.147676 0.10962,0.06054 0.19878,0.149564 0.26694,0.266941 0.0681,0.113588 0.10218,0.266931 0.10218,0.460039 0,0.230964 -0.0474,0.416517 -0.14199,0.556594 -0.0909,0.13631 -0.21582,0.236642 -0.37485,0.301019 -0.15903,0.06054 -0.34077,0.09091 -0.54524,0.09091 z m 2.26841,-0.0054 c -0.1664,0 -0.29704,-0.03596 -0.39189,-0.10791 -0.0946,-0.07578 -0.16073,-0.170387 -0.19878,-0.283985 -0.0378,-0.117366 -0.0567,-0.240442 -0.0567,-0.369164 v -1.772024 h -0.28398 v -0.516847 h 0.28398 l 0.10228,-0.834891 h 0.50548 v 0.834891 h 0.42029 v 0.516847 h -0.42029 v 1.766336 c 0,0.170387 0.0835,0.255586 0.2499,0.255586 h 0.17039 v 0.443005 c -0.0454,0.01514 -0.10593,0.03026 -0.18175,0.0454 -0.0718,0.01514 -0.13801,0.02275 -0.19878,0.02275 z m 1.3506,0.0054 c -0.0681,0 -0.14767,-0.01138 -0.23855,-0.03413 -0.087,-0.02275 -0.17038,-0.06247 -0.24989,-0.119276 -0.0796,-0.06054 -0.14568,-0.145765 -0.19879,-0.255575 -0.0492,-0.10982 -0.0738,-0.253675 -0.0738,-0.431651 0,-0.272618 0.0645,-0.48276 0.1931,-0.630425 0.12892,-0.147676 0.305,-0.249909 0.52821,-0.306697 0.22718,-0.06054 0.48474,-0.09091 0.77242,-0.09091 v -0.340774 c 0,-0.113599 -0.0245,-0.210153 -0.0738,-0.289664 -0.0454,-0.07953 -0.14369,-0.119264 -0.29532,-0.119264 -0.15137,0 -0.25559,0.03971 -0.31238,0.119264 -0.0529,0.07953 -0.0796,0.16281 -0.0796,0.249898 v 0.07953 h -0.59635 c -0.003,-0.01889 -0.006,-0.03789 -0.006,-0.05678 0,-0.01889 0,-0.04164 0,-0.06815 0,-0.257475 0.0909,-0.460038 0.27262,-0.607703 0.18174,-0.147676 0.42227,-0.221508 0.7213,-0.221508 0.33339,0 0.57932,0.07578 0.73834,0.227186 0.15903,0.151454 0.23854,0.363483 0.23854,0.636103 v 1.544848 c 0,0.07191 0.0171,0.123043 0.0511,0.153343 0.034,0.03026 0.0701,0.0454 0.10791,0.0454 h 0.15335 v 0.425973 c -0.034,0.019 -0.0812,0.03789 -0.14199,0.05678 -0.0605,0.019 -0.13632,0.02844 -0.22719,0.02844 -0.13233,0 -0.24223,-0.03596 -0.32941,-0.10791 -0.087,-0.07191 -0.14766,-0.164708 -0.18174,-0.278307 h -0.0285 c -0.0796,0.117376 -0.17777,0.212052 -0.29534,0.283985 -0.11358,0.07191 -0.26295,0.10791 -0.44868,0.10791 z m 0.22151,-0.516839 c 0.10625,0 0.19707,-0.02844 0.27262,-0.08522 0.0758,-0.06054 0.1346,-0.141986 0.17606,-0.244219 0.0418,-0.102286 0.0625,-0.219608 0.0625,-0.35214 V 95.37577 c -0.15903,0 -0.30472,0.01514 -0.43733,0.0454 -0.12865,0.02651 -0.23287,0.0776 -0.31238,0.153353 -0.0796,0.07191 -0.11927,0.176064 -0.11927,0.312374 0,0.124944 0.0285,0.219598 0.0852,0.283975 0.0607,0.06054 0.15164,0.0909 0.27262,0.0909 z m -0.21583,-2.907943 0.48845,-0.749702 h 0.62475 l 0.006,0.01707 -0.61339,0.732669 z m 2.93122,3.424782 c -0.22719,0 -0.41858,-0.03971 -0.57363,-0.119277 -0.15534,-0.08329 -0.27262,-0.193098 -0.35213,-0.329408 -0.0758,-0.140087 -0.11359,-0.299118 -0.11359,-0.477082 0,-0.02275 0,-0.04165 0,-0.05678 0.003,-0.019 0.006,-0.02844 0.006,-0.02844 h 0.62475 v 0.0454 c 0,0.166608 0.0454,0.285874 0.1363,0.357807 0.0909,0.06815 0.18913,0.102286 0.29535,0.102286 0.10217,0 0.19678,-0.02844 0.28397,-0.08522 0.0909,-0.05678 0.13631,-0.149565 0.13631,-0.278297 0,-0.113587 -0.036,-0.200685 -0.10791,-0.261263 -0.0681,-0.06054 -0.15733,-0.10791 -0.26694,-0.141987 -0.10626,-0.03789 -0.2198,-0.07385 -0.34078,-0.10791 -0.12126,-0.03789 -0.23683,-0.08704 -0.34644,-0.147665 -0.10626,-0.06054 -0.1951,-0.145776 -0.26695,-0.255586 -0.0682,-0.113587 -0.10218,-0.263152 -0.10218,-0.448683 0,-0.196887 0.0434,-0.361596 0.13064,-0.494128 0.0909,-0.132519 0.21383,-0.230963 0.36917,-0.295329 0.15505,-0.06815 0.32941,-0.102286 0.52252,-0.102286 0.18913,0 0.35582,0.03413 0.4998,0.102286 0.1437,0.06815 0.25558,0.16281 0.3351,0.283973 0.0832,0.121166 0.12494,0.263153 0.12494,0.425973 0,0.02651 -0.002,0.05303 -0.006,0.07953 0,0.02651 0,0.04164 0,0.0454 h -0.61907 v -0.02275 c -0.005,-0.128743 -0.036,-0.229086 -0.0966,-0.301019 -0.0567,-0.07191 -0.14596,-0.107909 -0.26694,-0.107909 -0.0835,0 -0.15334,0.01707 -0.21015,0.05108 -0.0531,0.03026 -0.0928,0.07008 -0.11926,0.119266 -0.0267,0.04926 -0.0397,0.10411 -0.0397,0.164709 0,0.09842 0.034,0.174175 0.10218,0.227186 0.0681,0.05302 0.15507,0.0966 0.26126,0.130621 0.10962,0.03402 0.22521,0.06815 0.34646,0.102178 0.12098,0.03413 0.23655,0.08329 0.34645,0.147676 0.10961,0.06054 0.19879,0.149564 0.26694,0.266941 0.0682,0.113588 0.10218,0.266931 0.10218,0.460039 0,0.230964 -0.0474,0.416517 -0.14199,0.556594 -0.0909,0.13631 -0.21582,0.236642 -0.37485,0.301019 -0.15903,0.06054 -0.34077,0.09091 -0.54524,0.09091 z m 4.14579,0 c -0.14,0 -0.26892,-0.03596 -0.3862,-0.107911 -0.11359,-0.07191 -0.20816,-0.179842 -0.28397,-0.32374 h -0.0285 l -0.0625,0.363496 h -0.49412 v -4.10632 h 0.60772 v 1.419895 h 0.0285 c 0.0531,-0.117377 0.13829,-0.208253 0.25559,-0.27262 0.11727,-0.0644 0.24989,-0.0966 0.39755,-0.0966 0.17409,0 0.32942,0.05496 0.46573,0.164709 0.13631,0.106043 0.24422,0.274507 0.32373,0.505482 0.0832,0.227175 0.12495,0.522517 0.12495,0.886012 0,0.545238 -0.0852,0.9428 -0.25557,1.192708 -0.17038,0.249898 -0.40126,0.374851 -0.69292,0.374851 z m -0.17038,-0.550916 c 0.17408,0 0.29733,-0.07384 0.36918,-0.221508 0.0759,-0.151444 0.11358,-0.37863 0.11358,-0.681548 v -0.21582 c 0,-0.302908 -0.0378,-0.528205 -0.11358,-0.67587 -0.0718,-0.151454 -0.1951,-0.227186 -0.36918,-0.227186 -0.16669,0 -0.28767,0.07953 -0.36349,0.238541 -0.0759,0.155243 -0.11359,0.382429 -0.11359,0.681548 v 0.198787 c 0,0.29534 0.0378,0.520616 0.11359,0.67587 0.0758,0.151443 0.1968,0.227186 0.36349,0.227186 z m 2.4496,0.550916 c -0.22719,0 -0.41262,-0.07008 -0.5566,-0.210142 -0.14369,-0.140088 -0.21582,-0.384308 -0.21582,-0.732669 v -2.112797 h 0.60771 v 1.982164 c 0,0.196887 0.034,0.333197 0.10218,0.408929 0.0722,0.07578 0.17038,0.113599 0.29534,0.113599 0.14028,0 0.25756,-0.06054 0.35213,-0.181754 0.0985,-0.121165 0.14766,-0.282075 0.14766,-0.482761 v -1.840177 h 0.60772 v 2.987453 h -0.49412 l -0.0681,-0.363496 h -0.034 c -0.0756,0.128733 -0.17606,0.232864 -0.30102,0.312374 -0.12496,0.07953 -0.27262,0.119277 -0.44301,0.119277 z m 2.89288,0 c -0.22718,0 -0.41829,-0.03971 -0.57363,-0.119277 -0.15534,-0.08329 -0.27262,-0.193098 -0.35213,-0.329408 -0.0759,-0.140087 -0.1136,-0.299118 -0.1136,-0.477082 0,-0.02275 0,-0.04165 0,-0.05678 0.003,-0.019 0.006,-0.02844 0.006,-0.02844 h 0.62475 v 0.0454 c 0,0.166608 0.0454,0.285874 0.13631,0.357807 0.0909,0.06815 0.18942,0.102286 0.29534,0.102286 0.10218,0 0.19679,-0.02844 0.28398,-0.08522 0.0909,-0.05678 0.1363,-0.149565 0.1363,-0.278297 0,-0.113587 -0.036,-0.200685 -0.10791,-0.261263 -0.0682,-0.06054 -0.15704,-0.10791 -0.26694,-0.141987 -0.10593,-0.03789 -0.21951,-0.07385 -0.34077,-0.10791 -0.12126,-0.03789 -0.23656,-0.08704 -0.34645,-0.147665 -0.10594,-0.06054 -0.1951,-0.145776 -0.26694,-0.255586 -0.0681,-0.113587 -0.10229,-0.263152 -0.10229,-0.448683 0,-0.196887 0.0434,-0.361596 0.13064,-0.494128 0.0909,-0.132519 0.21382,-0.230963 0.36917,-0.295329 0.15532,-0.06815 0.3294,-0.102286 0.52251,-0.102286 0.18941,0 0.35583,0.03413 0.4998,0.102286 0.14398,0.06815 0.25558,0.16281 0.33509,0.283973 0.0832,0.121166 0.12496,0.263153 0.12496,0.425973 0,0.02651 -0.002,0.05303 -0.006,0.07953 0,0.02651 0,0.04164 0,0.0454 h -0.61907 v -0.02275 c -0.003,-0.128743 -0.036,-0.229086 -0.0966,-0.301019 -0.0567,-0.07191 -0.14567,-0.107909 -0.26693,-0.107909 -0.0832,0 -0.15335,0.01707 -0.21014,0.05108 -0.0531,0.03026 -0.0928,0.07008 -0.11929,0.119266 -0.0264,0.04926 -0.0397,0.10411 -0.0397,0.164709 0,0.09842 0.034,0.174175 0.10217,0.227186 0.0682,0.05302 0.15535,0.0966 0.26127,0.130621 0.10989,0.03402 0.22519,0.06815 0.34645,0.102178 0.12126,0.03413 0.23655,0.08329 0.34645,0.147676 0.10991,0.06054 0.19879,0.149564 0.26694,0.266941 0.0681,0.113588 0.10218,0.266931 0.10218,0.460039 0,0.230964 -0.0474,0.416517 -0.14199,0.556594 -0.0909,0.13631 -0.21581,0.236642 -0.37485,0.301019 -0.15903,0.06054 -0.34077,0.09091 -0.54524,0.09091 z m 2.59244,0 c -0.37882,0 -0.65713,-0.124955 -0.83489,-0.374852 -0.17437,-0.253675 -0.26127,-0.64937 -0.26127,-1.187031 0,-0.53766 0.0889,-0.931444 0.26695,-1.181351 0.18174,-0.253686 0.45237,-0.380529 0.81217,-0.380529 0.32175,0 0.56796,0.0966 0.73834,0.289663 0.17409,0.193097 0.26127,0.492227 0.26127,0.897366 h -0.62475 c 0,-0.227186 -0.0285,-0.395673 -0.0852,-0.505482 -0.0567,-0.109799 -0.15334,-0.164709 -0.28965,-0.164709 -0.15902,0 -0.27262,0.07953 -0.34077,0.238541 -0.0682,0.159032 -0.10229,0.391895 -0.10229,0.698592 v 0.21582 c 0,0.306696 0.0358,0.53956 0.10791,0.698592 0.0718,0.15902 0.18913,0.238541 0.35213,0.238541 0.13631,0 0.23286,-0.05678 0.28967,-0.170387 0.0605,-0.113598 0.0909,-0.280207 0.0909,-0.499805 h 0.60204 c 0,0.253675 -0.0381,0.469506 -0.11359,0.64747 -0.0759,0.174165 -0.18743,0.308596 -0.33509,0.403251 -0.14399,0.09091 -0.32204,0.13631 -0.53389,0.13631 z m 2.06395,0 c -0.0682,0 -0.14766,-0.01138 -0.23854,-0.03413 -0.087,-0.02275 -0.17038,-0.06247 -0.24989,-0.119276 -0.0796,-0.06054 -0.14569,-0.145765 -0.1988,-0.255575 -0.0492,-0.10982 -0.0738,-0.253675 -0.0738,-0.431651 0,-0.272618 0.0645,-0.48276 0.1931,-0.630425 0.12893,-0.147676 0.30499,-0.249909 0.5282,-0.306697 0.22718,-0.06054 0.48474,-0.09091 0.77242,-0.09091 v -0.340774 c 0,-0.113599 -0.0245,-0.210153 -0.0738,-0.289664 -0.0454,-0.07953 -0.1437,-0.119264 -0.29534,-0.119264 -0.15136,0 -0.25559,0.03971 -0.31238,0.119264 -0.0529,0.07953 -0.0796,0.16281 -0.0796,0.249898 v 0.07953 h -0.59634 c -0.003,-0.01889 -0.006,-0.03789 -0.006,-0.05678 0,-0.01889 0,-0.04164 0,-0.06815 0,-0.257475 0.0909,-0.460038 0.27262,-0.607703 0.18174,-0.147676 0.42227,-0.221508 0.7213,-0.221508 0.33339,0 0.57932,0.07578 0.73835,0.227186 0.15902,0.151454 0.23854,0.363483 0.23854,0.636103 v 1.544848 c 0,0.07191 0.0171,0.123043 0.0511,0.153343 0.034,0.03026 0.0701,0.0454 0.10791,0.0454 h 0.15335 v 0.425973 c -0.034,0.019 -0.0812,0.03789 -0.14199,0.05678 -0.0605,0.019 -0.1363,0.02844 -0.22718,0.02844 -0.13234,0 -0.24223,-0.03596 -0.32942,-0.10791 -0.087,-0.07191 -0.14766,-0.164708 -0.18174,-0.278307 h -0.0285 c -0.0796,0.117376 -0.17778,0.212052 -0.29534,0.283985 -0.11359,0.07191 -0.26296,0.10791 -0.44869,0.10791 z m 0.22151,-0.516839 c 0.10626,0 0.19708,-0.02844 0.27262,-0.08522 0.0758,-0.06054 0.1346,-0.141986 0.17607,-0.244219 0.0418,-0.102286 0.0625,-0.219608 0.0625,-0.35214 V 95.37577 c -0.15903,0 -0.30471,0.01514 -0.43733,0.0454 -0.12865,0.02651 -0.23286,0.0776 -0.31237,0.153353 -0.0796,0.07191 -0.11928,0.176064 -0.11928,0.312374 0,0.124944 0.0285,0.219598 0.0852,0.283975 0.0607,0.06054 0.15163,0.0909 0.27262,0.0909 z m 1.81206,0.448684 v -2.987453 h 0.49413 l 0.0625,0.363494 h 0.0341 c 0.0796,-0.128741 0.18174,-0.232862 0.30669,-0.312373 0.12495,-0.07953 0.27092,-0.119276 0.43733,-0.119276 0.23115,0 0.41858,0.07008 0.56227,0.210142 0.14397,0.140099 0.21582,0.384317 0.21582,0.732668 v 2.112798 h -0.6077 V 94.72833 c 0,-0.196896 -0.0358,-0.333206 -0.10792,-0.408928 -0.0718,-0.07578 -0.17039,-0.113598 -0.29534,-0.113598 -0.1363,0 -0.2536,0.06247 -0.35213,0.187431 -0.0946,0.124954 -0.14199,0.285874 -0.14199,0.482761 v 1.834501 z m 3.61987,0.06815 c -0.29166,0 -0.52253,-0.124955 -0.69291,-0.374851 -0.17039,-0.249898 -0.25557,-0.647471 -0.25557,-1.192709 0,-0.363496 0.0397,-0.658826 0.11926,-0.886012 0.0796,-0.230975 0.18942,-0.399461 0.32941,-0.505481 0.14,-0.109811 0.29534,-0.16471 0.46573,-0.16471 0.14766,0 0.28028,0.0322 0.39756,0.0966 0.11729,0.0644 0.20248,0.155242 0.25558,0.272618 h 0.0285 v -1.419894 h 0.60771 v 4.106329 h -0.49412 l -0.0682,-0.363496 h -0.0285 c -0.0718,0.143898 -0.1667,0.251808 -0.28398,0.323741 -0.11359,0.07191 -0.24053,0.107909 -0.38053,0.107909 z m 0.1647,-0.550916 c 0.17039,0 0.29335,-0.07578 0.36917,-0.227186 0.0759,-0.155254 0.11359,-0.38053 0.11359,-0.67587 v -0.198787 c 0,-0.299119 -0.0378,-0.526305 -0.11359,-0.681547 -0.0758,-0.159021 -0.19878,-0.238542 -0.36917,-0.238542 -0.1667,0 -0.28966,0.07578 -0.36917,0.227186 -0.0759,0.147665 -0.1136,0.372962 -0.1136,0.67587 v 0.21582 c 0,0.302918 0.0378,0.530104 0.1136,0.681548 0.0796,0.147675 0.20247,0.221508 0.36917,0.221508 z m 2.79605,0.550916 c -0.37855,0 -0.6645,-0.124955 -0.85761,-0.374851 -0.19311,-0.253676 -0.28966,-0.649371 -0.28966,-1.187031 0,-0.537661 0.0966,-0.931445 0.28966,-1.181352 0.19311,-0.253686 0.47906,-0.380529 0.85761,-0.380529 0.38252,0 0.67019,0.126843 0.8633,0.380529 0.1931,0.249907 0.28965,0.643691 0.28965,1.181352 0,0.53766 -0.0966,0.933355 -0.28965,1.187031 -0.19311,0.249896 -0.48078,0.374851 -0.8633,0.374851 z m 0,-0.516839 c 0.18175,0 0.31237,-0.07953 0.39189,-0.238541 0.0835,-0.159032 0.12494,-0.391895 0.12494,-0.698592 v -0.21582 c 0,-0.306696 -0.0414,-0.53956 -0.12494,-0.698592 -0.0796,-0.15902 -0.21014,-0.238541 -0.39189,-0.238541 -0.18174,0 -0.31409,0.07953 -0.39757,0.238541 -0.0796,0.159032 -0.11927,0.391896 -0.11927,0.698592 v 0.21582 c 0,0.306697 0.0397,0.53956 0.11927,0.698592 0.0835,0.15902 0.21583,0.238541 0.39757,0.238541 z m 2.99823,0.448684 v -2.987453 h 0.49414 l 0.0625,0.363495 h 0.034 c 0.0796,-0.128742 0.18175,-0.232863 0.3067,-0.312374 0.12494,-0.07953 0.27063,-0.119276 0.43733,-0.119276 0.23086,0 0.4183,0.07008 0.56227,0.210142 0.14369,0.140099 0.21582,0.384317 0.21582,0.732668 v 2.112798 h -0.60771 v -1.982166 c 0,-0.196897 -0.036,-0.333207 -0.10791,-0.408929 -0.0721,-0.07578 -0.17039,-0.113598 -0.29534,-0.113598 -0.1363,0 -0.25388,0.06247 -0.35214,0.187431 -0.0949,0.124954 -0.14199,0.285874 -0.14199,0.482761 v 1.834501 z m 3.81837,0.06815 c -0.37854,0 -0.6645,-0.124955 -0.8576,-0.374851 -0.19311,-0.253676 -0.28967,-0.649371 -0.28967,-1.187031 0,-0.537661 0.0966,-0.931445 0.28967,-1.181352 0.1931,-0.253686 0.47906,-0.380528 0.8576,-0.380528 0.38253,0 0.6702,0.126842 0.8633,0.380528 0.19311,0.249907 0.28966,0.643691 0.28966,1.181352 0,0.53766 -0.0966,0.933355 -0.28966,1.187031 -0.1931,0.249896 -0.48077,0.374851 -0.8633,0.374851 z m 0,-0.516839 c 0.18175,0 0.31238,-0.07953 0.39191,-0.238541 0.0835,-0.159032 0.12494,-0.391895 0.12494,-0.698592 v -0.21582 c 0,-0.306696 -0.0414,-0.53956 -0.12494,-0.698591 -0.0796,-0.159021 -0.21016,-0.238542 -0.39191,-0.238542 -0.18173,0 -0.31407,0.07953 -0.39756,0.238542 -0.0796,0.159031 -0.11927,0.391895 -0.11927,0.698591 v 0.21582 c 0,0.306697 0.0397,0.53956 0.11927,0.698592 0.0835,0.15902 0.21583,0.238541 0.39756,0.238541 z m -77.79237,8.184247 c -0.37855,0 -0.66621,-0.12494 -0.8633,-0.37485 -0.19311,-0.2499 -0.28966,-0.64557 -0.28966,-1.18703 0,-0.53765 0.0966,-0.93144 0.28966,-1.18134 0.19709,-0.25369 0.47908,-0.38054 0.84626,-0.38054 0.34844,0 0.6097,0.12118 0.78378,0.3635 0.17805,0.23854 0.26694,0.61907 0.26694,1.1416 v 0.21581 h -1.5562 c 0.005,0.29156 0.0454,0.51494 0.12495,0.6702 0.0835,0.15144 0.21781,0.22717 0.40324,0.22717 0.12894,0 0.23117,-0.053 0.3067,-0.15902 0.0796,-0.10982 0.11928,-0.25936 0.11928,-0.44869 h 0.60203 c 0,0.36727 -0.0982,0.64557 -0.29534,0.8349 -0.1931,0.18552 -0.43903,0.27829 -0.73834,0.27829 z m -0.51684,-1.86857 h 0.90873 c 0,-0.23855 -0.0341,-0.42218 -0.10218,-0.55092 -0.0642,-0.13253 -0.16642,-0.19878 -0.3067,-0.19878 -0.16272,0 -0.28398,0.0644 -0.36349,0.19311 -0.0756,0.12872 -0.12098,0.31426 -0.13631,0.55659 z m 1.78394,1.80042 0.86898,-1.53348 -0.8065,-1.45398 h 0.69859 l 0.47141,0.9201 h 0.0227 l 0.48276,-0.9201 h 0.65883 l -0.81218,1.43125 0.85762,1.55621 h -0.69859 l -0.5282,-1.02232 h -0.0227 l -0.53955,1.02232 z m 2.81934,0 v -2.98746 h 0.60203 v 2.98746 z m -0.0114,-3.49292 v -0.61341 h 0.61908 v 0.61341 z m 2.18408,3.56107 c -0.22718,0 -0.41831,-0.0397 -0.57363,-0.11926 -0.15534,-0.0833 -0.27262,-0.19311 -0.35214,-0.32942 -0.0758,-0.14009 -0.11359,-0.29912 -0.11359,-0.47708 0,-0.0227 0,-0.0417 0,-0.0567 0.003,-0.019 0.006,-0.0285 0.006,-0.0285 h 0.62474 v 0.0454 c 0,0.16661 0.0454,0.28589 0.13631,0.3578 0.0909,0.0682 0.18941,0.10219 0.29534,0.10219 0.10228,0 0.1968,-0.0285 0.28398,-0.0852 0.0909,-0.0568 0.1363,-0.14957 0.1363,-0.27831 0,-0.11358 -0.036,-0.20068 -0.1079,-0.26125 -0.0681,-0.0605 -0.15704,-0.10792 -0.26695,-0.142 -0.10593,-0.0379 -0.21951,-0.0738 -0.34077,-0.1079 -0.12125,-0.0379 -0.23654,-0.0872 -0.34646,-0.14767 -0.10593,-0.0605 -0.19508,-0.14576 -0.26693,-0.25558 -0.0682,-0.11359 -0.10229,-0.26317 -0.10229,-0.44869 0,-0.19687 0.0434,-0.36159 0.13063,-0.49411 0.0909,-0.13254 0.21384,-0.23097 0.36918,-0.29534 0.15533,-0.0681 0.32941,-0.10218 0.52251,-0.10218 0.18942,0 0.35584,0.034 0.49981,0.10218 0.14397,0.0682 0.25558,0.1628 0.33509,0.28397 0.0832,0.12117 0.12496,0.26316 0.12496,0.42597 0,0.0265 -0.002,0.053 -0.006,0.0796 0,0.0265 0,0.0417 0,0.0454 h -0.61908 v -0.0227 c -0.003,-0.12872 -0.036,-0.22908 -0.0966,-0.30101 -0.0567,-0.0719 -0.14567,-0.10791 -0.26692,-0.10791 -0.0832,0 -0.15336,0.0171 -0.21015,0.0511 -0.0531,0.0303 -0.0928,0.07 -0.11927,0.11927 -0.0264,0.0492 -0.0397,0.10411 -0.0397,0.1647 0,0.0984 0.0341,0.17416 0.10229,0.22719 0.0681,0.053 0.15532,0.0966 0.26125,0.13063 0.1099,0.034 0.2252,0.0681 0.34646,0.10218 0.12125,0.0341 0.23655,0.0833 0.34645,0.14766 0.10989,0.0605 0.19879,0.14958 0.26694,0.26695 0.0681,0.11358 0.10218,0.26693 0.10218,0.46003 0,0.23096 -0.0474,0.41652 -0.142,0.55661 -0.0909,0.1363 -0.21582,0.23663 -0.37485,0.30102 -0.15902,0.0605 -0.34077,0.0909 -0.54524,0.0909 z m 2.2687,-0.006 c -0.16669,0 -0.29732,-0.0359 -0.39189,-0.10791 -0.0949,-0.0758 -0.16101,-0.17038 -0.19878,-0.28398 -0.0381,-0.11737 -0.0567,-0.24045 -0.0567,-0.36916 v -1.77203 h -0.28398 v -0.51684 h 0.28398 l 0.10218,-0.8349 h 0.50548 v 0.8349 h 0.42028 v 0.51684 h -0.42028 v 1.76635 c 0,0.17039 0.0832,0.25557 0.2499,0.25557 h 0.17038 v 0.44301 c -0.0454,0.0152 -0.10625,0.0303 -0.18174,0.0454 -0.0722,0.0152 -0.13829,0.0227 -0.19878,0.0227 z m 1.82199,0.006 c -0.37881,0 -0.66649,-0.12494 -0.86328,-0.37485 -0.1931,-0.2499 -0.28965,-0.64557 -0.28965,-1.18703 0,-0.53765 0.0966,-0.93144 0.28965,-1.18134 0.19679,-0.25369 0.47878,-0.38054 0.84624,-0.38054 0.34816,0 0.60942,0.12118 0.78378,0.3635 0.17777,0.23854 0.26695,0.61907 0.26695,1.1416 v 0.21581 h -1.5562 c 0.003,0.29156 0.0454,0.51494 0.12496,0.6702 0.0832,0.15144 0.21752,0.22717 0.40324,0.22717 0.12863,0 0.23087,-0.053 0.30669,-0.15902 0.0796,-0.10982 0.11926,-0.25936 0.11926,-0.44869 h 0.60205 c 0,0.36727 -0.0985,0.64557 -0.29535,0.8349 -0.1931,0.18552 -0.4393,0.27829 -0.73834,0.27829 z m -0.51682,-1.86857 h 0.90871 c 0,-0.23855 -0.034,-0.42218 -0.10218,-0.55092 -0.0645,-0.13253 -0.16669,-0.19878 -0.30669,-0.19878 -0.16299,0 -0.28397,0.0644 -0.36348,0.19311 -0.0759,0.12872 -0.12126,0.31426 -0.1363,0.55659 z m 4.42777,1.86857 c -0.37883,0 -0.66451,-0.12494 -0.85761,-0.37485 -0.19311,-0.25367 -0.28966,-0.64937 -0.28966,-1.18703 0,-0.53765 0.0966,-0.93144 0.28966,-1.18134 0.1931,-0.25369 0.47878,-0.38054 0.85761,-0.38054 0.38224,0 0.6702,0.12685 0.86329,0.38054 0.19311,0.2499 0.28967,0.64369 0.28967,1.18134 0,0.53766 -0.0966,0.93336 -0.28967,1.18703 -0.19309,0.24991 -0.48105,0.37485 -0.86329,0.37485 z m 0,-0.51684 c 0.18175,0 0.31238,-0.0796 0.39189,-0.23854 0.0832,-0.15903 0.12496,-0.39189 0.12496,-0.69859 v -0.21582 c 0,-0.3067 -0.0418,-0.53956 -0.12496,-0.69858 -0.0796,-0.15903 -0.21014,-0.23854 -0.39189,-0.23854 -0.18174,0 -0.31437,0.0796 -0.39757,0.23854 -0.0796,0.15902 -0.11927,0.39188 -0.11927,0.69858 v 0.21582 c 0,0.3067 0.0397,0.53956 0.11927,0.69859 0.0832,0.15903 0.21583,0.23854 0.39757,0.23854 z m 3.90101,0.51684 c -0.22719,0 -0.41829,-0.0397 -0.57364,-0.11926 -0.15534,-0.0833 -0.27262,-0.19311 -0.35212,-0.32942 -0.0759,-0.14009 -0.1136,-0.29912 -0.1136,-0.47708 0,-0.0227 0,-0.0417 0,-0.0567 0.003,-0.019 0.006,-0.0285 0.006,-0.0285 h 0.62475 v 0.0454 c 0,0.16661 0.0454,0.28589 0.1363,0.3578 0.0909,0.0682 0.18943,0.10219 0.29535,0.10219 0.10229,0 0.19678,-0.0285 0.28397,-0.0852 0.0909,-0.0568 0.13631,-0.14957 0.13631,-0.27831 0,-0.11358 -0.036,-0.20068 -0.10791,-0.26125 -0.0681,-0.0605 -0.15704,-0.10792 -0.26694,-0.142 -0.10593,-0.0379 -0.21952,-0.0738 -0.34078,-0.1079 -0.12126,-0.0379 -0.23655,-0.0872 -0.34644,-0.14767 -0.10594,-0.0605 -0.1951,-0.14576 -0.26695,-0.25558 -0.0681,-0.11359 -0.10218,-0.26317 -0.10218,-0.44869 0,-0.19687 0.0434,-0.36159 0.13064,-0.49411 0.0909,-0.13254 0.21383,-0.23097 0.36916,-0.29534 0.15534,-0.0681 0.32942,-0.10218 0.52253,-0.10218 0.18941,0 0.35582,0.034 0.4998,0.10218 0.14398,0.0682 0.25558,0.1628 0.33509,0.28397 0.0832,0.12117 0.12495,0.26316 0.12495,0.42597 0,0.0265 -0.002,0.053 -0.006,0.0796 0,0.0265 0,0.0417 0,0.0454 h -0.61907 v -0.0227 c -0.003,-0.12872 -0.036,-0.22908 -0.0966,-0.30101 -0.0567,-0.0719 -0.14567,-0.10791 -0.26694,-0.10791 -0.0832,0 -0.15334,0.0171 -0.21015,0.0511 -0.0531,0.0303 -0.0928,0.07 -0.11927,0.11927 -0.0264,0.0492 -0.0397,0.10411 -0.0397,0.1647 0,0.0984 0.034,0.17416 0.10218,0.22719 0.0682,0.053 0.15533,0.0966 0.26126,0.13063 0.1099,0.034 0.22519,0.0681 0.34645,0.10218 0.12127,0.0341 0.23656,0.0833 0.34646,0.14766 0.1099,0.0605 0.19878,0.14958 0.26694,0.26695 0.0681,0.11358 0.10228,0.26693 0.10228,0.46003 0,0.23096 -0.0474,0.41652 -0.14199,0.55661 -0.0909,0.1363 -0.21581,0.23663 -0.37484,0.30102 -0.15904,0.0605 -0.34078,0.0909 -0.54524,0.0909 z m 2.62651,0 c -0.37881,0 -0.6665,-0.12494 -0.86328,-0.37485 -0.19311,-0.2499 -0.28967,-0.64557 -0.28967,-1.18703 0,-0.53765 0.0966,-0.93144 0.28967,-1.18134 0.19678,-0.25369 0.47878,-0.38054 0.84625,-0.38054 0.34816,0 0.60941,0.12118 0.78378,0.3635 0.17777,0.23854 0.26693,0.61907 0.26693,1.1416 v 0.21581 h -1.55619 c 0.003,0.29156 0.0454,0.51494 0.12494,0.6702 0.0832,0.15144 0.21754,0.22717 0.40325,0.22717 0.12865,0 0.23088,-0.053 0.3067,-0.15902 0.0796,-0.10982 0.11927,-0.25936 0.11927,-0.44869 h 0.60203 c 0,0.36727 -0.0985,0.64557 -0.29533,0.8349 -0.19311,0.18552 -0.43932,0.27829 -0.73835,0.27829 z m -0.51684,-1.86857 h 0.90874 c 0,-0.23855 -0.034,-0.42218 -0.10218,-0.55092 -0.0645,-0.13253 -0.16669,-0.19878 -0.30669,-0.19878 -0.16301,0 -0.28399,0.0644 -0.3635,0.19311 -0.0758,0.12872 -0.12126,0.31426 -0.13631,0.55659 z m 3.37111,1.80042 v -4.10633 h 0.60772 v 1.43694 h 0.0227 c 0.0681,-0.10982 0.16102,-0.20069 0.2783,-0.27262 0.12126,-0.0758 0.26325,-0.1136 0.42597,-0.1136 0.23116,0 0.41859,0.07 0.56228,0.21015 0.14397,0.1401 0.21582,0.38431 0.21582,0.73267 v 2.11279 h -0.60772 v -1.98216 c 0,-0.19689 -0.0358,-0.33321 -0.1079,-0.40894 -0.0718,-0.0758 -0.17039,-0.11358 -0.29535,-0.11358 -0.1363,0 -0.25358,0.0625 -0.35213,0.18742 -0.0945,0.12495 -0.14198,0.28588 -0.14198,0.48276 v 1.8345 z m 3.31885,0.0681 c -0.0681,0 -0.14766,-0.0114 -0.23854,-0.034 -0.0871,-0.0227 -0.17039,-0.0625 -0.2499,-0.11926 -0.0796,-0.0605 -0.14568,-0.14576 -0.19879,-0.25558 -0.0492,-0.10981 -0.0738,-0.25368 -0.0738,-0.43166 0,-0.27262 0.0645,-0.48276 0.19311,-0.63042 0.12863,-0.14767 0.3047,-0.2499 0.52819,-0.3067 0.22719,-0.0605 0.48476,-0.0909 0.77242,-0.0909 v -0.34077 c 0,-0.11359 -0.0247,-0.21014 -0.0738,-0.28967 -0.0454,-0.0796 -0.14399,-0.11926 -0.29534,-0.11926 -0.15135,0 -0.25557,0.0397 -0.31237,0.11926 -0.0531,0.0796 -0.0796,0.16281 -0.0796,0.24992 v 0.0796 h -0.59637 c -0.003,-0.019 -0.006,-0.0379 -0.006,-0.0567 0,-0.019 0,-0.0417 0,-0.0682 0,-0.25749 0.0909,-0.46005 0.27262,-0.60771 0.18173,-0.14767 0.42227,-0.22151 0.7213,-0.22151 0.33311,0 0.57931,0.0758 0.73835,0.22718 0.15902,0.15144 0.23854,0.3635 0.23854,0.63612 v 1.54484 c 0,0.0719 0.0171,0.12304 0.0511,0.15335 0.0341,0.0303 0.0702,0.0454 0.10791,0.0454 h 0.15335 v 0.42596 c -0.034,0.019 -0.0815,0.0379 -0.14199,0.0568 -0.0605,0.019 -0.13631,0.0285 -0.22719,0.0285 -0.13262,0 -0.24223,-0.0359 -0.32941,-0.10791 -0.0872,-0.0719 -0.14767,-0.16471 -0.18175,-0.2783 h -0.0285 c -0.0796,0.11737 -0.17805,0.21204 -0.29532,0.28398 -0.1136,0.0719 -0.26325,0.10791 -0.4487,0.10791 z m 0.22151,-0.51684 c 0.10594,0 0.19678,-0.0285 0.27262,-0.0852 0.0758,-0.0605 0.13432,-0.14198 0.17606,-0.24422 0.0418,-0.10218 0.0625,-0.2196 0.0625,-0.35214 v -0.20446 c -0.15903,0 -0.30472,0.0151 -0.43733,0.0454 -0.12865,0.0265 -0.23286,0.0776 -0.31237,0.15335 -0.0796,0.0719 -0.11928,0.17606 -0.11928,0.31238 0,0.12495 0.0285,0.21959 0.0852,0.28397 0.0605,0.0605 0.15136,0.0909 0.27262,0.0909 z m 3.10444,0.44868 v -2.98745 h 0.49413 l 0.0625,0.36349 h 0.0341 c 0.0758,-0.12871 0.17237,-0.23286 0.28965,-0.31237 0.12126,-0.0796 0.25928,-0.11927 0.41461,-0.11927 0.14767,0 0.27631,0.034 0.38621,0.10217 0.1099,0.0682 0.1931,0.17986 0.2499,0.3351 0.0796,-0.12872 0.18374,-0.23286 0.31238,-0.31237 0.13262,-0.0833 0.28199,-0.12496 0.44868,-0.12496 0.14,0 0.26496,0.0303 0.37485,0.0909 0.1099,0.0605 0.1951,0.15903 0.25559,0.29534 0.0645,0.13253 0.0966,0.31805 0.0966,0.55659 v 2.1128 h -0.60772 v -1.98217 c 0,-0.19687 -0.0321,-0.33318 -0.0966,-0.40892 -0.0605,-0.0758 -0.14766,-0.11359 -0.26126,-0.11359 -0.11728,0 -0.2215,0.0587 -0.31237,0.17607 -0.0871,0.11358 -0.13064,0.26884 -0.13064,0.46573 v 1.86288 h -0.60202 v -1.98217 c 0,-0.19687 -0.0321,-0.33318 -0.0966,-0.40892 -0.0605,-0.0758 -0.14767,-0.11359 -0.26126,-0.11359 -0.12495,0 -0.23087,0.0605 -0.31805,0.18174 -0.0832,0.12118 -0.12495,0.28399 -0.12495,0.48845 v 1.83449 z m 5.10536,0.0681 c -0.37882,0 -0.66451,-0.12495 -0.85761,-0.37485 -0.19311,-0.25368 -0.28966,-0.64937 -0.28966,-1.18703 0,-0.53765 0.0965,-0.93144 0.28966,-1.18134 0.1931,-0.25369 0.47879,-0.38054 0.85761,-0.38054 0.38223,0 0.67019,0.12685 0.8633,0.38054 0.1931,0.2499 0.28965,0.64369 0.28965,1.18134 0,0.53766 -0.0966,0.93335 -0.28965,1.18703 -0.19311,0.2499 -0.48107,0.37485 -0.8633,0.37485 z m 0,-0.51684 c 0.18175,0 0.31237,-0.0796 0.3919,-0.23854 0.0832,-0.15903 0.12494,-0.39189 0.12494,-0.69859 v -0.21582 c 0,-0.3067 -0.0418,-0.53956 -0.12494,-0.69858 -0.0796,-0.15903 -0.21015,-0.23854 -0.3919,-0.23854 -0.18175,0 -0.31435,0.0796 -0.39756,0.23854 -0.0796,0.15902 -0.11927,0.39188 -0.11927,0.69858 v 0.21582 c 0,0.3067 0.0397,0.53956 0.11927,0.69859 0.0832,0.15903 0.21581,0.23854 0.39756,0.23854 z m 2.31897,0.44869 -0.90305,-2.98746 h 0.64746 l 0.3919,1.3631 c 0.019,0.0567 0.038,0.12874 0.0567,0.21583 0.0189,0.0871 0.038,0.17606 0.0567,0.26694 0.019,0.0871 0.034,0.1647 0.0454,0.23285 0.0153,0.0682 0.0267,0.1117 0.034,0.13064 h 0.0227 c 0.005,-0.0189 0.0114,-0.0625 0.0227,-0.13064 0.0153,-0.0682 0.0304,-0.14388 0.0454,-0.22717 0.019,-0.0871 0.0381,-0.17416 0.0567,-0.26126 0.019,-0.0909 0.038,-0.16849 0.0567,-0.23287 l 0.38621,-1.35742 h 0.61338 l -0.90304,2.98746 z m 1.91088,0 v -2.98746 h 0.60204 v 2.98746 z m -0.0114,-3.49292 v -0.61341 h 0.61907 v 0.61341 z m 2.13863,3.56107 c -0.29164,0 -0.52251,-0.12495 -0.6929,-0.37485 -0.17039,-0.2499 -0.25558,-0.64746 -0.25558,-1.1927 0,-0.3635 0.0397,-0.65883 0.11927,-0.88601 0.0796,-0.23097 0.18912,-0.39949 0.32942,-0.50549 0.14,-0.10981 0.29532,-0.16471 0.46571,-0.16471 0.14768,0 0.28,0.0322 0.39758,0.0966 0.11727,0.0644 0.20248,0.15525 0.25559,0.27261 h 0.0285 v -1.41989 h 0.60771 v 4.10633 h -0.49412 l -0.0681,-0.36348 h -0.0285 c -0.0722,0.14388 -0.16669,0.25179 -0.28397,0.32373 -0.1136,0.0719 -0.24054,0.10791 -0.38054,0.10791 z m 0.16471,-0.55091 c 0.17039,0 0.29336,-0.0758 0.36917,-0.22719 0.0756,-0.15524 0.11359,-0.38053 0.11359,-0.67587 v -0.19878 c 0,-0.29911 -0.038,-0.5263 -0.11359,-0.68154 -0.0758,-0.15903 -0.19878,-0.23854 -0.36917,-0.23854 -0.1667,0 -0.28965,0.0758 -0.36918,0.22717 -0.0758,0.14767 -0.11358,0.37295 -0.11358,0.67587 v 0.21582 c 0,0.30293 0.0378,0.53011 0.11358,0.68155 0.0796,0.14767 0.20248,0.22151 0.36918,0.22151 z m 2.79605,0.55091 c -0.37854,0 -0.6645,-0.12495 -0.85761,-0.37485 -0.19311,-0.25368 -0.28966,-0.64937 -0.28966,-1.18703 0,-0.53765 0.0966,-0.93144 0.28966,-1.18134 0.19311,-0.25369 0.47907,-0.38054 0.85761,-0.38054 0.38251,0 0.6702,0.12685 0.86329,0.38054 0.19311,0.2499 0.28967,0.64369 0.28967,1.18134 0,0.53766 -0.0966,0.93335 -0.28967,1.18703 -0.19309,0.2499 -0.48078,0.37485 -0.86329,0.37485 z m 0,-0.51684 c 0.18174,0 0.31238,-0.0796 0.39189,-0.23854 0.0835,-0.15903 0.12495,-0.39189 0.12495,-0.69859 v -0.21582 c 0,-0.3067 -0.0414,-0.53956 -0.12495,-0.69858 -0.0796,-0.15903 -0.21015,-0.23854 -0.39189,-0.23854 -0.18174,0 -0.31407,0.0796 -0.39757,0.23854 -0.0796,0.15902 -0.11927,0.39188 -0.11927,0.69858 v 0.21582 c 0,0.3067 0.0397,0.53956 0.11927,0.69859 0.0835,0.15903 0.21583,0.23854 0.39757,0.23854 z m 1.67746,0.44869 v -0.7213 h 0.70427 v 0.7213 z"
       fill="#00317b"
       id="path1-5"
       style="stroke-width:0.283978" />
  </g>
</svg>
