<?xml version="1.0" encoding="UTF-8" standalone="no"?>
<!-- Created with Inkscape (http://www.inkscape.org/) -->

<svg
   width="256"
   height="256"
   viewBox="0 0 67.733332 67.733333"
   version="1.1"
   id="svg1"
   inkscape:version="1.4 (86a8ad7, 2024-10-11)"
   sodipodi:docname="AdminMenuIcon.svg"
   xmlns:inkscape="http://www.inkscape.org/namespaces/inkscape"
   xmlns:sodipodi="http://sodipodi.sourceforge.net/DTD/sodipodi-0.dtd"
   xmlns="http://www.w3.org/2000/svg"
   xmlns:svg="http://www.w3.org/2000/svg">
  <sodipodi:namedview
     id="namedview1"
     pagecolor="#505050"
     bordercolor="#eeeeee"
     borderopacity="1"
     inkscape:showpageshadow="0"
     inkscape:pageopacity="0"
     inkscape:pagecheckerboard="0"
     inkscape:deskcolor="#505050"
     inkscape:document-units="px"
     showguides="true"
     inkscape:zoom="1.5274611"
     inkscape:cx="151.88603"
     inkscape:cy="126.02612"
     inkscape:window-width="1366"
     inkscape:window-height="705"
     inkscape:window-x="-8"
     inkscape:window-y="-8"
     inkscape:window-maximized="1"
     inkscape:current-layer="layer1" />
  <defs
     id="defs1">
    <inkscape:path-effect
       effect="fillet_chamfer"
       id="path-effect15"
       is_visible="true"
       lpeversion="1"
       nodesatellites_param="F,0,0,1,0,1.3229166,0,1 @ F,0,0,1,0,1.3229166,0,1 @ F,0,0,1,0,1.3229166,0,1 @ F,0,0,1,0,1.3229166,0,1 @ F,0,0,1,0,1.3229166,0,1 @ F,0,0,1,0,1.3229166,0,1 @ F,0,0,1,0,1.3229166,0,1 @ F,0,0,1,0,1.3229166,0,1 @ F,0,0,1,0,1.3229166,0,1 @ F,0,0,1,0,1.3229166,0,1 @ F,0,0,1,0,1.3229166,0,1 @ F,0,0,1,0,1.3229166,0,1 @ F,0,0,1,0,1.3229166,0,1 @ F,0,0,1,0,1.3229166,0,1 @ F,0,0,1,0,1.3229166,0,1 @ F,0,0,1,0,1.3229166,0,1 @ F,0,0,1,0,1.3229166,0,1 @ F,0,0,1,0,1.3229166,0,1 @ F,0,0,1,0,1.3229166,0,1 @ F,0,0,1,0,1.3229166,0,1 @ F,0,0,1,0,1.3229166,0,1 @ F,0,0,1,0,1.3229166,0,1 @ F,0,0,1,0,1.3229166,0,1 @ F,0,0,1,0,1.3229166,0,1 @ F,0,0,1,0,1.3229166,0,1 @ F,0,0,1,0,1.3229166,0,1 @ F,0,0,1,0,1.3229166,0,1 @ F,0,0,1,0,1.3229166,0,1 @ F,0,0,1,0,1.3229166,0,1 @ F,0,0,1,0,1.3229166,0,1 @ F,0,0,1,0,1.3229166,0,1 @ F,0,0,1,0,1.3229166,0,1 | F,0,0,1,0,1.3229166,0,1 @ F,0,0,1,0,1.3229166,0,1 | F,0,0,1,0,1.3229166,0,1 @ F,0,0,1,0,1.3229166,0,1 @ F,0,0,1,0,1.3229166,0,1 @ F,0,0,1,0,1.3229166,0,1 | F,0,0,1,0,1.3229166,0,1 @ F,0,0,1,0,1.3229166,0,1 @ F,0,0,1,0,1.3229166,0,1 @ F,0,0,1,0,1.3229166,0,1 | F,0,0,1,0,1.3229166,0,1 @ F,0,0,1,0,1.3229166,0,1 @ F,0,0,1,0,1.3229166,0,1 | F,0,0,1,0,1.3229166,0,1 @ F,0,0,1,0,1.3229166,0,1 @ F,0,0,1,0,1.3229166,0,1"
       radius="5"
       unit="px"
       method="auto"
       mode="F"
       chamfer_steps="1"
       flexible="false"
       use_knot_distance="true"
       apply_no_radius="true"
       apply_with_radius="true"
       only_selected="false"
       hide_knots="false" />
    <inkscape:path-effect
       effect="fillet_chamfer"
       id="path-effect14"
       is_visible="true"
       lpeversion="1"
       nodesatellites_param="F,0,0,1,0,0,0,1 @ F,0,0,1,0,0,0,1 @ F,0,0,1,0,0.74968474,0,1 @ F,0,0,1,0,0.7496855,0,1"
       radius="0"
       unit="px"
       method="auto"
       mode="F"
       chamfer_steps="1"
       flexible="false"
       use_knot_distance="true"
       apply_no_radius="true"
       apply_with_radius="true"
       only_selected="false"
       hide_knots="false" />
    <inkscape:path-effect
       effect="fillet_chamfer"
       id="path-effect10"
       is_visible="true"
       lpeversion="1"
       nodesatellites_param="F,0,0,1,0,2.6458333,0,1 @ F,0,0,1,0,2.6458333,0,1 @ F,0,0,1,0,2.6458333,0,1 @ F,0,0,1,0,2.6458333,0,1"
       radius="10"
       unit="px"
       method="auto"
       mode="F"
       chamfer_steps="1"
       flexible="false"
       use_knot_distance="true"
       apply_no_radius="true"
       apply_with_radius="true"
       only_selected="false"
       hide_knots="false" />
    <inkscape:path-effect
       effect="fillet_chamfer"
       id="path-effect7"
       is_visible="true"
       lpeversion="1"
       nodesatellites_param="F,0,0,1,0,4.36304,0,1 @ F,0,0,1,0,0,0,1 @ F,0,0,1,0,0,0,1 @ F,0,0,1,0,2.617927,0,1 @ F,0,0,1,0,2.617929,0,1 @ F,0,0,1,0,0,0,1 @ F,0,0,1,0,0,0,1 @ F,0,0,1,0,4.363042,0,1"
       radius="0"
       unit="px"
       method="auto"
       mode="F"
       chamfer_steps="1"
       flexible="false"
       use_knot_distance="true"
       apply_no_radius="true"
       apply_with_radius="true"
       only_selected="false"
       hide_knots="false" />
    <inkscape:path-effect
       effect="fillet_chamfer"
       id="path-effect5"
       is_visible="true"
       lpeversion="1"
       nodesatellites_param="F,0,0,1,0,1.3229166,0,1 @ F,0,0,1,0,1.3229166,0,1 @ F,0,0,1,0,1.3229166,0,1 @ F,0,0,1,0,1.3229166,0,1"
       radius="5"
       unit="px"
       method="auto"
       mode="F"
       chamfer_steps="1"
       flexible="false"
       use_knot_distance="true"
       apply_no_radius="true"
       apply_with_radius="true"
       only_selected="false"
       hide_knots="false" />
    <inkscape:path-effect
       effect="fillet_chamfer"
       id="path-effect4"
       is_visible="true"
       lpeversion="1"
       nodesatellites_param="F,0,0,1,0,16.195856,0,1 @ F,0,0,1,0,16.195856,0,1 @ F,0,0,1,0,11.055124,0,1 @ F,0,1,1,0,11.055124,0,1"
       radius="0"
       unit="px"
       method="auto"
       mode="F"
       chamfer_steps="1"
       flexible="false"
       use_knot_distance="true"
       apply_no_radius="true"
       apply_with_radius="true"
       only_selected="false"
       hide_knots="false" />
    <inkscape:path-effect
       effect="fillet_chamfer"
       id="path-effect3"
       is_visible="true"
       lpeversion="1"
       nodesatellites_param="F,0,0,1,0,2.6458333,0,1 @ F,0,0,1,0,2.6458333,0,1 @ F,0,0,1,0,2.6458333,0,1 @ F,0,0,1,0,2.6458333,0,1 @ F,0,0,1,0,2.6458333,0,1 @ F,0,0,1,0,2.6458333,0,1 @ F,0,0,1,0,2.6458333,0,1 @ F,0,0,1,0,2.6458333,0,1 @ F,0,0,1,0,2.6458333,0,1 @ F,0,0,1,0,2.6458333,0,1 @ F,0,0,1,0,2.6458333,0,1 @ F,0,0,1,0,2.6458333,0,1 @ F,0,0,1,0,2.6458333,0,1 @ F,0,0,1,0,2.6458333,0,1 @ F,0,0,1,0,2.6458333,0,1 @ F,0,0,1,0,2.6458333,0,1 @ F,0,0,1,0,2.6458333,0,1 @ F,0,0,1,0,2.6458333,0,1 @ F,0,0,1,0,2.6458333,0,1 @ F,0,0,1,0,2.6458333,0,1 @ F,0,0,1,0,2.6458333,0,1 @ F,0,0,1,0,2.6458333,0,1 @ F,0,0,1,0,2.6458333,0,1 @ F,0,0,1,0,2.6458333,0,1 @ F,0,0,1,0,2.6458333,0,1 @ F,0,0,1,0,2.6458333,0,1 @ F,0,0,1,0,2.6458333,0,1 @ F,0,0,1,0,2.6458333,0,1 @ F,0,0,1,0,2.6458333,0,1 @ F,0,0,1,0,2.6458333,0,1 @ F,0,0,1,0,2.6458333,0,1 @ F,0,0,1,0,2.6458333,0,1 | F,0,0,1,0,2.6458333,0,1 @ F,0,0,1,0,2.6458333,0,1 | F,0,0,1,0,2.6458333,0,1 @ F,0,0,1,0,2.6458333,0,1 @ F,0,0,1,0,2.6458333,0,1 @ F,0,0,1,0,2.6458333,0,1 | F,0,0,1,0,2.6458333,0,1 @ F,0,0,1,0,2.6458333,0,1 @ F,0,0,1,0,2.6458333,0,1"
       radius="10"
       unit="px"
       method="auto"
       mode="F"
       chamfer_steps="1"
       flexible="false"
       use_knot_distance="true"
       apply_no_radius="true"
       apply_with_radius="true"
       only_selected="false"
       hide_knots="false" />
    <inkscape:path-effect
       effect="fillet_chamfer"
       id="path-effect5-8"
       is_visible="true"
       lpeversion="1"
       nodesatellites_param="F,0,0,1,0,0,0,1 @ F,0,0,1,0,0,0,1 @ F,0,0,1,0,0,0,1 @ F,0,0,1,0,0,0,1"
       radius="0"
       unit="px"
       method="auto"
       mode="F"
       chamfer_steps="1"
       flexible="false"
       use_knot_distance="true"
       apply_no_radius="true"
       apply_with_radius="true"
       only_selected="false"
       hide_knots="false" />
    <inkscape:path-effect
       effect="fillet_chamfer"
       id="path-effect5-7"
       is_visible="true"
       lpeversion="1"
       nodesatellites_param="F,0,0,1,0,1.3229166,0,1 @ F,0,0,1,0,1.3229166,0,1 @ F,0,0,1,0,1.3229166,0,1 @ F,0,0,1,0,1.3229166,0,1"
       radius="5"
       unit="px"
       method="auto"
       mode="F"
       chamfer_steps="1"
       flexible="false"
       use_knot_distance="true"
       apply_no_radius="true"
       apply_with_radius="true"
       only_selected="false"
       hide_knots="false" />
    <inkscape:path-effect
       effect="fillet_chamfer"
       id="path-effect14-8"
       is_visible="true"
       lpeversion="1"
       nodesatellites_param="F,0,0,1,0,0,0,1 @ F,0,0,1,0,0,0,1 @ F,0,0,1,0,0.74968474,0,1 @ F,0,0,1,0,0.7496855,0,1"
       radius="0"
       unit="px"
       method="auto"
       mode="F"
       chamfer_steps="1"
       flexible="false"
       use_knot_distance="true"
       apply_no_radius="true"
       apply_with_radius="true"
       only_selected="false"
       hide_knots="false" />
  </defs>
  <g
     inkscape:label="Capa 1"
     inkscape:groupmode="layer"
     id="layer1">
    <path
       id="path3"
       style="display:inline;opacity:1;fill:#999999;fill-opacity:1;stroke:#ffffff;stroke-width:0;stroke-linejoin:round;paint-order:stroke markers fill"
       d="m 43.375038,2.6228705 -3.700366,4.0482652 a 3.001528,3.001528 156.21462 0 1 -2.215461,0.9764594 h -7.18509 A 3.0017659,3.0017659 23.783701 0 1 28.058603,6.671188 L 24.389358,2.6574414 C 23.896388,2.1181867 22.932712,1.8626504 22.247716,2.1166741 21.359841,2.4459333 20.486165,2.8122874 19.628995,3.2147699 18.967688,3.5252847 18.469314,4.3919811 18.502018,5.1218754 l 0.242269,5.4069726 a 3.0020507,3.0020507 111.21617 0 1 -0.876193,2.257069 l -5.080179,5.080558 A 3.0015109,3.0015109 158.78337 0 1 10.530919,18.74266 L 5.1229055,18.500028 c -0.7298925,-0.03275 -1.5966349,0.465569 -1.9072096,1.126849 -0.4025879,0.857195 -0.7690438,1.7309 -1.0984008,2.61881 -0.2540808,0.684974 0.00143,1.648615 0.5407016,2.141562 l 4.0141863,3.669329 a 3.0015905,3.0015905 66.215064 0 1 0.9764456,2.215476 v 7.184574 a 3.0018152,3.0018152 113.78335 0 1 -0.9763963,2.21553 l -4.0153184,3.670771 c -0.5392488,0.492976 -0.7947785,1.456658 -0.5407528,2.141653 0.3291279,0.887512 0.6953203,1.760837 1.0976122,2.617671 0.3104943,0.661316 1.1771729,1.159668 1.9070655,1.126925 l 5.4090462,-0.242647 a 3.0015338,3.0015338 21.216795 0 1 2.256997,0.876192 l 5.080179,5.080558 a 3.0018597,3.0018597 68.785171 0 1 0.876131,2.257066 l -0.242663,5.410079 c -0.03274,0.729893 0.465585,1.596635 1.126865,1.907209 0.856702,0.402354 1.729896,0.768619 2.61728,1.097828 0.684961,0.254112 1.64862,-0.0013 2.141599,-0.540591 l 3.671281,-4.015842 a 3.001832,3.001832 156.21677 0 1 2.215534,-0.976393 l 7.184573,0 a 3.0016731,3.0016731 23.784355 0 1 2.215496,0.976428 l 3.671873,4.016805 c 0.492958,0.539267 1.456608,0.794761 2.141581,0.540676 0.887185,-0.329095 1.760188,-0.695227 2.61671,-1.097434 0.661298,-0.310533 1.159638,-1.177243 1.126902,-1.907136 l -0.24267,-5.410595 a 3.0017206,3.0017206 111.21598 0 1 0.876169,-2.257031 l 5.080628,-5.080628 a 3.0017206,3.0017206 158.78402 0 1 2.257031,-0.876169 l 5.410595,0.24267 c 0.729893,0.03274 1.596588,-0.465613 1.907102,-1.126921 0.402249,-0.856678 0.768412,-1.729842 1.097523,-2.61719 0.254055,-0.684983 -0.0015,-1.648618 -0.540776,-2.141548 l -4.016198,-3.67094 a 3.0014651,3.0014651 66.21418 0 1 -0.976473,-2.215446 v -7.184574 a 3.0017676,3.0017676 113.78369 0 1 0.976407,-2.215519 l 4.04992,-3.702316 c 0.539255,-0.492971 0.796895,-1.45732 0.545427,-2.143259 -0.3212,-0.876146 -0.678475,-1.738644 -1.07091,-2.585283 -0.307238,-0.662835 -1.171332,-1.162542 -1.901225,-1.12981 l -5.480876,0.245787 a 3.0017459,3.0017459 21.216162 0 1 -2.257031,-0.876177 l -5.08011,-5.080111 a 3.0017238,3.0017238 68.784002 0 1 -0.87617,-2.257031 L 49.234358,5.0500426 C 49.267093,4.3201496 48.767398,3.4560383 48.104572,3.1487785 47.257596,2.7561543 46.394747,2.3987187 45.518238,2.0773882 44.8323,1.8259218 43.867976,2.0835868 43.375038,2.6228705 Z M 57.83988,9.9461626 C 57.78717,9.8939696 57.78717,9.8939696 57.78717,9.8939696 Z M 35.188635,14.066251 c 9.906113,0.651553 17.826902,8.572347 18.478447,18.478462 0.04794,0.728912 0.04794,1.915001 -10e-7,2.643922 -0.651553,9.906113 -8.572347,17.826902 -18.478462,18.478447 -0.728912,0.04794 -1.915001,0.04794 -2.643922,-10e-7 -9.906113,-0.651553 -17.826902,-8.572347 -18.478447,-18.478462 -0.04794,-0.728912 -0.04794,-1.915001 10e-7,-2.643922 0.651553,-9.906113 8.572347,-17.826902 18.478462,-18.478447 0.728912,-0.04794 1.915001,-0.04794 2.643922,10e-7 z m 32.54263,19.829354 c 0.0021,-0.02894 0.0021,-0.02894 0.0021,-0.02894 -0.0021,-0.08423 -0.0021,-0.08423 -0.0021,-0.08423 v -10e-7 z M 0,33.866666 c 0.00103353,0.01447 0.00103353,0.01447 0.00103353,0.01447 v -0.02894 z m 33.866668,33.866666 c 0.04341,-0.0031 0.04341,-0.0031 0.04341,-0.0031 h -0.08682 z"
       inkscape:path-effect="#path-effect15"
       inkscape:original-d="m 44.267582,1.6464111 -5.485454,6.001184 H 28.951204 L 23.496757,1.6810343 a 33.866665,33.866665 0 0 0 -5.053955,2.1192505 l 0.360701,8.0501542 -6.950997,6.951514 -8.0511877,-0.361218 A 33.866665,33.866665 0 0 0 1.6815511,23.49469 l 5.9670775,5.454447 v 9.830408 l -5.968111,5.455997 a 33.866665,33.866665 0 0 0 2.1187337,5.052922 l 8.0522217,-0.361219 6.950997,6.951514 -0.361219,8.053255 a 33.866665,33.866665 0 0 0 5.052405,2.119251 l 5.456515,-5.968628 h 9.830407 l 5.457031,5.969661 a 33.866665,33.866665 0 0 0 5.051888,-2.118734 l -0.361218,-8.053771 6.951514,-6.951514 8.053771,0.361218 a 33.866665,33.866665 0 0 0 2.118734,-5.052404 l -5.969144,-5.455998 v -9.830408 l 6.002734,-5.48752 A 33.866665,33.866665 0 0 0 64.004361,18.438151 L 55.880309,18.80247 48.929313,11.851473 49.293631,3.7284545 A 33.866665,33.866665 0 0 0 44.267582,1.6464111 Z m 13.519588,8.2475585 0.05271,0.052193 A 33.866665,33.866665 0 0 0 57.78717,9.8939696 Z M 33.866666,14.022916 a 19.84375,19.84375 0 0 1 19.84375,19.84375 19.84375,19.84375 0 0 1 -19.84375,19.84375 19.84375,19.84375 0 0 1 -19.84375,-19.84375 19.84375,19.84375 0 0 1 19.84375,-19.84375 z m 33.864599,19.759518 v 0.113171 a 33.866665,33.866665 0 0 0 0.0021,-0.02894 33.866665,33.866665 0 0 0 -0.0021,-0.08423 z M 0.00103353,33.852197 A 33.866665,33.866665 0 0 0 0,33.866666 33.866665,33.866665 0 0 0 0.00103353,33.881136 Z M 33.823258,67.730232 a 33.866665,33.866665 0 0 0 0.04341,0.0031 33.866665,33.866665 0 0 0 0.04341,-0.0031 z" />
    <path
       id="path4"
       style="opacity:1;fill:#999999;fill-opacity:1;stroke:#ffffff;stroke-width:0;stroke-linejoin:round;paint-order:stroke markers fill"
       d="M 33.829976 16.247587 C 30.484542 16.247555 27.772581 18.959526 27.772465 22.305098 C 27.772433 25.650776 30.484439 28.363158 33.829976 28.363126 C 37.175516 28.363158 39.888036 25.650776 39.888004 22.305098 C 39.887888 18.959526 37.175412 16.247555 33.829976 16.247587 z M 29.523262 21.172868 L 32.962845 21.172868 L 34.770487 21.172868 L 38.21007 21.172868 L 38.21007 23.021334 A 0.74968474 0.74968474 0 0 1 37.460762 23.771159 L 35.520312 23.771159 A 0.7496855 0.7496855 0 0 1 34.770487 23.021334 L 34.770487 21.905639 L 32.962845 21.905639 L 32.962845 23.021334 A 0.74968474 0.74968474 0 0 1 32.21302 23.771159 L 30.27257 23.771159 A 0.7496855 0.7496855 0 0 1 29.523262 23.021334 L 29.523262 21.172868 z " />
    <path
       id="rect7"
       style="opacity:1;fill:#999999;stroke:#ffffff;stroke-width:0;stroke-linejoin:round;paint-order:stroke markers fill"
       d="m 24.749032,30.139883 18.235268,0 a 2.299488,2.299488 49.006166 0 1 2.27704,2.620005 L 42.379398,53.234 a 3.0443446,3.0443446 139.00617 0 1 -3.014626,2.620005 H 28.36856 A 3.0443446,3.0443446 40.993834 0 1 25.353934,53.234 L 22.471992,32.759888 a 2.299488,2.299488 130.99383 0 1 2.27704,-2.620005 z"
       sodipodi:nodetypes="ccccc"
       inkscape:path-effect="#path-effect10"
       inkscape:original-d="M 22.103199,30.139883 H 45.630133 L 42.010605,55.854005 H 25.722727 Z"
       transform="matrix(0.78759549,0,0,0.78759549,7.1568028,7.3318123)" />
    <path
       id="rect8-2"
       style="fill:#999999;fill-opacity:1;stroke:#ffffff;stroke-width:2.08384;stroke-linejoin:round;stroke-dasharray:none;paint-order:stroke markers fill"
       d="m 31.069754,44.987963 2.796912,-12.483123 2.723653,12.409862 -2.796912,2.932751 z"
       sodipodi:nodetypes="ccccc" />
    <path
       id="rect8"
       style="opacity:1;fill:#999999;fill-opacity:1;stroke:#ffffff;stroke-width:2.08384;stroke-linejoin:round;stroke-dasharray:none;paint-order:stroke markers fill"
       d="m 32.019287,30.120219 -0.949533,0.949534 2.796912,2.796913 2.723653,-2.723653 -1.022795,-1.022794 z" />
  </g>
</svg>
