<svg width="34" height="34" viewBox="0 0 34 34" fill="none" xmlns="http://www.w3.org/2000/svg">
<path d="M21.8105 9.79199L16.9995 14.603L12.1885 9.79199L9.7915 12.189L14.6025 17L9.7915 21.811L12.1885 24.208L16.9995 19.397L21.8105 24.208L24.2075 21.811L19.3965 17L24.2075 12.189L21.8105 9.79199Z" fill="white"/>
<path d="M17 6.18965e-05C12.461 6.18965e-05 8.194 1.76806 4.981 4.98106C1.768 8.19406 0 12.4611 0 17.0001C0 21.5391 1.768 25.8061 4.981 29.0191C8.296 32.3341 12.648 33.9831 17 33.9831C21.352 33.9831 25.704 32.3341 29.019 29.0191C32.334 25.7041 34 21.5391 34 17.0001C34 12.4611 32.232 8.19406 29.019 4.98106C27.4447 3.39706 25.5717 2.14118 23.5086 1.28617C21.4455 0.431157 19.2333 -0.00598551 17 6.18965e-05ZM26.622 26.6221C21.318 31.9261 12.699 31.9261 7.395 26.6221C4.828 24.0551 3.417 20.6381 3.417 17.0001C3.417 13.3621 4.828 9.94506 7.395 7.37806C9.962 4.81106 13.379 3.40006 17.017 3.40006C20.655 3.40006 24.072 4.81106 26.639 7.37806C29.206 9.94506 30.617 13.3621 30.617 17.0001C30.617 20.6381 29.206 24.0551 26.639 26.6221H26.622Z" fill="white"/>
</svg>