<svg width="45" height="45" viewBox="0 0 45 45" fill="none" xmlns="http://www.w3.org/2000/svg">
<path d="M22.5 45C34.9264 45 45 34.9264 45 22.5C45 10.0736 34.9264 0 22.5 0C10.0736 0 0 10.0736 0 22.5C0 34.9264 10.0736 45 22.5 45Z" fill="url(#paint0_linear_626_305)"/>
<path d="M22.5 24.6971C15.5144 24.6971 9.72296 29.8006 8.64502 36.482C12.3305 40.1366 17.3098 42.1882 22.5 42.1908C27.6898 42.1898 32.6694 40.1402 36.356 36.4874C35.2803 29.8033 29.4874 24.6971 22.5 24.6971Z" fill="white"/>
<path d="M39.218 17.4453L36.3841 20.2792L33.5502 17.4453L31.7603 19.2352L34.5942 22.0692L31.7603 24.9031L33.55 26.6929L36.384 23.8589L39.218 26.693L41.0079 24.9031L38.1739 22.069L41.0078 19.2351L39.218 17.4453Z" fill="white"/>
<path d="M22.5001 8.51538C20.6456 8.51539 18.8671 9.25208 17.5558 10.5634C16.2445 11.8747 15.5078 13.6532 15.5078 15.5077C15.5078 17.3621 16.2445 19.1406 17.5558 20.4519C18.8671 21.7633 20.6456 22.4999 22.5001 22.4999C24.3546 22.4999 26.1331 21.7633 27.4444 20.4519C28.7557 19.1406 29.4924 17.3621 29.4924 15.5077C29.4924 13.6532 28.7557 11.8747 27.4444 10.5634C26.1331 9.25208 24.3546 8.51539 22.5001 8.51538Z" fill="white"/>
<defs>
<linearGradient id="paint0_linear_626_305" x1="30.5633" y1="1.49444" x2="14.4367" y2="43.5055" gradientUnits="userSpaceOnUse">
<stop stop-color="#CA1F1F"/>
<stop offset="0.387356" stop-color="#9A0026"/>
<stop offset="1" stop-color="#3C1729"/>
</linearGradient>
</defs>
</svg>
