<svg width="67" height="67" viewBox="0 0 67 67" fill="none" xmlns="http://www.w3.org/2000/svg">
<path d="M33.335 0C51.7454 0 66.6699 14.9246 66.6699 33.335C66.6699 51.7454 51.7454 66.6699 33.335 66.6699C14.9246 66.6699 0 51.7454 0 33.335C2.06163e-05 14.9246 14.9246 2.06175e-05 33.335 0ZM21.7393 38.3232C21.5672 38.4955 21.4452 38.7112 21.3857 38.9473L20 46L27.0508 44.6143C27.2875 44.5551 27.5046 44.4329 27.6768 44.2607L40.1768 31.7607L34.2393 25.8232L21.7393 38.3232ZM40.1768 21C39.4635 21 38.7798 21.2838 38.2754 21.7881L36.1416 23.9209L42.0791 29.8584L44.2119 27.7246C44.7162 27.2202 45 26.5365 45 25.8232C45 25.1099 44.7163 24.4254 44.2119 23.9209L42.0791 21.7881C41.5746 21.2837 40.8901 21 40.1768 21Z" fill="black"/>
</svg>
