<!DOCTYPE svg PUBLIC "-//W3C//DTD SVG 1.1//EN" "http://www.w3.org/Graphics/SVG/1.1/DTD/svg11.dtd">
<!-- Uploaded to: SVG Repo, www.svgrepo.com, Transformed by: SVG Repo Mixer Tools -->
<svg fill="#ffffff" height="256px" width="256px" version="1.1" id="Layer_1" xmlns="http://www.w3.org/2000/svg" xmlns:xlink="http://www.w3.org/1999/xlink" viewBox="0 0 481.81 481.81" xml:space="preserve" stroke="#ffffff" stroke-width="0.0048181000000000005" transform="rotate(0)">
<g id="SVGRepo_bgCarrier" stroke-width="0"/>
<g id="SVGRepo_tracerCarrier" stroke-linecap="round" stroke-linejoin="round"/>
<g id="SVGRepo_iconCarrier"> <g> <g> <path d="M477.986,413.648L324.612,260.274c-5.421-5.496-14.306-5.496-19.802,0l-3.388,3.388l-14.381-14.456 c44.122-62.344,37.195-148.48-17.242-202.993c-61.666-61.591-161.958-61.591-223.548,0c-61.666,61.666-61.666,161.958,0,223.624 c30.569,30.569,71.078,46.155,111.737,46.155c31.849,0,63.849-9.562,91.181-28.988l14.456,14.456l-3.388,3.388 c-5.421,5.496-5.496,14.381,0,19.802l153.374,153.374c1.581,1.581,4.668,3.765,9.638,3.765c1.581,0,3.388-0.226,5.346-0.753 c17.769-4.744,47.661-34.635,52.48-52.405C483.256,420.425,480.094,415.681,477.986,413.648z M238.475,238.514 c-22.136,22.212-51.351,33.28-80.489,33.28c-29.139,0-58.278-11.068-80.489-33.28c-44.348-44.348-44.348-116.631,0-160.979 c44.424-44.348,116.631-44.348,160.979,0C282.899,121.884,282.899,194.166,238.475,238.514z"/> </g> </g> </g>
</svg>