<svg width="25" height="23" viewBox="0 0 25 23" fill="none" xmlns="http://www.w3.org/2000/svg">
<g clip-path="url(#clip0_632_330)">
<path d="M12.5 2.68647e-10C12.18 -5.49081e-06 11.8659 0.0852828 11.5904 0.246986C11.3148 0.408689 11.0879 0.640895 10.9332 0.919429L0.238358 20.1784C0.077541 20.468 -0.00454854 20.7943 0.000194472 21.1251C0.00493748 21.4559 0.096349 21.7797 0.265403 22.0646C0.434458 22.3495 0.675309 22.5856 0.964176 22.7497C1.25304 22.9137 1.57994 23 1.91258 23H23.0874C23.4201 23 23.747 22.9137 24.0358 22.7497C24.3247 22.5856 24.5655 22.3495 24.7346 22.0646C24.9037 21.7797 24.9951 21.4559 24.9998 21.1251C25.0045 20.7943 24.9225 20.468 24.7616 20.1784L14.0668 0.919429C13.9121 0.640894 13.6852 0.408689 13.4096 0.246986C13.1341 0.0852828 12.82 -5.52711e-06 12.5 2.68647e-10ZM12.4851 4.34859H12.5149C13.0879 4.34859 13.6375 4.57498 14.0427 4.97796C14.4479 5.38093 14.6756 5.92749 14.6756 6.49738V13.4901C14.6756 14.06 14.4479 14.6066 14.0427 15.0095C13.6375 15.4125 13.0879 15.6389 12.5149 15.6389H12.4851C11.9121 15.6389 11.3625 15.4125 10.9573 15.0095C10.5521 14.6066 10.3244 14.06 10.3244 13.4901V6.49738C10.3244 5.92749 10.5521 5.38093 10.9573 4.97796C11.3625 4.57498 11.9121 4.34859 12.4851 4.34859ZM12.4851 17.131H12.5149C13.0879 17.131 13.6375 17.3574 14.0427 17.7604C14.4479 18.1633 14.6756 18.7099 14.6756 19.2798V19.3094C14.6756 19.5916 14.6197 19.871 14.5111 20.1317C14.4025 20.3924 14.2434 20.6293 14.0427 20.8288C13.8421 21.0283 13.6039 21.1866 13.3417 21.2946C13.0796 21.4026 12.7986 21.4582 12.5149 21.4582H12.4851C11.9121 21.4582 11.3625 21.2318 10.9573 20.8288C10.5521 20.4258 10.3244 19.8793 10.3244 19.3094V19.2798C10.3244 18.7099 10.5521 18.1633 10.9573 17.7604C11.3625 17.3574 11.9121 17.131 12.4851 17.131Z" fill="white"/>
</g>
<defs>
<clipPath id="clip0_632_330">
<rect width="25" height="23" fill="white"/>
</clipPath>
</defs>
</svg>
