<?xml version="1.0" encoding="UTF-8" standalone="no"?>
<!-- Created with Inkscape (http://www.inkscape.org/) -->

<svg
   width="480.45297"
   height="512.76965"
   viewBox="0 0 127.11984 135.67031"
   version="1.1"
   id="svg1"
   xml:space="preserve"
   inkscape:version="1.4 (86a8ad7, 2024-10-11)"
   sodipodi:docname="Eest2LogoBlanco.svg"
   inkscape:export-filename="Eest2LogoBlanco.png"
   inkscape:export-xdpi="96"
   inkscape:export-ydpi="96"
   xmlns:inkscape="http://www.inkscape.org/namespaces/inkscape"
   xmlns:sodipodi="http://sodipodi.sourceforge.net/DTD/sodipodi-0.dtd"
   xmlns="http://www.w3.org/2000/svg"
   xmlns:svg="http://www.w3.org/2000/svg"><sodipodi:namedview
     id="namedview1"
     pagecolor="#ffffff"
     bordercolor="#000000"
     borderopacity="0.25"
     inkscape:showpageshadow="2"
     inkscape:pageopacity="0.0"
     inkscape:pagecheckerboard="0"
     inkscape:deskcolor="#d1d1d1"
     inkscape:document-units="px"
     showguides="true"
     inkscape:zoom="0.76373055"
     inkscape:cx="236.3399"
     inkscape:cy="203.60584"
     inkscape:window-width="1366"
     inkscape:window-height="705"
     inkscape:window-x="-8"
     inkscape:window-y="-8"
     inkscape:window-maximized="1"
     inkscape:current-layer="layer2" /><defs
     id="defs1"><inkscape:path-effect
       effect="fillet_chamfer"
       id="path-effect13"
       is_visible="true"
       lpeversion="1"
       nodesatellites_param="F,0,0,1,0,32.808331,0,1 @ F,0,0,1,0,32.808331,0,1 @ F,0,0,1,0,32.808331,0,1 @ F,0,0,1,0,32.808331,0,1"
       radius="120"
       unit="px"
       method="auto"
       mode="F"
       chamfer_steps="1"
       flexible="false"
       use_knot_distance="true"
       apply_no_radius="true"
       apply_with_radius="true"
       only_selected="false"
       hide_knots="false" /><inkscape:path-effect
       effect="fillet_chamfer"
       id="path-effect12"
       is_visible="true"
       lpeversion="1"
       nodesatellites_param="F,0,0,1,0,0,0,1 @ F,0,0,1,0,0,0,1 @ F,0,0,1,0,0,0,1 @ F,0,0,1,0,0,0,1"
       radius="0"
       unit="px"
       method="auto"
       mode="F"
       chamfer_steps="1"
       flexible="false"
       use_knot_distance="true"
       apply_no_radius="true"
       apply_with_radius="true"
       only_selected="false"
       hide_knots="false" /><inkscape:path-effect
       effect="fillet_chamfer"
       id="path-effect11"
       is_visible="true"
       lpeversion="1"
       nodesatellites_param="F,0,0,1,0,0,0,1 @ F,0,0,1,0,0,0,1 @ F,0,0,1,0,16.488604,0,1 @ F,0,0,1,0,16.488596,0,1"
       radius="0"
       unit="px"
       method="auto"
       mode="F"
       chamfer_steps="1"
       flexible="false"
       use_knot_distance="true"
       apply_no_radius="true"
       apply_with_radius="true"
       only_selected="false"
       hide_knots="false" /><inkscape:path-effect
       effect="fillet_chamfer"
       id="path-effect10"
       is_visible="true"
       lpeversion="1"
       nodesatellites_param="F,0,0,1,0,0,0,1 @ F,0,0,1,0,0,0,1 @ F,0,0,1,0,0,0,1 @ F,0,0,1,0,0,0,1 @ F,0,0,1,0,0,0,1 @ F,0,0,1,0,0,0,1 @ F,0,0,1,0,3.3548388,0,1"
       radius="0"
       unit="px"
       method="auto"
       mode="F"
       chamfer_steps="1"
       flexible="false"
       use_knot_distance="true"
       apply_no_radius="true"
       apply_with_radius="true"
       only_selected="false"
       hide_knots="false" /><inkscape:path-effect
       effect="fillet_chamfer"
       id="path-effect5"
       is_visible="true"
       lpeversion="1"
       nodesatellites_param="F,0,0,1,0,8.1938705,0,1 @ F,0,0,1,0,8.2292374,0,1 @ F,0,0,1,0,8.0206528,0,1 @ F,0,0,1,0,7.9367928,0,1"
       radius="0"
       unit="px"
       method="auto"
       mode="F"
       chamfer_steps="1"
       flexible="false"
       use_knot_distance="true"
       apply_no_radius="true"
       apply_with_radius="true"
       only_selected="false"
       hide_knots="false" /><rect
       x="290.67844"
       y="277.58481"
       width="104.74899"
       height="118.49729"
       id="rect1" /><inkscape:path-effect
       effect="fillet_chamfer"
       id="path-effect4"
       is_visible="true"
       lpeversion="1"
       nodesatellites_param="F,0,0,1,0,0,0,1 @ F,0,0,1,0,0,0,1 @ F,0,0,1,0,0,0,1 @ F,0,0,1,0,0,0,1 @ F,0,0,1,0,0,0,1 @ F,0,0,1,0,0,0,1 @ F,0,0,1,0,3.4038736,0,1 @ F,0,0,1,0,3.3511378,0,1 @ F,0,0,1,0,0,0,1 @ F,0,0,1,0,0,0,1"
       radius="0"
       unit="px"
       method="auto"
       mode="F"
       chamfer_steps="1"
       flexible="false"
       use_knot_distance="true"
       apply_no_radius="true"
       apply_with_radius="true"
       only_selected="false"
       hide_knots="false" /><inkscape:path-effect
       effect="fillet_chamfer"
       id="path-effect3"
       is_visible="true"
       lpeversion="1"
       nodesatellites_param="F,0,0,1,0,0,0,1 @ F,0,0,1,0,0,0,1 @ F,0,0,1,0,0,0,1"
       radius="0"
       unit="px"
       method="auto"
       mode="F"
       chamfer_steps="1"
       flexible="false"
       use_knot_distance="true"
       apply_no_radius="true"
       apply_with_radius="true"
       only_selected="false"
       hide_knots="false" /><inkscape:path-effect
       effect="fillet_chamfer"
       id="path-effect2"
       is_visible="true"
       lpeversion="1"
       nodesatellites_param="F,0,0,1,0,8.843325,0,1 @ F,0,0,1,0,8.84333,0,1 @ F,0,0,1,0,0,0,1 @ F,0,0,1,0,5.2667871,0,1"
       radius="0"
       unit="px"
       method="auto"
       mode="F"
       chamfer_steps="1"
       flexible="false"
       use_knot_distance="true"
       apply_no_radius="true"
       apply_with_radius="true"
       only_selected="false"
       hide_knots="false" /><inkscape:path-effect
       effect="fillet_chamfer"
       id="path-effect1"
       is_visible="true"
       lpeversion="1"
       nodesatellites_param="F,0,0,1,0,0,0,1 @ F,0,0,1,0,0,0,1 @ F,0,0,1,0,0,0,1 @ F,0,0,1,0,0,0,1"
       radius="0"
       unit="px"
       method="auto"
       mode="F"
       chamfer_steps="1"
       flexible="false"
       use_knot_distance="true"
       apply_no_radius="true"
       apply_with_radius="true"
       only_selected="false"
       hide_knots="false" /></defs><g
     inkscape:label="Capa 1"
     inkscape:groupmode="layer"
     id="layer1"
     style="display:none"
     transform="translate(-4.1734079,0.10181902)"><rect
       style="fill:#1740c9;fill-opacity:1;stroke:#000000;stroke-width:0;stroke-linejoin:round;stroke-dasharray:none"
       id="rect2"
       width="127.11985"
       height="135.6703"
       x="4.173408"
       y="-0.10181902" /></g><g
     inkscape:groupmode="layer"
     id="layer2"
     inkscape:label="LOGO"
     transform="translate(-4.1734079,0.10181902)"
     style="display:inline"><path
       id="rect12"
       d="m 32.808331,0 h 69.849999 a 32.808331,32.808331 45 0 1 32.80833,32.808331 v 69.849999 a 32.808331,32.808331 135 0 1 -32.80833,32.80833 H 32.808331 A 32.808331,32.808331 45 0 1 0,102.65833 V 32.808331 A 32.808331,32.808331 135 0 1 32.808331,0 Z"
       style="display:inline;opacity:1;fill:#ffffff;fill-opacity:0;stroke:#ffffff;stroke-width:10.9304;stroke-miterlimit:2;stroke-dasharray:none;stroke-opacity:1"
       inkscape:path-effect="#path-effect13"
       inkscape:original-d="M 0,0 H 135.46666 V 135.46666 H 0 Z"
       transform="matrix(0.86832243,0,0,0.92672833,8.9189636,4.9629366)" /><path
       id="rect4"
       style="display:inline;fill:#ffffff;fill-opacity:1;stroke:#781f00;stroke-width:0;stroke-miterlimit:2;stroke-dasharray:none;stroke-opacity:1"
       d="m 79.898026,62.013203 h 22.211164 a 8.2292374,8.2292374 45 0 1 8.22924,8.229237 V 109.11 a 8.0206528,8.0206528 135 0 1 -8.02065,8.02065 H 79.640948 a 7.9367928,7.9367928 45 0 1 -7.936793,-7.93679 V 70.207073 a 8.1938705,8.1938705 135 0 1 8.193871,-8.19387 z"
       inkscape:path-effect="#path-effect5"
       inkscape:original-d="M 71.704155,62.013203 H 110.33843 V 117.13065 H 71.704155 Z" /><path
       id="path1"
       style="display:inline;fill:#ffffff;fill-opacity:1;stroke:#ffffff;stroke-width:0;stroke-opacity:1"
       d="M 35.226273,21.923726 A 9.921875,11.244792 0 0 0 25.304398,33.168518 9.921875,11.244792 0 0 0 35.226273,44.413309 9.921875,11.244792 0 0 0 45.148148,33.168518 9.921875,11.244792 0 0 0 35.226273,21.923726 Z M 34.48575,46.362027 c -0.302758,0.0045 -0.605495,0.02311 -0.906921,0.05633 -5.083689,0.561038 -8.764972,5.000973 -8.222238,9.916707 l 2.78691,25.246521 c 0.300106,2.590502 2.493683,4.577291 5.18573,4.696871 v 0.03307 c 0,0 6.073647,-0.157659 11.081494,-0.206705 4.774318,-0.04676 9.90352,-0.63315 11.315589,0.687813 1.380799,1.291712 1.814872,5.854076 2.364196,14.598596 0.294038,4.68071 0.507792,9.19026 0.635104,12.13362 0.08123,1.87797 1.660802,3.44736 3.539835,3.5047 l 3.296957,0.10077 c 1.849922,0.0564 3.350336,-1.39821 3.332613,-3.2489 -0.03042,-3.17717 -0.113804,-8.23601 -0.342098,-13.50254 C 68.211238,92.496424 69.155291,83.305321 61.868058,78.026244 57.524067,74.879336 50.277072,74.98411 46.073673,75.208845 L 44.392122,59.975667 c 1.973432,0.889788 4.118068,1.633999 6.377388,1.950268 8.702981,1.21828 17.859375,-1.043347 17.859375,-1.043347 2.135134,-0.494588 3.465176,-2.626265 2.970878,-4.761466 -0.49458,-2.135385 -2.626608,-3.465503 -4.761983,-2.970879 0,0 -8.481841,1.823978 -14.966528,0.916224 -2.025691,-0.283564 -5.331831,-1.762316 -7.877039,-3.247864 -2.868628,-1.696402 -5.144613,-4.01589 -8.601025,-4.42712 -0.3019,-0.02428 -0.60468,-0.03394 -0.907438,-0.02946 z" /><path
       style="display:inline;fill:#ffffff;fill-opacity:1"
       d="m 23.115234,56.761719 -3.964843,0.193359 c 0,0 0.434727,8.925537 0.609375,13.462891 0.110213,2.863346 0.111845,6.375264 0.49414,9.742187 0.382295,3.366923 1.076816,6.649759 3.072266,9.097656 2.129505,2.612348 5.036097,3.734431 7.849609,4.13086 2.813512,0.396429 5.634359,0.18651 8.181641,0.177734 4.68077,-0.01616 11.476562,-0.02539 11.476562,-0.02539 l -0.0059,-3.96875 c 0,0 -6.795553,0.0092 -11.484375,0.02539 -2.726947,0.0094 -5.385142,0.175277 -7.613281,-0.138672 C 29.50233,89.145036 27.803692,88.469088 26.402344,86.75 25.296466,85.393376 24.543894,82.765688 24.197266,79.712891 23.850638,76.660093 23.841244,73.245048 23.726562,70.265625 23.549874,65.675252 23.115234,56.761719 23.115234,56.761719 Z"
       id="path4" /><text
       xml:space="preserve"
       style="font-style:normal;font-variant:normal;font-weight:normal;font-stretch:normal;font-size:17.6389px;line-height:13.2292px;font-family:'Clarendon Black';-inkscape-font-specification:'Clarendon Black, Normal';font-variant-ligatures:normal;font-variant-caps:normal;font-variant-numeric:normal;font-variant-east-asian:normal;text-align:start;writing-mode:lr-tb;direction:ltr;text-anchor:start;display:inline;fill:#000000;fill-opacity:1;stroke:#fdfdfd;stroke-width:0.264583;stroke-dasharray:none;stroke-opacity:1"
       x="76.389015"
       y="78.66008"
       id="text1"><tspan
         sodipodi:role="line"
         id="tspan1"
         style="font-style:normal;font-variant:normal;font-weight:normal;font-stretch:normal;font-size:17.6389px;line-height:13.2292px;font-family:'Clarendon Black';-inkscape-font-specification:'Clarendon Black, Normal';font-variant-ligatures:normal;font-variant-caps:normal;font-variant-numeric:normal;font-variant-east-asian:normal;fill:#000000;fill-opacity:1;stroke:#fdfdfd;stroke-width:0.264583;stroke-dasharray:none;stroke-opacity:1"
         x="76.389015"
         y="78.66008">EE</tspan><tspan
         sodipodi:role="line"
         style="font-style:normal;font-variant:normal;font-weight:normal;font-stretch:normal;font-size:17.6389px;line-height:13.2292px;font-family:'Clarendon Black';-inkscape-font-specification:'Clarendon Black, Normal';font-variant-ligatures:normal;font-variant-caps:normal;font-variant-numeric:normal;font-variant-east-asian:normal;fill:#000000;fill-opacity:1;stroke:#fdfdfd;stroke-width:0.264583;stroke-dasharray:none;stroke-opacity:1"
         x="76.389015"
         y="91.889282"
         id="tspan2">ST</tspan><tspan
         sodipodi:role="line"
         style="font-style:normal;font-variant:normal;font-weight:normal;font-stretch:normal;font-size:17.6389px;line-height:13.2292px;font-family:'Clarendon Black';-inkscape-font-specification:'Clarendon Black, Normal';font-variant-ligatures:normal;font-variant-caps:normal;font-variant-numeric:normal;font-variant-east-asian:normal;fill:#000000;fill-opacity:1;stroke:#fdfdfd;stroke-width:0.264583;stroke-dasharray:none;stroke-opacity:1"
         x="76.389015"
         y="105.11848"
         id="tspan3">N°2</tspan></text><text
       xml:space="preserve"
       style="font-style:normal;font-variant:normal;font-weight:normal;font-stretch:normal;font-size:7.76111px;line-height:13.2292px;font-family:'Clarendon Black';-inkscape-font-specification:'Clarendon Black, Normal';font-variant-ligatures:normal;font-variant-caps:normal;font-variant-numeric:normal;font-variant-east-asian:normal;text-align:start;writing-mode:lr-tb;direction:ltr;text-anchor:start;display:inline;fill:#000000;fill-opacity:1;stroke:#fdfdfd;stroke-width:0.264583;stroke-dasharray:none;stroke-opacity:1"
       x="77.717033"
       y="114.26383"
       id="text4"><tspan
         sodipodi:role="line"
         id="tspan4"
         style="font-style:normal;font-variant:normal;font-weight:normal;font-stretch:normal;font-size:7.76111px;font-family:'Clarendon Black';-inkscape-font-specification:'Clarendon Black, Normal';font-variant-ligatures:normal;font-variant-caps:normal;font-variant-numeric:normal;font-variant-east-asian:normal;fill:#000000;fill-opacity:1;stroke:#fdfdfd;stroke-width:0.264583;stroke-dasharray:none;stroke-opacity:1"
         x="77.717033"
         y="114.26383">JUNÍN</tspan></text><path
       id="rect11"
       style="display:inline;fill:#ffffff;fill-opacity:1;stroke:#000000;stroke-width:0;stroke-miterlimit:2;stroke-opacity:1"
       d="m 95.095486,22.001241 -5.29115,32.549951 1.834514,0.298173 c 1.633961,-1.346784 3.33401,-6.88957 4.523238,-13.065353 l 4.974892,16.395382 H 87.907811 v 2.645833 h 13.229169 0.37155 c 1.85283,0 2.86776,-1.420831 2.28823,-3.180684 -2.37541,-7.21349 -4.503265,-14.510423 -6.680725,-21.787817 0.79654,-6.131642 0.920575,-11.788678 -0.186552,-13.557829 z m -18.390091,36.178153 0.03049,2.645833 8.053255,-1.322917 v 1.322917 h 1.801957 V 58.179394 H 84.78914 Z" /></g></svg>
