<?xml version="1.0" encoding="UTF-8" standalone="no"?>
<svg
   width="456.02411"
   height="238.7881"
   viewBox="0 0 456.02411 238.7881"
   fill="none"
   version="1.1"
   id="svg15"
   sodipodi:docname="404Text.svg"
   inkscape:version="1.4.2 (ebf0e940d0, 2025-05-08)"
   xmlns:inkscape="http://www.inkscape.org/namespaces/inkscape"
   xmlns:sodipodi="http://sodipodi.sourceforge.net/DTD/sodipodi-0.dtd"
   xmlns="http://www.w3.org/2000/svg"
   xmlns:svg="http://www.w3.org/2000/svg">
  <sodipodi:namedview
     id="namedview15"
     pagecolor="#505050"
     bordercolor="#eeeeee"
     borderopacity="1"
     inkscape:showpageshadow="0"
     inkscape:pageopacity="0"
     inkscape:pagecheckerboard="0"
     inkscape:deskcolor="#505050"
     inkscape:zoom="1.327451"
     inkscape:cx="228.63368"
     inkscape:cy="119.40177"
     inkscape:window-width="1366"
     inkscape:window-height="707"
     inkscape:window-x="0"
     inkscape:window-y="0"
     inkscape:window-maximized="1"
     inkscape:current-layer="svg15" />
  <path
     d="m 150.3231,65.8497 c -4.586,0 -8.985,1.822 -12.228,5.0652 -3.243,3.2432 -5.066,7.6422 -5.066,12.2282 v 138.351 c 0.001,4.587 1.823,8.986 5.066,12.229 3.243,3.243 7.642,5.065 12.228,5.065 h 155.377 c 4.587,0 8.986,-1.822 12.229,-5.065 3.243,-3.243 5.065,-7.642 5.065,-12.229 V 83.1431 c 0,-2.271 -0.447,-4.519 -1.316,-6.618 -0.869,-2.098 -2.143,-4.0043 -3.749,-5.6102 -1.606,-1.6059 -3.512,-2.8797 -5.611,-3.7488 -2.098,-0.8691 -4.347,-1.3164 -6.618,-1.3164 z m 29.267,33.9224 h 96.844 c 1.747,0 3.477,0.344 5.091,1.013 1.614,0.668 3.08,1.648 4.315,2.883 1.236,1.236 2.216,2.702 2.884,4.316 0.669,1.614 1.013,3.344 1.013,5.091 v 78.488 c 0,1.747 -0.344,3.476 -1.013,5.09 -0.668,1.614 -1.648,3.081 -2.884,4.316 -1.235,1.235 -2.701,2.215 -4.315,2.884 -1.614,0.668 -3.344,1.012 -5.091,1.012 h -96.844 c -1.747,0 -3.477,-0.344 -5.091,-1.012 -1.614,-0.669 -3.08,-1.649 -4.316,-2.884 -1.235,-1.235 -2.215,-2.702 -2.883,-4.316 -0.669,-1.614 -1.013,-3.343 -1.013,-5.09 v -78.488 c 0,-1.747 0.344,-3.477 1.013,-5.091 0.668,-1.614 1.648,-3.08 2.883,-4.316 1.236,-1.235 2.702,-2.215 4.316,-2.883 1.614,-0.669 3.344,-1.013 5.091,-1.013 z m 24.905,5.514 -23.516,23.516 23.516,23.517 -23.516,23.516 23.516,23.517 23.517,-23.517 23.516,23.517 23.517,-23.517 -23.517,-23.516 23.517,-23.517 -23.517,-23.516 -23.516,23.516 z"
     fill="url(#paint0_linear_846_678)"
     id="path1"
     style="fill:url(#paint0_linear_846_678)" />
  <path
     d="m 166.2871,33.2371 v 33.2778 h 123.45 V 33.2371 c 0,-4.3647 -0.86,-8.6868 -2.53,-12.7193 -1.671,-4.0325 -4.119,-7.6965 -7.205,-10.7828 -3.087,-3.0864 -6.751,-5.5346 -10.783,-7.2049 C 265.1861,0.8597 260.8641,0 256.5001,0 h -56.976 c -8.815,0 -17.269,3.5018 -23.502,9.735 -6.233,6.2331 -9.735,14.6871 -9.735,23.5021 z m 43.948,0.0204 h 35.987 c 2.72,0 5.329,1.0807 7.253,3.0044 1.924,1.9237 3.004,4.5328 3.004,7.2533 v 22.9997 h -56.935 v -22.567 c 0,-2.8353 1.127,-5.5544 3.131,-7.5593 2.005,-2.0048 4.724,-3.1311 7.56,-3.1311 z"
     fill="url(#paint1_linear_846_678)"
     id="path2"
     style="fill:url(#paint1_linear_846_678)" />
  <path
     d="m 0,66.0212 v 86.4689 c 0,8.821 3.5039,17.28 9.7409,23.517 6.2369,6.237 14.6961,9.741 23.5165,9.741 h 33.2574 v 53.04 H 99.7721 V 66.0212 H 66.5148 v 86.4689 H 49.8861 c -4.4102,0 -8.6398,-1.752 -11.7583,-4.87 -3.1185,-3.119 -4.8704,-7.348 -4.8704,-11.758 V 66.0212 Z"
     fill="url(#paint2_linear_846_678)"
     id="path3"
     style="fill:url(#paint2_linear_846_678)" />
  <path
     d="m 356.2521,66.0212 v 86.4689 c 0,8.821 3.504,17.28 9.741,23.517 6.237,6.237 14.696,9.741 23.516,9.741 h 33.257 v 53.04 h 33.258 V 66.0212 h -33.258 v 86.4689 h -16.628 c -4.41,0 -8.64,-1.752 -11.758,-4.87 -3.119,-3.119 -4.871,-7.348 -4.871,-11.758 V 66.0212 Z"
     fill="url(#paint3_linear_846_678)"
     id="path4"
     style="fill:url(#paint3_linear_846_678)" />
  <defs
     id="defs15">
    <linearGradient
       id="paint0_linear_846_678"
       x1="259.40799"
       y1="269.86301"
       x2="292.66501"
       y2="92.455597"
       gradientUnits="userSpaceOnUse"
       gradientTransform="translate(-26.6059,-26.6059)">
      <stop
         stop-color="#152083"
         id="stop4" />
      <stop
         offset="0.611952"
         stop-color="#0B60AC"
         id="stop5" />
      <stop
         offset="1"
         stop-color="#018FD8"
         id="stop6" />
    </linearGradient>
    <linearGradient
       id="paint1_linear_846_678"
       x1="254.618"
       y1="92.455597"
       x2="254.618"
       y2="25.9408"
       gradientUnits="userSpaceOnUse"
       gradientTransform="translate(-26.6059,-26.6059)">
      <stop
         stop-color="#0F2674"
         id="stop7" />
      <stop
         offset="0.753915"
         stop-color="#0764C7"
         id="stop8" />
      <stop
         offset="1"
         stop-color="#0081F6"
         id="stop9" />
    </linearGradient>
    <linearGradient
       id="paint2_linear_846_678"
       x1="63.580502"
       y1="227.19701"
       x2="89.403503"
       y2="130.82401"
       gradientUnits="userSpaceOnUse"
       gradientTransform="translate(-26.6059,-26.6059)">
      <stop
         stop-color="#152083"
         id="stop10" />
      <stop
         offset="0.30721"
         stop-color="#0B60AC"
         id="stop11" />
      <stop
         offset="1"
         stop-color="#018FD8"
         id="stop12" />
    </linearGradient>
    <linearGradient
       id="paint3_linear_846_678"
       x1="419.832"
       y1="227.19701"
       x2="445.655"
       y2="130.82401"
       gradientUnits="userSpaceOnUse"
       gradientTransform="translate(-26.6059,-26.6059)">
      <stop
         stop-color="#152083"
         id="stop13" />
      <stop
         offset="0.30721"
         stop-color="#0B60AC"
         id="stop14" />
      <stop
         offset="1"
         stop-color="#018FD8"
         id="stop15" />
    </linearGradient>
  </defs>
</svg>
